<?xml version="1.0" encoding="UTF-8"?><svg id="a" xmlns="http://www.w3.org/2000/svg" viewBox="0 0 1920 447"><defs><style>.b{fill:#eaeaea;}</style></defs><g><path class="b" d="M98.81,176.04H11.56v-38.54h12.27V53.61H11.21V15.08H98.81V53.61h-12.73v83.9h12.73v38.54Zm100.1,0H115.59v-38.54h7.75l-35.29-45.83,40.96-38.07h-13.08V15.08h79.27V53.61h-12.5l-32.86,30.55,41.08,53.35h7.99v38.54Z"/><path class="b" d="M297.51,144.91h-82.62v-49.88h82.62v49.88Z"/><path class="b" d="M381.98,176.04h-62.37v-38.54h12.38V53.61h-12.73V15.08h97.09l23.72,62.14,24.3-62.14h96.51V53.61h-12.61v83.9h12.96v38.54h-84.01v-38.54h12.84V47.59l-48.6,128.45h-24.07l-48.14-127.29v88.76h12.73v38.54Z"/><path class="b" d="M735.28,176.04h-153.56v-38.54h12.5V53.61h-12.73V15.08h153.79v51.5h-42.24v-12.96h-36.57v24.76h31.82v32.75h-31.82v26.38h36.57v-12.96h42.24v51.5Z"/><path class="b" d="M846.6,176.04h-87.49v-38.54h13.08V53.61h-13.08V15.08h87.49c7.87,0,15.16,.14,21.87,.41,6.71,.27,12.46,.66,17.24,1.16,4.78,.5,9.18,1.18,13.19,2.02,11.26,2.39,20.4,7.6,27.43,15.62,7.1,8.18,10.65,17.82,10.65,28.93,0,8.33-2.16,15.89-6.48,22.68-4.32,6.71-9.99,11.65-17.01,14.81l22.22,36.8h11.57v38.54h-57.98l-35.06-65.73h-19.79v27.19h12.15v38.54Zm-12.15-125.67v30.67h6.94c9.1,0,15.28-.27,18.52-.81,3.47-.54,6.4-2.08,8.79-4.63,2.39-2.39,3.59-5.67,3.59-9.84s-1.2-7.48-3.59-9.95c-2.39-2.55-5.44-4.09-9.14-4.63-3.55-.54-10.03-.81-19.44-.81h-5.67Z"/><path class="b" d="M1022.15,95.15c0-13.42,3.28-26.42,9.84-39,6.48-12.5,16.55-23.03,30.2-31.59,4.86-3.01,9.85-5.4,14.99-7.17,5.13-1.77,10.7-3.14,16.72-4.11,6.02-.96,12.34-1.45,18.98-1.45,28.85,0,51.19,8.45,67,25.34,7.87,8.33,13.81,17.36,17.82,27.08,4.01,9.72,6.02,20.02,6.02,30.9,0,22.45-8.18,41.97-24.53,58.55-16.36,16.59-38.46,24.88-66.31,24.88s-48.76-7.79-65.5-23.38c-16.82-15.51-25.23-35.53-25.23-60.06Zm69.9,0c0,17.9,1.74,29.97,5.21,36.22,3.32,6.33,8.52,9.49,15.62,9.49s12.27-3.05,15.74-9.14c3.47-6.17,5.21-18.36,5.21-36.57s-1.7-29.7-5.09-36.1c-3.32-6.33-8.6-9.49-15.85-9.49s-12.15,3.05-15.62,9.14c-3.47,6.1-5.21,18.25-5.21,36.45Z"/><path class="b" d="M1338.99,176.04h-90.38v-38.54h13.89V53.61h-18.51v29.28h-30.2V15.08h159.58V82.89h-30.2v-29.28h-18.4v83.9h14.23v38.54Z"/><path class="b" d="M1437.12,176.04h-63.76v-38.54h12.27l30.2-83.9h-12.96V15.08h115.72V53.61h-12.96l30.78,83.9h11.8v38.54h-84.01v-35.29h14.12l-6.13-20.25h-41.2l-7.06,20.25h13.19v35.29Zm15.16-120.12l-15.16,44.55h28.81l-13.65-44.55Z"/><path class="b" d="M1648.89,176.04h-87.25v-38.54h12.27V53.61h-12.61V15.08h87.6V53.61h-12.73v83.9h12.73v38.54Zm100.1,0h-83.32v-38.54h7.75l-35.29-45.83,40.96-38.07h-13.07V15.08h79.27V53.61h-12.5l-32.87,30.55,41.08,53.35h7.98v38.54Z"/><path class="b" d="M1772.48,53.61h-12.38V15.08h82.39V53.61h-7.64v54.27c0,12.96,1.23,21.8,3.7,26.5,2.47,4.63,6.9,6.94,13.31,6.94,5.32,0,9.18-1.97,11.57-5.9,2.39-3.86,3.59-11.76,3.59-23.72V53.61h-8.1V15.08h60.52V53.61h-12.73v58.32c0,14.89-2.16,27.08-6.48,36.57-4.32,9.41-11.5,16.78-21.52,22.1-10.03,5.32-22.37,7.99-37.03,7.99-11.8,0-22.26-1.43-31.36-4.28-9.26-2.78-16.59-7.02-21.99-12.73-5.4-5.63-9.37-12.46-11.92-20.48-2.62-7.79-3.93-19.75-3.93-35.87V53.61Z"/></g><g><path class="b" d="M153.05,433.01H7.22v-57.47h25.2v-125.13H6.35v-57.47H242.8v79.04h-63.86v-21.57h-53.67v36.93h41.42v48.84h-41.42v39.35h27.79v57.47Z"/><path class="b" d="M493.22,433.01h-229.02v-57.47h18.64v-125.13h-18.98v-57.47h229.37v76.8h-62.99v-19.33h-54.54v36.93h47.46v48.84h-47.46v39.35h54.54v-19.33h62.99v76.8Z"/><path class="b" d="M583.31,433.01h-54.02v-76.97h54.02c6.44,20.94,18.58,31.41,36.42,31.41,12.88,0,19.33-5.18,19.33-15.53,0-5.41-2.24-9.89-6.73-13.46-4.83-3.91-15.01-9.32-30.55-16.22-19.56-8.86-33.94-16.51-43.15-22.95-8.63-5.87-15.99-13.98-22.09-24.34-6.1-10.24-9.15-21.57-9.15-34,0-22.32,7.25-39.75,21.75-52.29,14.38-12.54,32.1-18.81,53.16-18.81s38.89,5.98,53.5,17.95v-14.84h54.36v68.34h-53.68c-6.56-18.87-18.18-28.3-34.86-28.3-11.74,0-17.6,5-17.6,15.01,0,4.83,1.67,8.46,5,10.87,3.22,2.53,13.63,8.11,31.24,16.74,23.58,11.74,39.35,20.31,47.29,25.72,4.03,2.65,8.14,6.36,12.34,11.13,4.2,4.78,7.68,9.7,10.44,14.76,6.33,11.28,9.49,23.47,9.49,36.59,0,20.14-7.48,37.16-22.44,51.09-14.96,14.15-33.83,21.23-56.61,21.23-21.17,0-40.33-6.27-57.47-18.81v15.71Z"/><path class="b" d="M934.35,433.01h-134.79v-57.47h20.71v-125.13h-27.61v43.66h-45.05v-101.14h238v101.14h-45.05v-43.66h-27.44v125.13h21.23v57.47Z"/><path class="b" d="M1148.54,433.01h-136.86v-57.47h22.09v-125.13h-22.09v-57.47h136.86v57.47h-21.92v125.13h21.92v57.47Z"/><path class="b" d="M1333.38,435.09h-74.73l-76.63-184.67h-17.78v-57.47h129.1v57.47h-20.37l35.73,102.34,37.45-102.34h-19.68v-57.47h96.82v57.47h-17.78l-72.14,184.67Z"/><path class="b" d="M1509.41,433.01h-95.1v-57.47h18.29l45.05-125.13h-19.33v-57.47h172.59v57.47h-19.33l45.91,125.13h17.6v57.47h-125.3v-52.64h21.05l-9.15-30.2h-61.44l-10.53,30.2h19.68v52.64Zm22.61-179.15l-22.61,66.45h42.97l-20.37-66.45Z"/><path class="b" d="M1920,433.01h-228.51v-57.47h21.57v-125.13h-21.57v-57.47h137.21v57.47h-22.78v125.13h56.78v-38.49h57.3v95.96Z"/></g></svg>