<svg width="2210" height="633" viewBox="0 0 2210 633" fill="none" xmlns="http://www.w3.org/2000/svg">
<path d="M1.89706 129.4C-4.4909 95.4638 5.09608 51.056 33.1809 31.5456C83.0937 -3.13737 142.826 74.5411 256.204 91.0654C434.139 116.992 523.943 -39.7774 670.967 13.387C714.532 29.1345 759.844 62.1428 755.736 86.0213C746.886 137.39 518.585 92.8409 456.017 200.017C420.222 261.333 475.09 309.917 434.825 385.638C394.549 461.36 288.376 509.268 235.012 479.458C185.341 451.715 225.93 381.492 167.399 292.828C106.627 200.764 16.3179 205.929 1.89706 129.4Z" fill="black"/>
<path d="M398.495 519.81C392.147 486.449 442.605 450.969 458.035 440.114C552.351 373.795 623.405 432.669 735.553 374.541C794.437 344.015 800.613 314.426 845.551 313.004C912.498 310.885 981.191 373.956 972.704 406.823C964.248 439.589 886.028 415.428 787.02 474.414C723.433 512.294 731.446 536.718 680.049 563.189C571.071 619.329 408.889 574.498 398.495 519.81Z" fill="black"/>
<path d="M830.414 65.8451C824.49 85.5169 878.833 118.091 901.055 131.418C982.998 180.547 1023.71 164.507 1102.89 204.052C1181.01 243.083 1169.83 272.914 1224.99 288.792C1325.45 317.705 1456.7 245.827 1455.08 194.973C1453.81 154.933 1369.68 111.655 1298.66 118.303C1254.48 122.439 1250.88 142.575 1209.86 145.541C1143.71 150.323 1120.03 100.336 1037.29 67.8628C944.448 31.4144 837.942 40.8468 830.414 65.8451Z" fill="#FF0000"/>
<path d="M779.815 195.437C796.91 180.184 788.17 151.887 765.525 148.467C643.659 130.106 601.699 149.465 587.207 172.769C578.972 186.005 578.66 202.045 559.96 229.262C530.906 271.552 500.763 277.817 503.447 290.8C507.928 312.449 598.762 329.125 628.583 292.818C650.037 266.71 627.493 228.334 648.766 213.121C667.425 199.775 692.159 224.017 728.489 220.183C748.248 218.095 765.343 208.35 779.815 195.437Z" fill="#FF0000"/>
<path d="M1091.78 327.127C1158.38 327.732 1182.05 347.697 1230.04 356.383C1348.2 377.77 1398.29 291.748 1464.16 325.11C1522.32 354.567 1546.76 453.783 1518.66 481.475C1485.39 514.252 1406.07 419.676 1279.49 436.079C1170.8 450.162 1097.35 537 1075.64 515.775C1061.88 502.327 1093.64 469.682 1078.67 428.008C1060.61 377.78 994.573 369.84 997.933 350.33C1000.8 333.684 1051.07 326.754 1091.78 327.127Z" fill="black"/>
<path d="M1634.71 304.933C1622.82 330.234 1700.33 366.632 1691.22 420.947C1681.36 479.791 1580.44 496.446 1585.26 522.837C1589.52 546.13 1666.76 525.792 1763.88 568.233C1834.6 599.133 1851.35 635.127 1903.15 631.788C1947.02 628.964 1992.14 599.456 1990.94 575.295C1989.26 541.217 1896.78 545.384 1872.87 486.519C1855.41 443.544 1894.85 417.022 1881.95 375.55C1855.84 291.557 1652.63 266.81 1634.71 304.933Z" fill="#FF0000"/>
<path d="M1415.72 54.7482C1417.54 64.2613 1528.68 20.2267 1591.32 76.942C1638.72 119.867 1610.53 177.198 1658.93 211.114C1704.45 243.013 1742.54 201.5 1815.35 234.317C1867.71 257.913 1872.78 290.548 1909.2 290.81C1957.53 291.153 2009.67 234.145 2000.02 204.052C1987.41 164.719 1880.92 207.886 1786.08 138.48C1727.02 95.2419 1740.69 58.2689 1688.2 25.4927C1581.22 -41.3108 1413.46 42.9552 1415.72 54.7482Z" fill="black"/>
<path d="M1945.53 29.5279C1937.56 33.1495 1884.82 57.0886 1888.01 79.9685C1892.18 109.839 1985.5 94.1019 2029.29 154.62C2047.91 180.355 2058.76 221.515 2045.44 254.493C2025.77 303.188 1969.7 293.695 1938.47 352.347C1934.73 359.349 1915.46 395.565 1927.37 434.061C1937.36 466.363 1964.59 483.533 1990.94 499.634C2028.98 522.877 2097.42 564.692 2147.36 543.013C2237.7 503.8 2206.68 283.274 2196.81 213.132C2185.18 130.47 2174.7 73.9459 2124.15 38.6072C2068.84 -0.0605206 1994.06 7.50556 1945.53 29.5279Z" fill="black"/>
</svg>
