<?xml version="1.0" encoding="UTF-8"?><svg id="a" xmlns="http://www.w3.org/2000/svg" viewBox="0 0 8518 1500"><defs><style>.b{fill:#e52521;}.c{fill:#010101;}</style></defs><path class="c" d="M55.8,412.71c-20.31-68.45,177.4-248.6,366.56-229.1,148.66,15.32,163.6,140.72,336.01,171.82,178.14,32.14,292.6-78.21,336.01-26.73,39.38,46.7-13.59,186.34-110.73,255.83-129.03,92.31-309.11,41.6-416.2,11.45-123.82-34.86-126.17-66.45-290.19-114.55-153.4-44.99-211.45-34.99-221.46-68.73Z"/><path class="c" d="M347.01,807.04c-88.79,30.41-136.56,228.57-64.91,316.92,45.78,56.45,110.53,31.33,290.19,53.46,300.93,37.06,392.59,141.21,488.74,76.37,75.49-50.91,110.12-176.56,68.73-232.92-59.07-80.43-223.82,47.2-446.74-22.91-198.69-62.49-248.78-220.79-336.01-190.92Z"/><path class="b" d="M917.73,765.56c-1.4,25.16,117.65,50.57,146.65,56.76,172.47,36.81,382.81,81.7,603.23-14.28,40.81-17.77,337.52-146.96,315.02-313.53-16.77-124.1-205.77-232.3-323.22-190.32-110.58,39.52-71.36,181.27-200.5,305.36-193.9,186.31-538.79,113.18-541.17,156.01Z"/><path class="c" d="M2028.85,916.42c-104.22,2.6-118.69,75.46-294.01,114.55-133.31,29.72-227.9,10.55-240.55,49.64-14.77,45.65,106.44,95.81,95.46,164.19-10.94,68.07-141.39,82.56-137.46,110.73,4.33,31.05,170.79,70.56,328.38,7.64,126.71-50.59,124.67-118.29,240.55-160.37,176.69-64.16,317.84,43.7,343.65,0,32.15-54.44-145.96-291.11-336.01-286.37Z"/><path class="c" d="M2377.34,389.8c-34.79,34.68,15.87,101.38-34.36,198.55-52.92,102.37-160.64,127.99-152.73,152.73,9.14,28.61,143.82-35.07,290.19,0,213.02,51.04,248.53,262.79,404.74,259.65,86.24-1.74,183.93-68.46,198.55-145.1,42.37-222.07-605.26-566.65-706.39-465.83Z"/><path class="c" d="M3210.7,238.47c-34.58,12.2-81.86,32.57-88.27,68.15-8.3,46.07,60.55,69.83,108.58,161.61,46.7,89.24,12.67,126.13,49.3,162.28,63.54,62.7,182.21-32.19,402.13-47.33,221.29-15.23,327.13,65.29,367.61,10.86,44.21-59.46-37.48-215.52-142.2-308.08-237.34-209.78-585.62-86.85-697.14-47.49Z"/><path class="c" d="M3413.15,914.98c-37.62,38.8-3.49,76.51-34.36,152.73-75.27,185.82-367.32,182.04-370.38,267.28-1.99,55.42,118.97,126.23,240.55,137.46,219.45,20.26,300.31-166.57,507.84-137.46,132.64,18.6,189.97,107.61,232.92,76.37,52.47-38.17,17.85-208.08-68.73-324.56-137.3-184.72-423.18-259.13-507.84-171.82Z"/><path class="b" d="M4149.04,763.99c-3.14,27.91,177.32,15.01,301.65,160.37,114.17,133.48,54.33,252.31,156.55,328.38,112.96,84.07,341.48,54.6,420.01-76.37,47.14-78.61,37.06-188.46-7.64-267.28-169.54-299-864.45-199.64-870.58-145.1Z"/><path class="c" d="M4706.51,259.97c-2.51,33.36,129.53,38.18,164.19,137.46,22.66,64.91-22.07,96.4,0,145.1,40.57,89.49,208.77,20.79,343.65,122.19,121.56,91.39,90,226.17,179.46,248.19,93.02,22.89,234.27-96.48,225.28-187.1-9.13-92.03-166.41-85.8-267.28-252.01-59.04-97.28-25.46-132.87-76.37-194.73-143.6-174.5-564.49-78.06-568.93-19.09Z"/><path class="b" d="M5733.64,244.7c-24.77,49.3-10.12,108.35-7.64,118.37,21.3,85.89,102.05,147.67,171.82,171.82,179.43,62.11,275.24-128.48,530.75-110.73,158.35,11,251.01,93.19,267.28,68.73,20.08-30.19-105.01-179.54-274.92-267.28-260.8-134.67-617.76-119.35-687.3,19.09Z"/><path class="c" d="M5336.53,1065.64c-21.73,42.49,35.55,98.11,0,164.19-26.11,48.54-79.26,59.88-76.37,68.73,5.19,15.9,168.48-45.98,328.38-61.09,321.12-30.35,433.39,146.38,618.57,61.09,98.8-45.5,191.86-153.39,187.1-274.92-5.9-150.54-160.29-281.28-274.92-267.28-123.69,15.1-108.29,187.38-271.1,271.1-205.58,105.71-468.34-46.51-511.65,38.18Z"/><path class="c" d="M6627.13,741.08c-5.14,42.99,77.43,49.2,118.37,145.1,57.99,135.83-51.58,254.72,0,309.28,43.35,45.87,134.17-23.93,309.28-42,242.71-25.05,413.71,73.39,431.47,34.36,15.35-33.73-124.19-81.49-183.28-232.92-47.95-122.88,9.36-180.06-34.36-248.19-108.86-169.62-628.79-71.83-641.48,34.36Z"/><path class="c" d="M6902.04,405.07c32.34,53.4,172.05-40.09,385.65-15.27,303.22,35.23,429.28,271,507.84,221.46,81.05-51.11,58.18-372.27-145.1-515.47-222.41-156.68-505.49,9.09-534.56,26.73-132.6,80.44-246.76,228.17-213.83,282.56Z"/><path class="b" d="M7581.71,775.45c-36.52,35.49,58.57,264.09,255.83,370.38,172.45,92.92,431.62,97,549.84-34.36,224.55-249.52-165.84-869.4-198.55-859.12-16.11,5.06,61.94,160.6,0,351.29-7.62,23.46-82.14,243.27-248.19,282.56-174.36,41.25-321.82-146.79-358.92-110.73Z"/></svg>