<?xml version="1.0" encoding="UTF-8"?><svg id="a" xmlns="http://www.w3.org/2000/svg" viewBox="0 0 2000 2000"><defs><style>.b{font-family:Rockwell-ExtraBold, Rockwell Extra Bold;font-size:105.54px;}.b,.c{fill:#010101;}</style></defs><path class="c" d="M1221.57,1605.57c2.79-1.91,5.52-3.88,8.25-5.87,2.16-1.57,4.34-3.12,6.46-4.73,.9-.6,1.76-1.28,2.62-1.92,2.21-1.68,4.3-3.47,6.46-5.21,1.82-1.46,3.65-2.9,5.44-4.39,.66-.55,1.36-1.07,2.01-1.62,2.81-2.35,5.62-4.81,8.36-7.28,.51-.46,1-.94,1.51-1.4,1.06-.96,2.1-1.95,3.15-2.92,3.35-3.08,6.64-6.21,9.86-9.4,1.12-1.1,2.23-2.21,3.33-3.33,1.14-1.16,2.33-2.28,3.46-3.46l.06-.06c2.48-2.58,4.92-5.21,7.32-7.85,.63-.69,1.24-1.4,1.87-2.1,1.06-1.19,2.15-2.37,3.18-3.57,.86-.98,1.65-2.01,2.51-2.99,2.78-3.23,5.53-6.48,8.21-9.8,2-2.47,3.95-4.97,5.88-7.48,2.07-2.7,4.1-5.43,6.1-8.18,1.07-1.47,2.21-2.88,3.26-4.37,.85-1.19,1.61-2.44,2.43-3.64,1.76-2.56,3.48-5.14,5.18-7.74,.96-1.47,1.99-2.89,2.92-4.37,.63-.99,1.19-2.03,1.81-3.02,2.11-3.38,4.14-6.8,6.15-10.24,1.54-2.65,3.1-5.28,4.58-7.96,2.28-4.14,4.45-8.35,6.59-12.58,.69-1.37,1.46-2.68,2.13-4.06,.23-.46,.44-.93,.66-1.38,.44-.9,.87-1.81,1.3-2.71,2.21-4.59,4.36-9.22,6.34-13.95,.1-.22,.17-.45,.27-.67,2.77-6.48,5.39-13.04,7.82-19.7,.63-1.74,1.17-3.52,1.78-5.27,1.77-5.07,3.48-10.17,5.04-15.34,.19-.63,.43-1.24,.61-1.87,1.28-4.27,2.45-8.57,3.58-12.89,.25-.97,.49-1.95,.74-2.93,.37-1.49,.77-2.97,1.13-4.46,1-4.13,1.92-8.3,2.78-12.48,.11-.53,.2-1.06,.31-1.59,1.05-5.18,1.97-10.41,2.8-15.67,.22-1.4,.46-2.8,.67-4.2,.68-4.64,1.3-9.3,1.81-14,.06-.45,.09-.9,.14-1.35,.18-1.71,.36-3.41,.53-5.13,.52-5.23,.95-10.47,1.2-15.77,.08-1.43,.14-2.87,.2-4.3,.29-5.89,.45-11.83,.45-17.79V719.45c0-108.84-44.11-207.37-115.43-278.69-71.32-71.32-169.85-115.43-278.69-115.43-217.63,0-394.12,176.44-394.12,394.12v561.11c0,6.32,.17,12.63,.5,18.88,.04,.76,.06,1.52,.1,2.27,.01,.18,.01,.37,.03,.56,.26,5.74,.73,11.43,1.32,17.11,.1,1.03,.21,2.05,.31,3.07,.1,.83,.16,1.68,.26,2.51,.54,4.94,1.21,9.84,1.93,14.72,.11,.76,.24,1.51,.36,2.26,1.62,10.43,3.62,20.75,6.07,30.9,.45,1.94,.97,3.86,1.45,5.78,.06,.22,.11,.45,.17,.67,1.19,4.66,2.45,9.29,3.82,13.88,.26,.89,.6,1.75,.87,2.64,1.3,4.24,2.73,8.42,4.16,12.6,.84,2.46,1.61,4.95,2.5,7.39,2.36,6.46,4.9,12.83,7.58,19.12,.15,.35,.27,.71,.42,1.05,2.58,6.13,5.38,12.14,8.31,18.1,1.22,2.48,2.57,4.86,3.84,7.31,1.54,2.97,3.05,5.95,4.66,8.88,1.68,3.06,3.45,6.06,5.22,9.07,1.78,3.03,3.57,6.05,5.42,9.03,.73,1.16,1.37,2.37,2.11,3.52,1.2,1.91,2.5,3.73,3.74,5.61,1.19,1.79,2.36,3.59,3.58,5.37,1.09,1.6,2.12,3.26,3.22,4.84,1.38,1.95,2.87,3.8,4.28,5.72,1.46,1.99,2.93,3.95,4.43,5.91,2.33,3.05,4.7,6.08,7.12,9.06,1.96,2.42,3.96,4.79,5.98,7.17,1.4,1.64,2.72,3.35,4.14,4.97,.96,1.09,1.96,2.12,2.93,3.2,1.28,1.42,2.58,2.82,3.87,4.23,1.48,1.6,2.91,3.25,4.43,4.83v.02c.1,.1,.2,.2,.3,.3,.28,.29,.55,.59,.84,.88,1.27,1.31,2.58,2.57,3.87,3.86,.9,.91,1.81,1.81,2.72,2.72,1.12,1.11,2.21,2.24,3.34,3.34,2.48,2.4,5.03,4.73,7.58,7.07,.62,.57,1.23,1.16,1.85,1.72,.51,.46,.99,.94,1.5,1.39,2.92,2.58,5.9,5.21,8.94,7.73,.52,.44,1.06,.84,1.58,1.28,1.98,1.65,4,3.25,6.01,4.87,2.1,1.69,4.15,3.45,6.27,5.08l.06,.06c1.12,.85,2.27,1.66,3.4,2.51,.88,.67,1.78,1.31,2.67,1.97,4.03,2.97,8.11,5.88,12.25,8.71,.81,.55,1.62,1.12,2.44,1.66,1.39,.94,2.76,1.92,4.16,2.85,2.69,1.72,5.38,3.44,8.08,5.1,.63,.39,1.29,.74,1.92,1.13,1.26,.77,2.54,1.49,3.81,2.25,3.16,1.89,6.29,3.83,9.51,5.61,.94,.53,1.93,.99,2.88,1.51,1.98,1.09,4.01,2.1,6.01,3.15,3.66,1.92,7.31,3.85,11.03,5.65,2.68,1.3,5.41,2.5,8.12,3.74,2.69,1.23,5.33,2.53,8.05,3.71,.49,.21,.99,.39,1.47,.6,1.51,.64,3.05,1.23,4.58,1.86,3.47,1.43,6.93,2.9,10.45,4.24,.9,.34,1.82,.61,2.72,.95,2.07,.77,4.18,1.45,6.26,2.18,4.26,1.49,8.51,3,12.83,4.34,1.67,.52,3.38,.96,5.06,1.46,4.32,1.28,8.62,2.61,13,3.74,.3,.08,.61,.13,.91,.21,.36,.09,.73,.16,1.1,.26,5.69,1.45,11.39,2.82,17.13,4,6.15,1.27,12.36,2.34,18.6,3.32,1.25,.2,2.51,.38,3.76,.57,5.22,.77,10.47,1.44,15.76,2,.87,.09,1.73,.21,2.6,.3,5.4,.54,10.82,1,16.28,1.32,.85,.05,1.72,.07,2.58,.11,.41,.02,.82,.03,1.23,.05,6.45,.32,12.95,.52,19.51,.52s13.04-.2,19.48-.52c.44-.02,.87-.04,1.31-.06,.84-.04,1.69-.06,2.53-.11,5.45-.32,10.85-.78,16.23-1.31,.95-.09,1.89-.22,2.85-.32,5.18-.55,10.32-1.21,15.43-1.96,1.34-.2,2.68-.39,4.02-.6,6.2-.97,12.37-2.04,18.47-3.3,5.13-1.05,10.21-2.3,15.3-3.57,1.01-.25,2.04-.45,3.05-.71,.26-.07,.52-.12,.79-.18,3.79-.98,7.51-2.14,11.26-3.24,2.31-.68,4.66-1.28,6.95-2,4.02-1.25,7.98-2.66,11.95-4.04,2.39-.83,4.81-1.62,7.18-2.5,.84-.31,1.7-.57,2.53-.88,2.82-1.06,5.54-2.26,8.31-3.39,2.55-1.03,5.12-2.04,7.64-3.12,.2-.09,.4-.16,.6-.25,1.27-.54,2.5-1.17,3.76-1.73,4.27-1.89,8.53-3.8,12.72-5.84,3.26-1.59,6.45-3.28,9.66-4.95,2.43-1.27,4.87-2.5,7.27-3.81,.86-.47,1.76-.9,2.62-1.38,2.66-1.51,5.27-3.12,7.9-4.68,2.04-1.2,4.1-2.38,6.12-3.62,.42-.26,.86-.49,1.28-.75,2.01-1.2,3.95-2.46,5.9-3.78,.89-.56,1.75-1.18,2.64-1.76,2.39-1.56,4.77-3.13,7.12-4.74Zm-594.07-373.62c28.58-36.02,65.11-65.33,108.76-87.05,11.51-5.73,23.65-10.98,36.09-15.62,5.19-1.93,7.83-7.7,5.89-12.89-1.94-5.19-7.71-7.83-12.89-5.89-13.1,4.88-25.88,10.42-38.02,16.46-38.7,19.26-72.1,44.24-99.82,74.28v-31.75c28.55-34.56,65.03-62.69,108.62-83.56,11.52-5.52,23.67-10.57,36.11-15.03,5.21-1.87,7.93-7.61,6.06-12.82-1.87-5.21-7.62-7.92-12.82-6.06-13.08,4.68-25.86,10.01-38.01,15.82-38.75,18.55-72.2,42.62-99.96,71.59v-419.97c0-204.68,166.52-371.21,371.21-371.21,99.16,0,192.38,38.61,262.49,108.72,70.11,70.11,108.72,163.33,108.72,262.49v419.98c-27.76-28.97-61.21-53.05-99.97-71.6-12.15-5.81-24.93-11.14-38.01-15.82-5.17-1.86-10.95,.84-12.82,6.06-1.87,5.21,.84,10.95,6.06,12.82,12.43,4.45,24.58,9.51,36.11,15.03,43.59,20.87,80.08,49.01,108.63,83.57v31.75c-27.72-30.04-61.13-55.03-99.83-74.29-12.14-6.04-24.93-11.58-38.02-16.46-5.17-1.94-10.96,.7-12.89,5.89-1.94,5.19,.7,10.96,5.89,12.89,12.44,4.64,24.58,9.89,36.09,15.62,43.64,21.73,80.18,51.04,108.76,87.06v40.01c-62.7-66.65-141.43-114.54-227.75-139.82v-177.94c14.55-2.39,29.03-5.12,43.41-8.24,5.41-1.17,8.84-6.51,7.67-11.92-1.17-5.41-6.52-8.84-11.92-7.67-12.98,2.82-26.04,5.27-39.16,7.48v-24.66c29.54-4.34,58.88-10,87.9-17.05,5.38-1.3,8.68-6.72,7.37-12.11-1.3-5.38-6.68-8.7-12.11-7.37-27.47,6.67-55.23,12.1-83.17,16.3v-65.82c48.51-5.71,96.69-14.31,144.17-25.84,5.38-1.3,8.68-6.72,7.37-12.11-1.31-5.37-6.7-8.7-12.11-7.37-91.84,22.29-186.28,33.59-280.77,33.59-.88,0-1.77,0-2.65,0-93.56-.21-187.11-11.51-278.03-33.59-5.37-1.33-10.8,2-12.11,7.37-1.31,5.38,1.99,10.8,7.37,12.11,45.7,11.1,92.06,19.49,138.75,25.2v65.58c-26.11-4.07-52.07-9.18-77.74-15.41-5.39-1.32-10.8,1.99-12.11,7.37-1.31,5.38,1.99,10.8,7.37,12.11,27.23,6.61,54.76,12.02,82.48,16.25v24.51c-11.29-1.97-22.55-4.1-33.73-6.53-5.4-1.18-10.75,2.26-11.92,7.67-1.17,5.41,2.26,10.75,7.67,11.92,12.59,2.73,25.26,5.12,37.98,7.29v179.2c-85.9,25.37-164.23,73.15-226.67,139.54v-40.06Zm360.64-400.66v68.06c-38.1-.51-76.16-3.33-113.92-8.4v-66.28c37.85,3.99,75.87,6.22,113.92,6.62Zm20.05,.07c38.05-.23,76.07-2.3,113.93-6.12v66.43c-37.78,4.85-75.83,7.45-113.93,7.74v-68.06Zm-10.13,88.21s.07,.01,.11,.01c.03,0,.05,0,.08,0,.15,0,.3,0,.44,0h2.17c40.53,0,81.05-2.62,121.26-7.68v25.07c-40.08,5.75-80.65,8.72-121.23,8.72h-1.73c-41.84-.09-83.66-3.33-124.94-9.52v-24.99c41.05,5.4,82.43,8.27,123.84,8.39Zm1.05,46.18h1.77c40.57,0,81.14-2.89,121.23-8.51v169.44c-39.95-9.95-81.36-15.11-123.41-15.11s-84.2,5.27-124.49,15.39v-170.52c41.28,6.05,83.08,9.22,124.89,9.31Zm-.4,165.87c142.61,0,277.45,61.8,370.6,169.63-.32,7.04-.89,13.87-1.74,20.87l-.02,.15-.02,.15c-1.64,15.13-4.29,30.29-7.89,45.18-1.42,6.05-3.14,12.43-5.1,19.01-1.83,6.15-3.86,12.18-5.97,18.14-74.83-120.64-207.22-194.88-349.86-194.88s-275.06,74.25-349.88,194.91c-2.15-6.04-4.16-12.11-5.96-18.16-2-6.67-3.66-12.88-5.12-19.15-3.56-14.74-6.21-29.88-7.86-44.99l-.02-.15-.02-.15c-.84-6.87-1.42-13.9-1.74-20.89,93.14-107.86,227.98-169.67,370.6-169.67Zm0,98.3c140.76,0,271.06,76,340.59,198.44-2.07,4.86-4.4,9.92-7.22,15.62-5.96,12.23-12.66,24.18-20,35.62-3.47,5.47-6.7,10.29-9.93,14.85-4.94,7.03-10.28,13.85-15.77,20.55-44.35-120.33-158.26-200.24-287.66-200.24s-243.3,79.95-287.6,200.34c-5.5-6.72-10.85-13.55-15.8-20.54-3.79-5.42-7.03-10.28-10.03-15.04-7.12-11.11-13.84-23.06-19.97-35.52-2.81-5.73-5.13-10.79-7.2-15.63,69.53-122.44,199.83-198.43,340.59-198.43Zm267.41,308.1l-.15,.15c-.36,.37-.75,.74-1.11,1.11-6.09-2.91-12.81-4.55-19.76-4.55-4.01,0-8.13,.52-12.2,1.66-16.43,4.51-28.26,17.43-32.19,32.82-8.49-33.32-24.85-63.18-46.93-87.67,.8,.06,1.61,.13,2.41,.14h.63c12.66,0,25.26-5.21,34.37-15.41,7.73-8.71,11.51-19.53,11.51-30.36,0-7.41-1.84-14.77-5.36-21.42,33.17,31.88,58.9,72.01,73.89,118.07-1.61,1.75-3.26,3.51-5.06,5.39l-.06,.06Zm-261.08-177.7l9.59,16.63c2.81,4.87-.71,10.96-6.33,10.96h-19.19c-5.62,0-9.14-6.09-6.33-10.96l9.59-16.63c2.81-4.88,9.85-4.88,12.66,0Zm140.38,88.37c-7.05-6.3-7.73-17.13-1.49-24.23,3.38-3.84,8.14-5.84,12.89-5.84,4.07,0,8.14,1.43,11.4,4.35,3.84,3.38,5.78,8.13,5.78,12.89,0,4.07-1.37,8.08-4.3,11.34-3.38,3.84-8.19,5.84-12.89,5.84h-.23c-4.01-.06-7.91-1.49-11.17-4.35Zm11.4-58.66c-12.66,0-25.26,5.21-34.31,15.41-10.22,11.54-13.52,26.77-10.29,40.73-29.8-19.25-64.8-31.08-102.39-33.03,16.99-4.84,29.44-20.44,29.44-38.98s-12.78-34.53-30.1-39.15c60.27,2.15,116.5,22.88,162.34,57.46-4.77-1.61-9.73-2.44-14.69-2.44Zm-198.66-15.87c0,18.54,12.45,34.14,29.44,38.98-36.55,1.9-70.67,13.11-99.91,31.42,.85-3.54,1.33-7.15,1.33-10.77,0-10.6-3.61-21.25-11.06-29.9-9.05-10.6-21.88-15.98-34.72-15.98-4.85,0-9.7,.81-14.37,2.35,45.29-33.27,100.41-53.13,159.39-55.24-17.32,4.62-30.1,20.37-30.1,39.15Zm-126.14,46.57c3.21-2.81,7.22-4.18,11.17-4.18,4.87,0,9.68,2.06,13.06,6.01,2.81,3.27,4.18,7.22,4.18,11.17,0,4.87-2.06,9.68-6.01,13.06-3.21,2.81-7.22,4.12-11.23,4.12h-.23c-4.76-.06-9.4-2.06-12.72-5.96-6.19-7.22-5.44-18.04,1.77-24.23Zm-101.86,116.07c-1.32-1.38-2.61-2.78-3.9-4.17,15.43-47.48,42.24-88.7,76.88-121.03-8.98,16.29-7.49,37.12,5.34,52.04,4.47,5.16,9.8,9.11,15.64,11.74,5.84,2.69,12.14,4.07,18.5,4.18h.74c.72,0,1.44-.06,2.16-.09-22.6,24.41-39.39,54.38-48.25,87.89-3.46-15.83-15.1-29.38-31.7-34.35-4.3-1.26-8.65-1.83-12.89-1.83-7.91,0-15.59,2.07-22.33,5.83-.06-.07-.12-.13-.19-.2Zm180.76,104.41c-1.47-6.41-2.26-13.06-2.26-19.81,0-49.65,40.4-90.05,90.06-90.05s90.05,40.4,90.05,90.05c0,6.73-.79,13.39-2.27,19.82-4.05,.98-8.11,2.01-12.1,2.83-17.51,3.62-35.58,6-53.72,7.07-7.19,.43-14.58,.65-21.95,.65s-14.76-.22-21.97-.65c-18.13-1.07-36.19-3.45-53.74-7.08-3.96-.81-8.04-1.84-12.09-2.83Z"/><polygon class="c" points="536.56 560.8 550.32 566.59 552.2 562.12 582.01 574.65 580.14 579.12 593.9 584.91 607.24 553.16 593.47 547.38 591.52 552.02 561.71 539.49 563.66 534.84 549.89 529.06 536.56 560.8"/><polygon class="c" points="564.56 494.13 552.46 522.95 566.22 528.74 568.25 523.92 575.51 544.48 597.19 538.52 596.04 541.27 609.8 547.05 622.49 516.86 608.72 511.07 607.49 514 582.24 520.89 576.41 504.48 578.33 499.92 564.56 494.13"/><rect class="c" x="614.78" y="455.19" width="32.47" height="19.33" transform="translate(-110.51 718.63) rotate(-55.27)"/><polygon class="c" points="635.8 390.23 645.8 401.32 649.47 398.02 671.11 422.04 667.44 425.35 677.43 436.44 695.73 419.96 685.73 408.86 682.06 412.17 658.95 386.52 659.09 386.39 706.05 410.66 713.12 404.29 694.02 354.92 694.16 354.8 717.27 380.46 713.6 383.77 723.59 394.86 747.98 372.88 737.99 361.79 734.32 365.1 712.68 341.07 716.35 337.76 706.36 326.67 678.22 352.02 687.14 376.28 664.15 364.69 635.8 390.23"/><polygon class="c" points="795.87 298.58 810.66 291.02 801.62 273.32 747.78 300.81 754.57 314.11 758.97 311.86 773.67 340.67 769.27 342.92 776.06 356.22 829.9 328.72 820.86 311.02 806.07 318.57 808.32 322.97 795.52 329.51 790.9 320.45 802.03 314.77 796.29 303.51 785.15 309.19 780.82 300.7 793.62 294.17 795.87 298.58"/><path class="c" d="M919.33,257.37c-.89-3.65-3.03-7.75-7.52-10.43-6.4-3.82-13.27-3.66-30.69,.56l-34.19,8.29,3.52,14.51,4.99-1.21,7.62,31.43-4.99,1.21,3.52,14.51,33.46-8.11-3.52-14.51-4.63,1.12-2.46-10.15,7.53-1.82,19.4,21.41,22.22-5.39-3.52-14.51-4.44,1.08-11.87-11.73c4.88-3.63,7.06-10.1,5.57-16.24Zm-30.85,14.55l-6.71,1.63-2.78-11.48,6.89-1.67c4.81-1.17,7.91,.53,8.75,4.01,.86,3.56-1.25,6.34-6.15,7.52Z"/><path class="c" d="M1155.24,290.68c3.91-14.13-2-34.02-25.83-40.62-23.83-6.6-39.14,7.42-43.05,21.55-3.91,14.13,2,34.02,25.83,40.62,23.83,6.6,39.14-7.42,43.05-21.54Zm-42.35-11.73c3.11-11.21,6.16-16.64,12.63-14.85,6.47,1.79,6.3,8.02,3.19,19.23-3.11,11.21-6.16,16.64-12.63,14.85-6.47-1.79-6.3-8.02-3.19-19.23Z"/><polygon class="c" points="1192.49 325.34 1185.38 338.47 1216.81 355.48 1223.92 342.34 1218.99 339.68 1234.38 311.24 1240.78 314.7 1235.42 324.61 1245.92 330.3 1258.39 307.25 1203 277.27 1190.53 300.32 1201.04 306 1206.4 296.09 1212.8 299.56 1197.41 328 1192.49 325.34"/><path class="c" d="M1259.09,364.42l-9.74,11.33,19.04,16.36,8.9-10.35-3.96-3.41,7.13-4.14,12.31,10.58-3.24,7.49-4.17-3.59-8.9,10.35,25.12,21.59,9.73-11.33-3.54-3.04,11.88-32.43,3.89,3.35,9.73-11.33-34.6-29.73-9.74,11.33,3.89,3.35-30.14,16.74-3.61-3.1Zm43.97-3.78l.14,.12-7.2,16.53-8.56-7.36,15.62-9.29Z"/><polygon class="c" points="1333.98 433.77 1321.85 442.49 1341.93 470.45 1354.06 461.74 1351.12 457.64 1377.39 438.77 1380.33 442.86 1392.46 434.15 1372.37 406.19 1360.24 414.9 1363.07 418.84 1336.81 437.72 1333.98 433.77"/><polygon class="c" points="1384.19 448.24 1387.24 452.48 1365.92 447.93 1359.67 469.54 1357.93 467.12 1345.8 475.83 1364.9 502.43 1377.03 493.71 1375.18 491.14 1382.5 466 1399.54 469.61 1402.42 473.63 1414.55 464.91 1396.32 439.53 1384.19 448.24"/><path class="c" d="M1389.11,557.8c6.54,16.17,17.86,20.95,32.13,15.19l22.43-9.07,1.85,4.58,13.85-5.6-8.92-22.06-13.85,5.6,1.19,2.94-20.81,8.41c-7.9,3.19-11.01,2.84-12.72-1.4-2.34-5.79,3.12-8.41,7.54-10.19l21.24-8.58,1.15,2.85,13.85-5.6-12.17-30.1-13.85,5.6,1.82,4.5-20.9,8.45c-17.33,7-20.27,18.56-13.83,34.47Z"/><path class="c" d="M1024.49,268.09c0-14.76-11.96-26.72-26.72-26.72s-26.72,11.96-26.72,26.72,11.96,26.72,26.72,26.72,26.72-11.96,26.72-26.72Z"/><path class="c" d="M556.9,655.52c14.76,0,26.72-11.96,26.72-26.72s-11.96-26.72-26.72-26.72-26.72,11.96-26.72,26.72,11.96,26.72,26.72,26.72Z"/><path class="c" d="M1467.26,628.8c0-14.76-11.96-26.72-26.72-26.72s-26.72,11.96-26.72,26.72,11.96,26.72,26.72,26.72,26.72-11.96,26.72-26.72Z"/><path class="c" d="M530.18,1363.57c0,14.76,11.96,26.72,26.72,26.72s26.72-11.96,26.72-26.72-11.96-26.72-26.72-26.72-26.72,11.96-26.72,26.72Z"/><path class="c" d="M1467.26,1363.57c0-14.76-11.96-26.72-26.72-26.72s-26.72,11.96-26.72,26.72,11.96,26.72,26.72,26.72,26.72-11.96,26.72-26.72Z"/><path class="c" d="M1423.36,739.49h173.67c6.32,0,11.45-5.13,11.45-11.45s-5.13-11.45-11.45-11.45h-173.67v22.9Z"/><path class="c" d="M1423.36,826.64h211.84c6.32,0,11.45-5.13,11.45-11.45s-5.13-11.45-11.45-11.45h-211.84v22.9Z"/><path class="c" d="M1423.36,913.8h250.02c6.32,0,11.45-5.13,11.45-11.45s-5.13-11.45-11.45-11.45h-250.02v22.9Z"/><path class="c" d="M1711.55,978.05h-288.18v22.9h288.18c6.32,0,11.45-5.13,11.45-11.45s-5.13-11.45-11.45-11.45Z"/><path class="c" d="M1597.04,1239.52h-173.67v22.9h173.67c6.32,0,11.45-5.13,11.45-11.45s-5.13-11.45-11.45-11.45Z"/><path class="c" d="M1635.21,1152.36h-211.84v22.9h211.84c6.32,0,11.45-5.13,11.45-11.45s-5.13-11.45-11.45-11.45Z"/><path class="c" d="M1673.38,1065.21h-250.02v22.9h250.02c6.32,0,11.45-5.13,11.45-11.45s-5.13-11.45-11.45-11.45Z"/><path class="c" d="M400.4,739.49h173.67v-22.9h-173.67c-6.32,0-11.45,5.13-11.45,11.45s5.13,11.45,11.45,11.45Z"/><path class="c" d="M362.23,826.64h211.84v-22.9h-211.84c-6.32,0-11.45,5.13-11.45,11.45s5.13,11.45,11.45,11.45Z"/><path class="c" d="M324.06,913.8h250.02v-22.9h-250.02c-6.32,0-11.45,5.13-11.45,11.45s5.13,11.45,11.45,11.45Z"/><path class="c" d="M574.08,978.05H285.89c-6.32,0-11.45,5.13-11.45,11.45s5.13,11.45,11.45,11.45h288.18v-22.9Z"/><path class="c" d="M574.08,1239.52h-173.67c-6.32,0-11.45,5.13-11.45,11.45s5.13,11.45,11.45,11.45h173.67v-22.9Z"/><path class="c" d="M574.08,1152.36h-211.84c-6.32,0-11.45,5.13-11.45,11.45s5.13,11.45,11.45,11.45h211.84v-22.9Z"/><path class="c" d="M574.08,1065.21h-250.02c-6.32,0-11.45,5.13-11.45,11.45s5.13,11.45,11.45,11.45h250.02v-22.9Z"/><circle class="c" cx="998.72" cy="1621.39" r="26.22"/><path class="c" d="M724.06,1275.76c11.51-8.24,23.14-16.21,35.19-23.47,12.04-7.27,24.4-13.92,36.9-20.21,.17-.09,.38-.2,.54-.29,4.96-2.87,6.65-9.22,3.77-14.18-2.87-4.96-9.22-6.65-14.18-3.77-12.7,7.34-24.87,15.54-36.59,24.27-11.71,8.74-23.06,17.92-33.67,27.89-2.28,2.14-2.68,5.7-.8,8.31,2.04,2.84,6,3.49,8.84,1.45Z"/><path class="c" d="M875.8,1201.17c7.22,0,13.07-5.85,13.07-13.07s-5.85-13.07-13.07-13.07-13.07,5.85-13.07,13.07,5.85,13.07,13.07,13.07Z"/><path class="c" d="M960.1,1186.36l1.25-.05,20.78-.82c6.93-.19,13.84-.76,20.78-.66,13.86,.08,27.72,.85,41.51,2.28,7.72,.8,14.68-4.78,15.54-12.51,.87-7.77-4.73-14.77-12.5-15.64-14.7-1.64-29.48-2.56-44.27-2.75-7.39-.13-14.78,.55-22.17,.79l-22.15,1.06c-7.76,.37-13.79,6.93-13.48,14.71,.31,7.82,6.9,13.9,14.71,13.6Z"/><path class="c" d="M1135.38,1205.17c7.06,0,12.79-5.72,12.79-12.79s-5.73-12.79-12.79-12.79-12.79,5.73-12.79,12.79,5.72,12.79,12.79,12.79Z"/><path class="c" d="M1208.84,1235.96c12.39,6.51,24.72,13.28,36.59,20.85,11.87,7.57,23.49,15.59,34.84,24.08,2.31,1.73,5.61,1.53,7.68-.6,2.25-2.31,2.2-6-.11-8.25-10.42-10.15-21.44-19.72-33.02-28.61-11.57-8.9-23.49-17.46-36.02-25.07-.17-.1-.38-.22-.55-.31-4.95-2.6-11.06-.7-13.66,4.25-2.6,4.94-.7,11.06,4.25,13.66Z"/><path class="c" d="M788.47,1355.58c4.68,0,8.47-3.79,8.47-8.47s-3.79-8.47-8.47-8.47-8.47,3.79-8.47,8.47,3.79,8.47,8.47,8.47Z"/><path class="c" d="M888.01,1304.18c7.11,0,12.88-5.76,12.88-12.88s-5.76-12.87-12.88-12.87-12.88,5.76-12.88,12.87,5.76,12.88,12.88,12.88Z"/><path class="c" d="M1000.31,1285.9c7.89,0,14.29-6.4,14.29-14.29s-6.4-14.29-14.29-14.29-14.29,6.4-14.29,14.29,6.4,14.29,14.29,14.29Z"/><circle class="c" cx="1112.47" cy="1292.04" r="13.17"/><path class="c" d="M1211.44,1357.97c5.05,0,9.14-4.09,9.14-9.14s-4.09-9.14-9.14-9.14-9.14,4.09-9.14,9.14,4.09,9.14,9.14,9.14Z"/><path class="c" d="M1289.45,1433.51c.67,0,1.22-.55,1.22-1.22s-.55-1.22-1.22-1.22-1.22,.54-1.22,1.22,.55,1.22,1.22,1.22Z"/><path class="c" d="M1225.34,737.41c-73.44,17.82-148.95,26.85-224.48,26.85h-2.13c-74.81-.17-149.61-9.21-222.3-26.85-5.39-1.33-10.8,2-12.11,7.37-1.31,5.38,1.99,10.8,7.37,12.11,74.23,18.02,150.6,27.25,226.99,27.42h2.17c77.12,0,154.23-9.22,229.21-27.42,5.38-1.3,8.68-6.72,7.37-12.11-1.3-5.37-6.68-8.7-12.11-7.37Z"/><path class="c" d="M997.77,707.99c71.49,0,129.65-58.16,129.65-129.66s-58.16-129.66-129.65-129.66-129.66,58.16-129.66,129.66,58.16,129.66,129.66,129.66Zm0-239.27c60.43,0,109.6,49.17,109.6,109.61s-49.17,109.61-109.6,109.61-109.61-49.17-109.61-109.61,49.17-109.61,109.61-109.61Z"/><path class="c" d="M997.77,640.67c34.37,0,62.34-27.97,62.34-62.34s-27.97-62.34-62.34-62.34-62.34,27.97-62.34,62.34,27.97,62.34,62.34,62.34Zm0-104.63c23.32,0,42.29,18.97,42.29,42.29s-18.97,42.29-42.29,42.29-42.29-18.97-42.29-42.29,18.97-42.29,42.29-42.29Z"/><path class="c" d="M997.77,426.04c5.54,0,10.02-4.49,10.02-10.02v-33.86c0-5.54-4.49-10.02-10.02-10.02s-10.02,4.49-10.02,10.02v33.86c0,5.54,4.49,10.02,10.02,10.02Z"/><path class="c" d="M1110.8,475.33c2.57,0,5.13-.98,7.09-2.94l38.47-38.47c3.92-3.92,3.92-10.26,0-14.18-3.92-3.92-10.26-3.92-14.18,0l-38.47,38.47c-3.92,3.92-3.92,10.26,0,14.18,1.96,1.96,4.52,2.94,7.09,2.94Z"/><path class="c" d="M1053.48,439.25c1.23,.49,2.48,.72,3.73,.72,3.98,0,7.74-2.38,9.31-6.29l13.35-33.3c2.06-5.14-.44-10.98-5.57-13.03-5.15-2.08-10.98,.43-13.03,5.57l-13.35,33.3c-2.06,5.14,.44,10.98,5.57,13.03Z"/><path class="c" d="M1137.65,524.67c1.53,3.99,5.33,6.43,9.36,6.43,1.2,0,2.41-.21,3.59-.67l87.51-33.57c5.17-1.98,7.75-7.78,5.77-12.95-1.99-5.17-7.8-7.75-12.95-5.77l-87.51,33.57c-5.17,1.98-7.75,7.78-5.77,12.95Z"/><path class="c" d="M1146.32,578.33c0,5.54,4.49,10.02,10.02,10.02h138.97c5.54,0,10.02-4.49,10.02-10.02s-4.49-10.02-10.02-10.02h-138.97c-5.54,0-10.02,4.49-10.02,10.02Z"/><path class="c" d="M877.65,472.39c1.96,1.96,4.52,2.94,7.09,2.94s5.13-.98,7.09-2.94c3.92-3.92,3.92-10.26,0-14.18l-38.47-38.47c-3.92-3.92-10.26-3.92-14.18,0s-3.92,10.26,0,14.18l38.47,38.47Z"/><path class="c" d="M929.02,433.68c1.57,3.92,5.33,6.29,9.31,6.29,1.24,0,2.5-.23,3.73-.72,5.14-2.06,7.64-7.89,5.57-13.03l-13.35-33.3c-2.05-5.14-7.87-7.65-13.03-5.57-5.14,2.06-7.64,7.89-5.57,13.03l13.35,33.3Z"/><path class="c" d="M757.43,496.87l87.51,33.57c1.18,.45,2.39,.67,3.59,.67,4.03,0,7.83-2.44,9.36-6.43,1.99-5.17-.6-10.97-5.77-12.95l-87.51-33.57c-5.15-1.99-10.96,.59-12.95,5.77-1.99,5.17,.6,10.97,5.77,12.95Z"/><path class="c" d="M849.21,578.33c0-5.54-4.49-10.02-10.02-10.02h-138.97c-5.54,0-10.02,4.49-10.02,10.02s4.49,10.02,10.02,10.02h138.97c5.54,0,10.02-4.49,10.02-10.02Z"/><path class="c" d="M1080.47,1400.21c1.19,.44,2.41,.71,3.64,.71h.17c4.05,0,7.89-2.45,9.42-6.43,.51-1.26,.75-2.55,.75-3.81,0-4.05-2.45-7.85-6.43-9.42-1.26-.51-2.55-.75-3.81-.75-4.05,0-7.85,2.45-9.42,6.43-2.11,5.2,.44,11.15,5.68,13.26Z"/><path class="c" d="M1211.42,1495.52c-1.11,0-2.22,.29-3.24,.9-2.97,1.8-3.91,5.65-2.11,8.62,1.15,1.92,3.16,3.01,5.29,3.03h.1c1.11,0,2.22-.29,3.2-.9,1.95-1.19,3.03-3.26,3.03-5.4,0-1.09-.29-2.22-.9-3.22-1.19-1.95-3.26-3.03-5.38-3.03Z"/><path class="c" d="M916.7,1400.92h.17c1.22,0,2.45-.27,3.64-.71,5.24-2.11,7.79-8.06,5.68-13.26-1.56-3.98-5.37-6.43-9.42-6.43-1.26,0-2.55,.24-3.81,.75-3.98,1.56-6.42,5.37-6.42,9.42,0,1.26,.24,2.55,.75,3.81,1.53,3.98,5.37,6.43,9.42,6.43Z"/><path class="c" d="M786.31,1507.17c.98,.61,2.09,.9,3.2,.9h.1c2.13-.02,4.14-1.11,5.29-3.03,1.8-2.97,.86-6.82-2.11-8.62-1.02-.61-2.13-.9-3.24-.9-2.11,0-4.18,1.09-5.38,3.03-.61,1-.9,2.13-.9,3.22,0,2.13,1.09,4.2,3.03,5.4Z"/><text class="b" transform="translate(558.72 1501.04) rotate(61.19) scale(1.06 1)"><tspan x="0" y="0">F</tspan></text><text class="b" transform="translate(641.05 1626.17) rotate(41.89) scale(1.06 1)"><tspan x="0" y="0">E</tspan></text><text class="b" transform="translate(762.6 1719.14) rotate(24.23) scale(1.06 1)"><tspan x="0" y="0">S</tspan></text><text class="b" transform="translate(892.78 1767.4) rotate(7.13) scale(1.06 1)"><tspan x="0" y="0">T</tspan></text><text class="b" transform="translate(1043.62 1774.93) rotate(-8.27) scale(1.06 1)"><tspan x="0" y="0">I</tspan></text><text class="b" transform="translate(1160.54 1750.69) rotate(-24.18) scale(1.06 1)"><tspan x="0" y="0">V</tspan></text><text class="b" transform="translate(1291.6 1680.87) rotate(-42.18) scale(1.06 1)"><tspan x="0" y="0">A</tspan></text><text class="b" transform="translate(1398.21 1567.65) rotate(-61.51) scale(1.06 1)"><tspan x="0" y="0">L</tspan></text></svg>