<svg width="1159" height="742" viewBox="0 0 1159 742" fill="none" xmlns="http://www.w3.org/2000/svg">
<g clip-path="url(#clip0_102_154)">
<path d="M70.2876 190.777C95.7887 183.062 121.471 179.034 147.701 187.15C160.898 191.235 167.818 198.324 169.652 209.902C175.73 206.591 172.83 202.054 171.948 197.887C171.311 194.876 169.178 190.72 173.464 189.587C177.454 188.533 177.98 193.217 179.399 195.965C180.779 198.647 179.484 202.657 184.043 204.401C187.334 189.776 198.927 184.28 211.42 180.325C237.222 172.165 263.614 170.492 290.336 174.527C298.246 175.719 305.378 178.43 311.333 184.507C318.234 191.554 329.695 189.918 337.104 196.646C337.647 197.142 340.023 196.475 340.871 195.652C348.375 188.37 357.72 189.449 366.383 191.08C384.39 194.481 402.41 198.368 419.012 206.559C426.64 210.324 435.08 213.778 436.477 223.968C436.756 226.015 437.433 227.591 439.756 226.917C442.554 226.104 445.517 224.775 445.92 221.595C446.217 219.228 445.122 216.702 444.827 214.229C444.49 211.391 440.537 207.564 445.143 206.003C448.445 204.888 450.19 209.369 451.904 211.969C453.053 213.713 453.862 215.891 454.146 217.964C455.286 226.241 460.041 228.965 468.153 229.564C496.679 231.675 521.591 242.394 542.103 262.675C546.776 267.293 557.648 266.477 559.75 260.655C562.052 254.278 564.473 257.991 566.124 260.129C570.08 265.242 573.258 270.846 575.471 277.035C577.402 282.438 579.192 286.569 587.608 285.439C595.252 284.41 601.498 291.209 603.495 299.07C604.779 304.121 607.234 306.374 611.877 307.411C627.07 310.807 639.584 319.073 650.996 329.254C688.553 362.77 725.739 396.713 763.752 429.7C795.246 457.032 828.845 481.615 866.932 501.781C864.832 490.632 860.574 482.194 851.614 476.413C849.953 475.343 847.385 473.839 848.463 471.434C849.661 468.765 852.158 472.295 854.862 470.877C794.625 426.331 752.397 365.884 703.217 309.581C710.414 308.429 711.75 312.441 713.926 314.857C738.473 342.113 762.929 369.444 787.409 396.75C791.046 400.81 794.912 403.734 800.818 404.811C808.4 406.19 813.318 412.89 819.381 417.31C821.467 418.835 823.551 420.512 826.095 418.289C829.421 415.386 826.006 413.72 824.542 412.277C767.431 356.094 722.225 289.805 669.567 229.831C631.596 186.579 586.503 152.314 537.379 123.48C524.051 115.654 510.556 106.391 494.919 102.321C508.375 114.439 524.517 123.127 536.686 136.772C502.338 118.372 472.544 92.0033 434.774 79.9774C494.911 112.895 548.559 154.59 599.367 200.307C523.156 148.357 453.454 85.2415 359.132 65.4839C369.142 70.0765 379.312 74.3479 389.111 79.3467C398.807 84.2894 409.04 88.4787 416.526 97.545C401.401 91.302 385.6 86.3223 371.285 78.5799C333.786 58.3107 293.969 55.5901 252.878 60.3485C226.459 63.4033 199.726 63.3562 173.542 68.636C168.045 69.7421 162.544 70.8166 155.45 72.2155C164.777 77.6595 174.665 78.7209 179.766 87.2162C176.965 90.2931 174.551 88.6132 172.47 87.61C150.753 77.1321 128.448 75.2591 105.38 82.5167C102.684 83.3613 99.7725 83.5033 96.9572 83.9693L102.188 63.0225C172.722 46.9435 244.14 38.16 316.254 46.0745C395.777 54.805 472.919 74.2017 542.62 115.089C602.943 150.47 655.051 195.808 699.075 250.7C737.974 299.208 777.301 347.475 820.995 391.899C826.745 397.747 832.55 403.542 838.39 409.419C842.4 406.326 840.034 403.03 839.699 400.229C836.727 375.221 838.52 350.931 847.467 327.038C865.275 279.47 915.046 260.587 958.188 287.296C1010.28 319.55 1030.84 369.625 1032.79 428.743C1033.53 451.199 1027.46 472.126 1015.28 491.152C1011.18 497.546 1007.04 504.542 1000.61 508.206C980.941 519.416 962.689 534.963 937.676 532.218C931.719 531.563 931.086 533.975 934.123 538.136C937.507 542.77 941.283 547.134 945.039 551.48C966.237 575.997 990.756 597.266 1013.04 620.684C1032.49 641.116 1047.1 664.47 1045.52 694.549C1045.18 701.091 1044.06 707.512 1041.4 713.421C1037.56 721.955 1030.89 727.088 1021.17 726.882C1017.14 726.796 1013.12 725.468 1017.6 720.509C1029.24 707.614 1027.72 693.353 1021.18 679.303C1010.31 655.907 992.308 638.132 972.196 622.798C947.826 604.216 924.208 585.001 904.125 561.681C894.905 550.982 886.739 539.616 880.553 526.988C877.472 520.698 872.974 517.39 866.754 514.454C836.987 500.381 810.626 481.075 785.255 460.253C741.301 424.173 700.403 384.725 658.743 346.122C643.852 332.324 628.006 321.004 608.495 313.703C591.716 307.42 578.483 294.311 567.776 279.569C565.106 275.897 563.126 272.624 557.809 273.011C534.281 274.712 513.323 265.923 492.806 256.155C479.208 249.681 465.234 243.732 453.324 234.173C450.638 232.015 447.91 230.807 444.422 232.372C430.954 238.416 417.384 234.673 404.166 231.849C377.002 226.052 350.486 218.078 326.99 202.517C320.341 198.115 314.782 197.755 308.954 203.962C306.629 206.436 303.046 208.552 299.733 209.151C269.336 214.634 238.881 222.458 207.897 219.287C189.433 217.4 175.126 218.938 157.66 228.738C125.89 246.559 89.7839 255.763 53.0229 259.92L57.7296 241.07C70.7044 243.594 83.4939 242.35 96.179 239.171C115.098 234.433 133.225 227.576 150.357 218.255C155.739 215.327 161.735 211.952 161.013 204.722C160.339 198.005 153.773 196.213 148.662 193.914C140.6 190.292 131.857 190.722 123.212 190.565C104.342 190.229 86.3535 195.235 68.1845 199.175L70.2761 190.799L70.2876 190.777ZM983.049 456.44C980.767 460.013 981.141 464.177 980.424 468.104C978.903 480.075 971.313 487.213 961.121 492.22C958.498 493.511 955.632 494.522 953.003 492.402C950.416 490.312 950.117 487.294 951.493 484.553C956.352 474.848 951.135 474.738 943.173 473.485C931.565 471.664 922.423 485.483 909.726 476.847C912.512 481.08 911.175 484.988 911.787 488.666C913.846 501.01 916.238 502.36 927.694 497.779C932.514 495.855 937.275 495.073 942.351 497.099C948.44 499.525 943.908 505.175 945.472 509.256C950.755 507.044 955.764 501.201 959.85 508.66C963.377 515.097 954.178 510.542 954.117 514.78C969.605 517.803 984.127 514.966 995.372 504.047C1007.17 492.592 1017.06 479.283 1020.83 462.575C1033.93 404.674 1019.63 354.341 978.412 311.869C962.621 295.6 942.943 285.827 920.198 284.218C884.814 281.711 854.597 312.282 850.457 351.041C845.716 395.397 856.987 436.609 871.192 477.611C882.21 509.396 895.893 539.723 917.852 565.702C935.056 586.045 957.756 599.498 978.819 615.094C1011.88 639.58 1040.63 666.967 1033.95 715.765C1042.35 699.792 1040.89 685.063 1036.25 670.556C1029.35 648.973 1014.93 632.305 998.34 617.704C982.38 603.651 967.618 588.484 952.781 573.316C910.354 529.943 891.88 476.944 889.304 417.407C889.208 415.217 888.856 413.097 886.315 411.459C883.026 415.76 878.802 422.502 874.015 420.842C867.24 418.489 866.81 410.04 865.669 403.286C863.519 390.571 878.653 389.276 879.47 376.493C883.116 382.899 881.992 385.832 880.665 388.891C879.798 390.89 877.155 393.926 881.25 394.833C883.645 395.363 887.483 394.675 887.454 390.647C887.394 382.945 890.393 375.714 889.982 367.851C889.41 356.93 894.255 348.091 902.553 340.67C912.067 332.152 924.135 338.819 934.553 334.303C939.124 332.323 936.884 340.534 939.265 343.203C940.044 344.077 941.945 343.842 943.191 344.416C949.269 347.231 954.122 351.595 956.866 357.641C960.462 365.571 966.62 372.06 971.677 378.5C979.056 387.895 982.431 397.073 983.985 408.472C986.188 424.652 991.735 440.597 983.043 456.463L983.049 456.44ZM897.702 415.93C897.505 416.719 896.842 418.788 896.485 420.902C893.237 440.11 899.484 453.793 914.453 458.357C930.918 463.374 947.711 463.498 964.488 459.425C968.645 458.412 971.912 456.799 971.592 451.608C970.24 429.991 979.928 406.975 963.093 387.238C961.312 385.154 961.641 381.092 961.401 377.911C961.128 374.299 959.891 371.457 956.193 370.68C948.718 369.12 944.277 363.476 941.062 357.722C934.769 346.456 926.763 345.724 915.732 349.996C907.676 353.119 901.559 355.337 900.663 366.13C900 374.153 898.368 381.793 899.586 390.102C900.76 398.144 900.905 406.607 897.709 415.926L897.702 415.93ZM212.932 214.344C240.638 212.774 269.236 211.432 296.548 201.562C300.557 200.115 306.641 197.76 305.68 192.416C304.434 185.495 297.051 183.836 291.407 182.763C264.246 177.615 237.172 178.15 210.735 187.014C203.414 189.47 192.964 191.934 193.043 200.394C193.135 210.05 205.141 209.541 212.933 214.339L212.932 214.344ZM377.557 201.355C368.855 199.439 361.786 196.401 354.048 197.095C351.625 197.316 348.659 197.083 347.929 200.303C347.385 202.701 349.093 204.438 350.803 205.703C353.674 207.834 356.597 210.026 359.797 211.547C375.173 218.869 391.909 221.793 408.211 226.115C412.368 227.214 416.662 227.931 420.937 228.411C424.181 228.775 427.87 228.563 429.062 224.816C430.127 221.459 427.236 219.507 424.759 218.154C420.084 215.603 415.635 212.363 409.878 211.892C408.388 214.574 412.809 218.291 408.593 220.298C405.266 221.879 402.422 220.648 399.738 218.357C394.097 213.545 388.547 210.207 380.573 214.765C376.547 217.064 371.811 213.997 369.968 209.785C367.438 203.987 373.534 204.133 377.561 201.362L377.557 201.355Z" fill="#FF0000"/>
<path d="M81.7937 154.71C105.662 152.285 129.625 150.19 151.933 140.313C160.018 136.732 169.546 133.719 168.322 122.006C167.522 114.327 157.307 108.031 145.494 107.591C130.386 107.019 115.533 109.418 100.725 112.104C97.95 112.604 95.0813 112.598 92.2587 112.823L94.3503 104.447C111.666 101.378 128.926 97.9393 146.707 100.604C152.146 101.418 157.286 102.94 162.008 105.478C178.665 114.429 179.048 132.334 162.855 142.012C151.252 148.944 138.257 151.893 125.209 154.491C110.074 157.506 94.8803 160.242 79.7108 163.101L81.8023 154.724L81.7937 154.71Z" fill="#FF0000"/>
<path d="M76.5634 175.657C96.1681 171.629 116.302 170.383 135.399 163.535C150.208 158.224 164.021 151.018 178.134 143.74C171.673 158.241 155.763 161.197 144.903 170.327C148.825 176.092 157.193 175.912 159.304 182.803C158.673 183.442 157.974 184.405 157.782 184.315C138.927 175.267 119.704 177.371 100.133 181.634C91.8036 183.446 83.0404 183.296 74.4718 184.033L76.5634 175.657Z" fill="#FF0000"/>
<path d="M64.011 225.927C83.4006 209.672 105.61 204.012 130.36 208.766C135.242 209.703 140.749 211.721 140.431 218.116C140.14 224.06 136.446 227.63 129.949 228.254C133.289 217.551 132.939 217.164 121.876 216.69C106.64 216.038 92.9303 221.066 79.6643 227.797C77.4914 228.901 74.6288 230.193 75.7444 233.299C76.5399 235.53 79.2143 235.555 81.3716 235.568C86.2796 235.593 91.189 235.516 97.1741 235.468C86.7074 245.89 72.0278 244.899 61.918 234.309L64.0096 225.932L64.011 225.927Z" fill="#FF0000"/>
<path d="M90.1615 121.198C101.859 119.939 113.25 115.868 125.243 117.271C128.436 117.646 131.69 117.828 134.775 118.635C139.589 119.892 145.545 121.043 144.842 127.606C144.18 133.811 138.758 134.642 133.567 134.748C130.749 131.376 137.347 130.098 134.992 127.3C132.867 124.781 129.738 125.768 126.915 125.749C113.058 125.655 100.326 131.08 87.0314 133.759L90.1687 121.194L90.1615 121.198Z" fill="#FF0000"/>
<path d="M332.416 196.071C334.169 187.261 338.341 184.521 342.843 182.621C349.125 179.961 348.129 177.307 343.949 173.411C339.153 168.94 334.509 164.182 333.148 156.963C346.288 165.587 357.489 177.08 374.64 180.377C368.58 174.427 363.034 169.48 358.11 163.979C354.645 160.109 352.924 155.309 355.528 150.054C358.086 144.884 362.72 143.434 368.024 143.222C374.557 142.963 380.958 143.851 387.06 146.127C403.605 152.297 419.188 160.38 433.449 170.789C437.445 173.709 441.069 177.405 444.067 181.354C448.199 186.792 452.578 193.155 448.48 200.033C443.937 207.662 436.22 205.527 429.033 204.161C412.505 201.014 397.572 192.536 380.326 191.161C364.579 189.91 348.963 182.962 332.411 196.064L332.416 196.071ZM423.431 196.942C426.916 197.812 430.373 198.871 433.9 199.501C437.549 200.155 441.387 200.03 443.451 196.372C445.283 193.127 443.415 190.071 441.474 187.426C440 185.412 438.395 183.359 436.441 181.849C417.359 167.114 395.79 157.708 372.37 152.411C369.184 151.689 365.49 151.311 363.629 154.671C361.674 158.21 364.552 160.851 366.817 163.032C383.076 178.677 401.026 191.568 423.425 196.941L423.431 196.942Z" fill="#FF0000"/>
<path d="M240.759 148.184C226.216 144.026 213.665 139.73 202.387 132.421C188.365 123.332 188.389 113.136 202.866 104.523C218.321 95.3219 235.508 94.3377 252.957 95.3163C273.712 96.4841 293.134 102.87 311.858 111.242C325.507 117.343 332.346 127.257 330.748 136.057C328.962 145.905 316.535 154.718 302.076 154.633C280.875 154.516 259.861 151.736 240.759 148.184ZM284.873 110.416C279.29 109.022 273.778 107.15 268.116 106.323C249.075 103.533 230.08 103.233 211.775 110.34C207.628 111.948 202.04 113.564 201.66 118.91C201.31 123.817 206.564 125.545 210.01 127.948C229.893 141.799 252.883 145.807 276.235 148.193C287.634 149.356 299.229 150.715 310.468 146.955C316.292 145.006 322.485 142.727 324 135.878C325.615 128.576 319.679 124.945 315.072 121.114C306.394 113.91 295.195 113.22 284.866 110.42L284.873 110.416Z" fill="#FF0000"/>
<path d="M468.18 214.224C472.931 214.192 476.727 222.545 479.511 212.793C480.915 207.881 487.854 209.038 492.11 210.474C514.144 217.916 531.489 232.278 546.939 249.129C549.321 251.725 551.42 255.376 548.611 258.88C546.01 262.116 542.165 261.462 538.599 260.474C531.541 258.516 525.427 254.498 519.753 250.235C506.224 240.076 490.734 234.929 474.617 231.266C467.812 229.72 461.008 229.025 468.018 219.728C468.843 218.63 468.162 216.404 468.186 214.225L468.18 214.224Z" fill="#FF0000"/>
<path d="M310.527 179.981C267.72 158.105 226.643 159.176 185.692 182.122C186.836 175.631 200.071 166.893 225.397 155.909C219.98 150.272 210.884 151.061 206.43 144.514C209.915 140.727 213.336 143.301 216.453 144.349C241.442 152.73 266.682 159.565 293.43 158.276C297.829 158.064 301.907 157.712 300.966 164.986C300.184 171.009 309.482 172.131 310.527 179.981Z" fill="#FF0000"/>
<path d="M324.373 107.494C286.508 88.1794 248.452 80.2191 207.91 87.0915C239.02 69.045 311.593 81.1747 324.373 107.494Z" fill="#FF0000"/>
<path d="M450.236 174.443C445.313 174.725 442.433 171.111 439.189 168.685C416.338 151.596 392.487 136.65 363.678 131.752C361.36 131.356 357.786 131.254 357.898 128.136C358.041 123.985 362.072 124.998 364.605 125C372.15 125.005 379.732 125.546 386.79 128.434C408.517 137.329 428.472 149.081 445.349 165.633C448.22 168.449 448.177 168.5 450.244 174.438L450.236 174.443Z" fill="#FF0000"/>
<path d="M491.807 199.627C519.351 205.495 541.438 219.052 554.975 244.226C556.071 246.262 557.853 249.1 555 250.915C552.599 252.445 551.118 249.897 550.03 248.199C536.226 226.667 516.65 212.22 493.653 201.894C492.861 201.537 492.417 200.398 491.813 199.629L491.807 199.627Z" fill="#FF0000"/>
<path d="M647.231 316.676C671.922 338.037 695.079 361.06 718.122 386.374C707.154 383.928 654.649 332.776 647.231 316.676Z" fill="#FF0000"/>
<path d="M983.048 466.454C991.389 464.302 993.985 458.879 993.417 450.493C992.779 441.013 995.431 432.305 1003.12 425.419C1004.08 426.547 1004.98 427.216 1005.35 428.104C1007.67 433.622 1007.62 440.361 1016.02 442.066C1018.15 442.502 1018.33 451.317 1015.39 452.607C1006.55 456.483 1010.89 474.605 995.529 470.44C994.658 470.204 993.871 469.114 993.048 470.402C992.503 477.757 1014.97 472.272 1001.95 486.504C999.904 484.244 997.745 482.205 994.307 482.785C991.449 483.032 988.817 472.099 985.517 482.744C984.829 484.959 983.59 484.577 980.417 478.117C981.133 474.196 980.761 470.026 983.041 466.459L983.048 466.454Z" fill="#FF0000"/>
<path d="M994.313 482.786C997.751 482.207 999.904 484.244 1001.95 486.506C1001.36 498.529 997.502 509.061 987.557 516.535C983.821 519.341 979.488 522.403 974.902 518.589C970.589 515.003 971.672 510.224 973.763 505.746C978.3 496.034 985.298 488.498 994.32 482.782L994.313 482.786Z" fill="#FF0000"/>
<path d="M979.983 367.724C993.504 376.614 1004.5 385.169 1001.42 402.307C1000.72 406.19 1000.86 410.673 996.096 411.822C991.864 412.84 989.769 409.245 987.755 406.33C979.821 394.845 979.64 381.966 979.983 367.724Z" fill="#FF0000"/>
<path d="M965.889 355.172C957.09 356.17 950.418 351.884 946.107 347.191C942.383 343.133 942.262 335.404 941.516 329.177C941.259 327.045 944.347 327.669 945.651 328.967C955.371 338.69 971.829 341.851 974.418 358.611C974.769 360.884 978.352 365.751 975.094 364.705C968.305 362.532 970.093 376.424 963.91 369.739C961.36 366.985 959.878 361.842 965.006 358.538C965.42 358.274 965.363 357.281 965.89 355.166L965.889 355.172Z" fill="#FF0000"/>
<path d="M885.214 336.692C896.802 324.72 911.683 325.467 926.313 325.773C930.222 325.855 930.097 328.56 927.634 330.803C924.731 333.456 921.917 336.909 918.415 338.066C908.823 341.234 898.946 343.511 889.929 353.225C892.125 344.022 890.551 338.51 885.208 336.69L885.214 336.692Z" fill="#FF0000"/>
<path d="M231.451 209.998C243.473 215.381 255.331 209.584 267.231 211.558C252.672 217.831 237.567 220.602 222.096 216.653C214.433 214.697 215.432 209.052 220.34 204.494C226.275 198.987 233.702 196.129 241.624 194.943C252.649 193.29 263.742 192.614 274.686 195.5C278.068 196.393 282.841 197.695 281.826 201.934C280.714 206.558 276.401 203.29 273.614 202.858C258.717 200.533 244.828 203.754 231.443 210.003L231.451 209.998Z" fill="#FF0000"/>
<path d="M279.148 116.722C285.837 118.367 292.243 120.628 297.737 124.95C300.408 127.049 302.498 129.462 301.508 133.18C300.557 136.768 297.721 138.814 294.423 138.933C274.846 139.638 255.762 137.144 237.875 128.632C234.756 127.149 233.433 123.992 234.524 120.359C235.741 116.318 238.962 114.815 242.73 114.483C254.97 113.402 267.134 113.979 279.148 116.722Z" fill="#FF0000"/>
</g>
<defs>
<clipPath id="clip0_102_154">
<rect width="497.09" height="1069.46" fill="white" transform="translate(1158.03 259.087) rotate(104.02)"/>
</clipPath>
</defs>
</svg>
