<svg width="429" height="649" viewBox="0 0 429 649" fill="none" xmlns="http://www.w3.org/2000/svg">
<g clip-path="url(#clip0_102_176)">
<g style="mix-blend-mode:overlay">
<path d="M315.708 43.3346C314.438 48.4287 313.681 53.7183 311.804 58.5756C304.645 77.1327 293.049 82.6446 272.33 77.7584C271.74 81.3605 274.445 80.6859 276.415 80.9813C288.302 82.7404 296.07 92.9127 294.035 104.667C291.908 116.962 286.115 127.404 276.444 135.391C270.639 140.183 264.17 142.569 256.788 138.542C254.932 137.527 252.498 135.829 251.112 138.362C249.322 141.632 252.891 141.438 254.586 142.246C260.074 144.867 262.017 149.185 261.287 155.121C259.246 171.685 242.919 186.735 226.112 187.079C222.538 187.152 221.54 187.782 221.555 191.747C221.625 208.238 208.428 223.276 192.827 226.272C185.701 227.637 182.069 234.021 179.284 239.998C174.795 249.637 167.902 255.258 157.657 258.507C149.109 261.218 143.864 268.986 139.119 276.465C138.415 277.576 137.494 280.107 140.035 279.689C149.595 278.11 141.769 284.099 144.204 286.404C147.39 285.272 151.59 283.752 155.802 282.282C159.763 280.903 163.66 280.469 167.228 283.337C170.8 286.206 173.719 287.632 167.633 292.487C159.499 298.974 151.513 305.205 141.392 307.404C135.105 308.772 134.857 315.313 129.47 318.369C128.951 311.95 129.916 305.729 130.913 300.509C132.414 292.661 126.313 293.335 123.491 292.061C119.989 290.484 116.189 292.999 115.887 297.713C114.847 313.912 106.729 324.913 91.8818 331.228C89.0801 332.421 88.2476 335.271 87.5381 338.017C86.6333 341.493 84.4068 343.87 81.4956 345.904C66.3249 356.5 60.259 374.309 65.9436 391.449C69.0741 400.875 64.4975 407.095 57.0989 411.588C44.3285 419.336 45.3642 433.091 42.0035 444.923C41.4749 446.778 43.2351 448.211 44.4482 449.655C52.0392 458.734 52.4449 466.247 43.9071 474.834C34.6758 484.116 33.1346 494.598 36.0944 506.376C38.0416 514.128 39.5684 522.01 50.9688 521.701C57.3643 521.524 57.577 528.002 57.616 533.041C57.762 550.766 70.5278 569.999 86.6796 576.772C91.4754 578.781 96.4767 577.992 101.344 577.823C109.538 577.536 113.777 581.345 115.861 589.059C119.856 603.813 139.385 610.636 151.681 601.863C157.622 597.624 164.102 597.486 167.919 603.642C173.422 612.51 180.89 612.805 189.505 611.401C193.773 610.707 198.041 610.033 202.307 609.328C206.923 608.558 209.638 606.724 210.703 601.29C212.474 592.237 217.663 589.704 225.436 593.788C231.555 597.007 236.563 596.215 241.815 592.616C246.144 589.646 250.531 586.755 254.91 583.856C258.873 581.227 260.427 578.205 259.374 572.969C257.401 563.146 260.314 560.219 270.534 559.82C285.82 559.221 299.375 539.262 294.12 524.777C291.638 517.939 292.927 513.146 299.386 509.125C311.736 501.428 315.598 478.581 306.538 467.001C301.723 460.847 303.412 455.765 307.261 450.211C314.416 439.886 310.195 422.98 298.769 417.194C294.249 414.905 292.508 412.083 292.573 407.089C292.743 393.958 276.186 381.404 263.716 385.034C259.569 386.241 255.445 386.515 252.457 383.258C247.64 378.001 241.136 377.241 234.907 375.693C229.51 374.353 224.611 374.482 221.338 380.333C218.602 385.219 214.04 385.058 209.116 383.786C194.851 380.101 188.641 383.212 182.87 396.77C181.072 400.993 177.435 401.244 173.722 401.739C158.843 403.735 156.776 406.229 158.381 420.934C158.926 425.917 155.633 428.135 152.457 430.564C142.363 438.279 140.909 443.92 146.68 454.688C148.426 457.949 148.342 461 147.64 464.488C145.77 473.773 149.804 479.512 159.426 481.129C163.873 481.877 166.297 484.597 168.825 487.894C173.915 494.523 180.652 495.652 187.02 490.688C190.559 487.929 193.463 487.751 197.06 490.056C199.774 491.792 203.342 493.514 204.14 488.626C204.866 484.142 207.082 481.392 210.543 479.056C211.968 478.096 212.336 476.526 211.674 474.955C210.703 472.645 208.804 473.05 206.977 473.643C205.214 474.211 203.493 474.917 201.726 475.479C188.231 479.764 179.976 478.069 173.162 469.542C165.205 459.583 165.372 448.648 171.305 438.292C180.256 422.665 194.225 414.092 212.475 414.451C231.136 414.82 245.82 422.911 254.736 439.776C261.764 453.066 263.376 467.646 261.645 482.208C257.779 514.728 246.417 543.334 216.667 561.373C212.203 564.079 208.2 567.548 203.933 570.604C203.527 570.896 202.774 570.71 200.146 570.878C206.178 562.164 214.658 557.655 220.278 550.362C206.333 559.28 192.504 568.318 176.563 573.273C180.641 565.683 189.042 563.735 196.23 557.111C183.849 557.728 173.278 560.145 162.622 557.755C121.288 548.485 98.9373 517.86 101.834 474.29C104.103 440.2 119.233 411.722 140.175 385.736C142.257 383.152 144.435 380.641 146.116 377.679C130.882 389.71 120.133 406.233 104.927 418.324C122.983 388.798 146.459 364.061 172.471 341.425C153.977 350.628 138.695 364.553 119.525 377.325C121.88 370.092 125.778 367.487 129.014 364.536C164.873 331.779 206.778 309.001 251.281 290.459C257.69 287.787 265.263 286.922 269.596 280.368C271.756 279.13 273.91 277.89 276.07 276.647C288.639 271.148 298.75 262.09 309.893 254.25C307.385 251.566 303.631 254.146 301.974 250.908C303.212 246.84 307.211 246.993 310.081 245.681C325.055 238.835 338.551 230.627 342.981 213.108C343.553 210.858 344.262 208.762 347.813 208.657C354.222 208.468 355.043 201.954 357.686 197.904C359.844 194.6 356.184 194.956 354.204 194.779C352.6 194.634 350.953 194.357 350.455 192.666C349.914 190.841 351.408 189.72 352.777 189.163C373.967 180.545 378.067 160.238 384.77 141.924C387.923 133.31 389.665 124.186 392.048 115.292C388.604 113.72 385.58 119.268 383.385 115.004C381.833 111.985 384.65 109.671 386.62 107.976C395.058 100.709 395.015 90.6001 396.139 80.867C396.737 75.6985 395.715 70.3283 398.116 65.3893L408.862 68.2689C410.799 78.5633 408.518 88.6519 406.589 98.5707C396.729 149.264 376.31 195.02 342.237 234.334C328.354 250.355 312.45 264.061 294.751 275.458C274.766 288.333 255.133 301.863 233.971 312.844C181.721 339.958 144.142 381.222 120.68 434.587C108.558 462.165 106.036 491.386 121.838 519.47C127.651 529.805 135.854 537.664 146.885 541.925C173.662 552.268 199.704 549.449 222.625 532.792C245.973 515.822 258.966 492.638 254.516 462.378C249.764 430.11 222.639 414.069 194.421 426.704C190.095 428.639 186.414 431.376 183.327 434.896C177.033 442.066 175.004 453.362 179.452 459.862C184.935 467.88 193.046 469.974 202.341 468.377C206.948 467.583 211.97 463.996 215.762 469.792C219.427 475.389 216.967 480.212 213.753 485.171C210.855 489.639 211.27 498.3 204.832 498.006C190.058 497.327 173.604 505.282 160.94 490.634C157.227 486.339 150.411 486.646 146.54 481.325C134.938 465.378 134.426 442.453 146.352 426.525C148.129 424.149 148.915 422.004 148.845 418.975C148.607 408.275 154.572 399.866 164.866 396.947C169.97 395.499 172.558 392.206 176.046 388.572C183.646 380.648 192.833 373.815 205.134 375.627C210.006 376.346 214.208 376.173 217.809 372.216C220.744 368.988 224.744 368.37 228.933 369.075C238.597 370.714 248.767 370.561 257.028 377.179C257.88 377.862 259.438 378.316 260.455 378.05C277.556 373.612 285.376 388.614 297.079 395.436C297.325 395.582 297.571 395.885 297.64 396.162C301.092 410.655 314.51 420.477 316.221 435.791C316.392 437.321 317.462 439.081 316.988 440.301C309.869 458.668 321.645 477.73 314.651 496.167C311.943 503.295 311.591 511.429 304.06 515.886C301.36 517.486 301.868 519.629 302.465 522.292C306.043 538.207 289.828 564.287 273.907 567.357C268.644 568.371 267.271 570.226 267.489 575.069C267.675 579.281 265.828 582.942 262.221 585.366C254.793 590.363 247.162 595.073 239.851 600.244C233.366 604.833 226.156 599.774 220.396 601.738C215.124 603.536 214.171 612.396 206.489 613.844C196.727 615.686 186.072 619.66 177.315 616.489C165.043 612.05 153.943 608.833 140.557 610.992C132.857 612.235 124.824 606.322 117.149 603.056C113.144 601.349 110.511 598.304 109.834 594.109C108.793 587.667 104.759 585.752 98.8689 585.108C77.1624 582.746 53.1589 558.78 50.5697 536.751C50.0209 532.078 49.0364 529.326 43.722 529.017C39.3644 528.763 36.6157 525.481 34.7731 521.734C26.9436 505.799 24.6325 489.885 35.9551 474.493C41.0294 467.598 43.4121 461.012 36.8298 453.687C35.694 452.427 34.7184 450.175 34.9983 448.618C37.6416 433.747 39.5458 418.382 51.939 407.686C56.679 403.596 58.1929 399.739 57.0827 393.279C53.7549 373.887 60.5219 356.989 72.8799 342.423C76.1383 338.58 78.888 335.631 79.7663 330.205C81.6304 318.695 90.6481 311.885 99.4952 305.652C103.485 302.845 106.04 299.812 107.975 295.292C112.942 283.694 121.086 274.189 131.434 267.208C137.436 263.155 142.648 258.763 147.106 253.145C153.293 245.349 160.348 238.51 169.564 234.172C175.378 231.436 179.336 226.835 181.72 220.777C186.346 209.03 193.377 199.169 203.944 191.839C209.314 188.118 213.273 182.863 216.043 176.84C220.717 166.669 226.503 157.198 234.116 148.95C238.276 144.44 240.303 138.984 241.437 133.177C243.779 121.183 248.094 110.007 255.071 99.9729C261.446 90.807 262.677 80.8913 261.389 69.9681C259.792 56.4163 259.959 42.8039 265.554 29.8854L278.094 33.2456C275.744 41.842 274.217 50.5746 274.409 59.5144C274.511 64.1416 274.747 68.9578 279.71 71.3651C284.96 73.9073 289.943 72.5545 294.418 69.3964C299.302 65.9519 302.646 61.2553 304.364 55.4733C305.757 50.7872 307.152 46.0961 308.55 41.4113L315.714 43.331L315.708 43.3346ZM256.697 115.212C255.75 120.403 253.412 125.913 257.904 130.771C260.685 133.777 264.217 132.537 267.404 131.484C278.068 127.972 288.792 108.19 285.795 97.3999C284.642 93.2463 283.096 88.8448 278.101 87.9552C273.297 87.101 269.645 89.9092 267.28 93.6113C262.993 100.326 259.219 107.374 256.693 115.205L256.697 115.212ZM226.008 170.516C225.31 173.635 223.843 176.331 225.939 178.895C227.1 180.315 229.009 180.129 230.175 179.248C238.39 173.047 247.761 167.916 251.762 157.554C252.671 155.21 253.084 152.506 250.925 150.649C248.744 148.776 246.12 149.874 243.937 150.889C235.098 155.001 229.471 162.086 226.008 170.516Z" fill="#FF0000"/>
</g>
<g style="mix-blend-mode:overlay">
<path d="M362.286 55.8158C360.086 66.0369 357.292 76.1886 357.174 86.7195C357.118 91.542 356.443 97.4714 361.811 99.8286C367.5 102.325 372.655 99.0533 376.785 95.1903C381.872 90.4326 384.463 84.1927 385.854 77.4042C386.845 72.5838 388.05 67.8103 389.16 63.0167L394.536 64.4572C394.953 77.5077 391.954 89.548 383.474 99.75C376.607 108.013 367.165 110.949 358.775 107.629C349.407 103.92 349.046 95.4735 349.277 87.4553C349.603 76.0506 351.531 64.7954 355.127 53.8974L362.291 55.8171L362.286 55.8158Z" fill="#FF0000"/>
</g>
<g style="mix-blend-mode:overlay">
<path d="M347.953 51.9748C344.482 67.9446 340.134 83.8538 344.814 100.37C345.291 102.056 345.731 104.376 343.144 104.787C340.972 105.129 339.869 103.133 339.178 101.475C334.674 90.6135 334.111 79.2137 335.799 67.8097C336.692 61.775 339.078 55.9659 340.788 50.0551L347.953 51.9748Z" fill="#FF0000"/>
</g>
<g style="mix-blend-mode:overlay">
<path d="M331.83 47.6549C327.481 59.8036 322.923 71.8696 312.932 80.7532C310.795 82.6575 307.917 85.9687 305.158 83.1171C302.903 80.7912 306.126 78.185 307.729 76.0848C314.83 66.7703 320.705 56.7892 324.665 45.7352L331.83 47.6549Z" fill="#FF0000"/>
</g>
<g style="mix-blend-mode:overlay">
<path d="M269.904 229.825C275.898 233.491 277.109 231.576 277.147 224.14C277.228 208.661 303.305 183.417 318.736 182.73C324.685 182.465 328.841 185.327 330.984 190.749C333.358 196.751 333.079 202.797 330.471 208.747C322.861 226.132 306.622 236.753 287.612 236.429C280.861 236.315 275.928 238.368 272.359 244.573C267.313 253.35 259.496 259.405 250.501 263.944C245.92 266.255 241.072 266.926 236.099 266.132C230.76 265.283 225.598 263.34 223.434 258.012C221.067 252.181 225.01 247.893 228.833 244.291C236.329 237.227 245.075 232.039 254.896 228.835C259.711 227.263 264.598 227.041 269.902 229.814L269.904 229.825ZM283.898 220.43C281.898 228.719 284.577 231.808 291.192 230.242C294.952 229.354 298.432 227.266 302.043 225.735C312.903 221.135 319.825 212.686 323.727 201.987C326.273 195.006 321.262 189.111 314.999 191.494C300.256 197.102 290.314 208.112 283.899 220.425L283.898 220.43ZM232.846 259.013C242.007 261.663 263.916 249.039 266.128 239.603C267.422 234.082 263.839 232.969 259.584 234.026C248.223 236.849 238.646 242.965 230.417 251.148C226.594 254.951 227.983 257.652 232.842 259.012L232.846 259.013Z" fill="#FF0000"/>
</g>
<g style="mix-blend-mode:overlay">
<path d="M375.244 146.665C371.649 159.116 366.804 169.965 357.467 178.263C351.548 183.521 344.641 186.397 337.124 183.21C328.934 179.738 326.75 171.822 327.396 163.873C328.811 146.412 336.401 131.393 348.172 118.64C352.802 113.622 359.11 111.563 365.91 114.035C372.523 116.435 376.245 121.546 377.489 128.413C378.683 134.996 377.129 141.25 375.235 146.662L375.244 146.665ZM334.339 155.15C333.861 156.934 333.175 158.688 332.942 160.5C332.095 167.229 332.53 173.963 339.341 177.34C346.432 180.856 351.059 175.431 354.914 170.761C363.729 160.078 369.11 147.82 369.934 133.787C370.246 128.463 368.772 123.537 364.136 121.069C359.307 118.497 355.106 122.13 351.891 125.261C343.355 133.563 338.126 143.992 334.339 155.15Z" fill="#FF0000"/>
</g>
<g style="mix-blend-mode:overlay">
<path d="M176.145 292.708C175.504 272.373 174.274 271.879 189.304 263.897C194.759 261.002 200.354 258.53 206.375 256.953C214.258 254.888 219.229 259.536 224.079 264.358C225.785 266.051 225.012 267.339 222.683 268.305C209.519 273.776 198.761 284.324 183.823 286.305C181.168 286.655 178.946 290.274 176.15 292.709L176.145 292.708Z" fill="#FF0000"/>
</g>
<g style="mix-blend-mode:overlay">
<path d="M224.53 408.429C236.79 407.827 245.011 414.694 254.204 419.845C253.982 415.803 249.58 414.83 249.947 411.311C258.741 411.486 267.025 419.615 265.632 427.692C264.586 433.744 268.934 438.13 269.005 443.663C269.035 446.09 270.178 449.316 267.577 450.352C264.117 451.733 263.983 447.857 263.202 445.884C257.557 431.554 246.822 422.361 233.395 415.769C230.441 414.317 226.896 413.653 224.521 408.422L224.53 408.429Z" fill="#FF0000"/>
</g>
<g style="mix-blend-mode:overlay">
<path d="M299.239 87.3931C312.637 107.381 307.562 139.171 290.086 152.477C288.408 153.754 286.701 155.71 284.404 154.091C281.89 152.319 283.284 150.052 284.648 148.49C299.01 132.042 301.751 112.904 298.016 92.1724C297.831 91.1509 298.55 89.9652 299.24 87.3882L299.239 87.3931Z" fill="#FF0000"/>
</g>
<g style="mix-blend-mode:overlay">
<path d="M277.683 160.154C279.374 161.077 279.74 162.648 279.367 164.138C275.283 180.504 268.552 195.04 251.878 202.318C249.161 203.507 245.547 205.623 243.586 202.14C241.464 198.371 245.577 196.859 248.025 195.391C259.581 188.469 267.345 178.414 272.776 166.307C273.876 163.855 274.569 160.973 277.683 160.154Z" fill="#FF0000"/>
</g>
<g style="mix-blend-mode:overlay">
<path d="M339.152 112.986C334.34 122.132 329.449 130.275 325.672 138.912C321.568 148.295 320.149 158.419 320.19 168.713C320.199 170.711 320.464 173.407 317.404 173.612C315.548 173.738 315.101 171.896 314.595 170.456C309.116 154.914 321.545 121.693 336.206 112.804C336.622 112.551 337.376 112.853 339.14 112.988L339.152 112.986Z" fill="#FF0000"/>
</g>
<g style="mix-blend-mode:overlay">
<path d="M276.059 276.666C273.9 277.904 271.74 279.147 269.586 280.387C261.704 283.133 253.828 285.977 245.247 284.95C243.02 284.686 240.754 284 240.632 281.321C240.558 279.627 242.114 278.571 243.742 278.447C257.804 277.367 270.336 271.536 283.756 264.025C283.371 271.295 277.999 272.876 276.058 276.671L276.059 276.666Z" fill="#FF0000"/>
</g>
<g style="mix-blend-mode:overlay">
<path d="M190.273 304.806C188.404 304.411 186.434 303.878 186.376 301.592C186.329 299.794 187.926 299.118 189.509 298.808C202.13 296.349 213.835 291.944 223.521 283.116C224.674 282.063 226.366 281.306 227.513 282.86C228.048 283.584 227.794 285.222 227.402 286.252C223.716 295.965 200.674 307.419 190.269 304.8L190.273 304.806Z" fill="#FF0000"/>
</g>
</g>
<defs>
<clipPath id="clip0_102_176">
<rect width="283.782" height="594.933" fill="white" transform="translate(274.112 648.109) rotate(-165)"/>
</clipPath>
</defs>
</svg>
