<svg width="993" height="713" viewBox="0 0 993 713" fill="none" xmlns="http://www.w3.org/2000/svg">
<g clip-path="url(#clip0_102_116)">
<path d="M849.109 0.560058C826.173 71.1637 790.723 134.518 741.062 189.98C716.999 216.857 689.581 239.628 659.135 258.387C611.292 287.87 559.14 302.958 502.473 298.274C457.501 294.556 413.089 286.991 368.698 278.707C327.909 271.096 286.345 267.927 244.763 269.901C219.586 271.096 196.89 280.232 178.286 297.849C154.138 320.712 150.987 347.769 168.902 375.417C169.848 376.88 170.644 378.442 171.519 379.973C167.556 383.843 165.949 378.162 162.786 378.57C173.647 400.108 193.845 410.431 213.681 420.467C248.478 438.076 283.025 456.074 315.586 477.596C330.25 487.288 346.1 496.294 350.919 515.255C351.561 517.77 357.288 524.946 346.925 521.723C345.863 521.39 342.446 524.715 342.072 526.713C339.613 539.782 326.425 545.123 321.318 556.248C319.214 560.826 314.275 559.614 308.931 557.9C317.905 572.401 323.824 574.823 335.959 570.941C343.933 568.387 351.304 564.634 358.385 560.264C380.696 546.491 383.18 530.382 374.421 505.872C358.699 461.842 322.083 442.157 284.807 422.48C266.89 413.028 247.519 406.733 228.287 400.778C210.342 395.226 195.47 386.346 183.682 371.903C177.478 364.3 169.469 358.126 165.557 348.519C176.383 354.545 183.697 365.075 195.508 371.91C193.389 361.203 188.062 351.198 197.043 342.998C204.78 335.935 212.74 328.195 224.964 333.82C226.1 334.344 228.989 335.773 229.331 332.95C231.032 318.963 242.588 320.18 251.763 318.826C260.359 317.564 272.412 320.933 282.706 325.32C284.412 326.047 286.138 326.536 288.015 324.585C286.818 318.998 279.38 318.912 277.408 313.625C295.037 313.018 312.339 309.27 331.016 313.533L312.201 324.286C321.856 322.836 331.229 321.925 342.142 326.001C339.51 318.359 334.646 313.798 333.775 307.208C348.726 313.943 365.461 308.928 379.767 317.836C375.151 324.13 367.854 325.481 360.238 326.753C364.422 332.753 368.381 328.514 372.282 328.137C377.717 327.611 385.094 321.659 387.027 333C387.691 336.888 391.26 335.761 394.175 335.22C401.987 333.775 409.671 335.394 416.076 339.41C425.823 345.517 434.924 350.745 447.308 335.99C443.734 353.182 448.556 354.488 459.661 352.141C472.814 349.358 486.324 351.531 497.954 359.649C504.819 364.446 511.246 361.548 516.912 357.933C521.208 355.196 523.067 354.957 524.454 360.133C526.164 366.511 529.866 365.809 535.242 363.978C546.41 360.182 558.12 360.31 569.033 364.735C577.407 368.128 584.363 366.828 591.307 362.064C593.348 360.664 595.067 358.09 597.841 358.995C601.401 360.158 599.381 363.069 599.297 365.408C599.053 372.724 602.745 374.394 608.912 371.57C623.447 364.903 637.8 367.122 652.021 372.401C660.734 375.641 668.172 372.57 670.854 363.312C672.166 358.789 673.27 355.798 677.497 360.277C684.21 367.39 689.77 365.448 695.605 359.273C698.264 356.457 701.24 353.452 705.844 355.397C706.869 358.969 704.003 360.628 702.502 362.961C701.092 365.152 697.585 367.37 701.455 370.132C704.317 372.174 707.27 374.424 711.045 370.97C729.805 353.793 752.744 351.468 776.668 352.897C780.986 353.153 792.157 339.578 790.696 335.555C789.464 332.163 786.413 333.777 784.108 333.633C776.846 333.172 766.744 339.913 763.311 333.367C760.876 328.721 771.598 322.223 775.601 315.915C777.338 313.179 779.228 310.521 781.262 307.993C782.738 306.169 784.175 302.98 787.144 305.043C789.623 306.762 788.296 309.64 787.53 312.033C785.715 317.716 779.943 320.39 776.398 326.457C785.393 325.701 793.514 324.017 801.639 326.468C806.461 327.918 807.627 323.643 808.648 320.136C811.398 310.722 818.017 304.044 824.614 297.351C826.135 295.809 828.047 293.969 830.171 295.609C832.541 297.438 830.509 299.574 829.432 301.266C826.136 306.436 822.385 311.338 819.387 316.668C817.91 319.295 813.681 323.757 819.521 325.284C824.33 326.542 832.048 330.515 834.667 323.153C844.2 296.374 864.667 281.836 889.524 271.822C892.551 270.6 894.446 269.235 894.949 265.984C898.1 245.555 913.344 237.618 930.663 232.867C939.214 230.518 943.267 227.392 943.285 217.736C943.308 206.552 950.817 197.733 956.573 188.584L971.617 214.908C964.588 228.504 953.534 237.134 938.901 241.243C931.175 243.415 924.311 247.42 917.246 251.025C909.951 254.755 905.328 260.532 904.655 268.718C903.585 281.721 897.388 291.897 888.268 300.684C881.259 307.434 874.396 314.347 867.305 321.015C856.623 331.064 844.57 337.047 829.187 335.101C812.627 333.004 799.425 338.285 791.752 354.307C789.063 359.926 784.583 364.778 779.031 367.272C753.625 378.69 727.923 390.573 699.296 379.236C685.063 373.6 672.846 373.233 662.348 386.053C659.22 389.872 654.336 390.714 649.582 391.147C638.392 392.169 627.23 391.798 616.117 390.156C609.176 389.128 603.104 386.642 598.213 381.122C592.432 374.608 585.765 372.847 578.405 379.297C574.337 382.863 569.191 383.547 564.091 382.716C548.76 380.212 532.014 383.12 519.304 370.377C516.156 367.222 510.997 368.4 506.736 368.976C491.586 371.028 476.601 370.329 461.534 367.75C453.429 366.365 446.159 364.509 440.889 357.545C436.953 352.337 431.143 354.093 425.807 354.48C408.375 355.757 391.948 354.133 380.164 338.844C377.578 335.484 374.22 335.647 370.398 336.775C356.52 340.871 343.206 338.511 330.653 332.011C326.242 329.729 322.586 330.549 318.278 331.666C304.494 335.243 290.651 337.288 277.253 330.029C274.081 328.308 271.163 328.844 268.046 330.509C255.462 337.22 241.911 340.292 227.764 341.77C217.016 342.891 211.876 353.382 203.328 358.473C200.149 360.366 203.45 363.693 205.746 365.358C212.362 370.14 216.698 376.609 220.719 383.573C225.254 391.424 233.928 393.012 241.656 395.862C282.585 410.981 320.999 430.585 353.284 460.483C365.166 471.49 375.691 483.712 382.337 499.049C397.936 535.06 377.475 560.401 349.686 572.378C315.56 587.086 280.661 588.04 244.876 578.343C211.684 569.354 180.428 555.121 147.955 544.246C138.393 541.045 128.694 537.724 118.784 536.266C110.762 535.087 101.141 533.224 98.5366 546.122C97.2979 552.25 93.5058 547.68 91.8573 545.624C86.8113 539.327 85.407 532.02 87.6711 524.229C89.8355 516.803 95.2858 512.954 102.635 511.924C124.175 508.903 144.02 515.716 163.315 523.762C168.278 525.832 172.622 528.81 178.259 528.601C179.675 528.546 181.384 528.558 182.496 529.267C198.94 539.745 219.112 538.509 236.314 546.496C240.705 548.535 245.215 549.176 249.997 548.851C254.667 548.535 259.936 547.047 263.933 548.626C279.926 554.964 295.062 547.967 310.555 546.9C316.679 546.474 320.48 543.917 322.051 537.613C322.795 534.629 324.618 531.192 327.032 529.462C337.683 521.832 334.399 513.767 328.744 505.157C318.769 489.972 304.662 479.455 289.414 470.303C260.338 452.848 230.313 437.144 200.178 421.584C178.727 410.509 159.919 396.112 152.378 371.235C139.955 330.266 162.393 287.124 204.526 269.535C232.49 257.862 261.462 257.523 290.731 259.527C329.237 262.159 367.445 266.744 405.597 273.283C461.218 282.812 517.082 286.247 573.278 273.541C665.802 252.621 731.32 197.064 780.118 118.301C804.184 79.4491 823.565 38.5204 838.15 -4.7376C839.063 -7.44851 840.426 -10.011 841.584 -12.6421L849.107 0.520188L849.109 0.560058ZM870.838 309.513C865.137 305.204 861.309 307.762 857.877 312.406C856.81 313.853 855.359 315.155 853.321 314.482C851.755 313.963 851.439 312.607 851.566 311.039C852.075 304.655 872.484 289.753 877.179 293.285C885.669 299.665 887.12 291.831 890.581 288.055C892.196 286.295 893.705 283.594 891.6 281.291C889.851 279.382 887.527 280.97 885.569 281.602C873.295 285.577 863.923 294.089 854.152 301.938C849.368 305.777 845.25 310.312 842.38 315.808C840.881 318.682 839.105 321.927 841.479 324.879C844.061 328.089 847.603 326.195 850.414 325.014C858.495 321.603 864.55 315.426 870.843 309.51L870.838 309.513Z" fill="#FF0000"/>
<path d="M935.079 150.988C927.463 163.197 919.431 175.073 908.833 185.007C905.377 188.251 901.695 191.076 897.291 192.77C885.902 197.152 877.889 191.776 877.786 179.567C877.762 176.39 878.271 173.067 879.252 170.043C886.329 148.27 898.185 129.171 912.509 111.496L917.883 120.898C903.381 136.329 892.526 154.011 885.553 173.996C884.154 178.007 882.789 182.834 886.615 186.191C890.873 189.92 894.809 186.099 898.375 184.15C913.598 175.827 920.493 161.108 926.976 146.137C927.887 144.622 928.795 143.101 929.706 141.586L935.079 150.988Z" fill="#FF0000"/>
<path d="M858.78 17.483C844.522 55.4907 827.59 92.2277 807.883 127.641C806.662 127.124 805.433 126.606 804.211 126.089C820.612 86.7539 837.01 47.4132 853.411 8.07768L858.785 17.48L858.78 17.483Z" fill="#FF0000"/>
<path d="M900.692 90.8188C884.862 110.048 869.676 129.732 860.534 153.221C856.945 162.441 854.138 171.97 850.622 182.398C841.23 163.059 864.477 114.178 896.386 83.2967L900.684 90.8166L900.692 90.8188Z" fill="#FF0000"/>
<path d="M926.978 146.142C922.846 151.049 918.866 156.102 914.529 160.818C912.03 163.529 909.701 168.229 905.034 165.73C900.084 163.084 902.19 158.209 903.218 154.185C906.17 142.59 911.957 132.367 918.969 122.788L929.716 141.593C928.805 143.108 927.897 144.629 926.987 146.144L926.978 146.142Z" fill="#FF0000"/>
<path d="M706.641 322.88C721.851 315.806 737.045 308.262 753.917 305.322C759.083 304.421 765.569 302.252 768.4 308.49C770.991 314.199 765.26 317.461 761.595 320.605C745.299 334.577 725.98 342.119 705.15 346.01C699.671 347.035 692.595 348.808 690.209 341.595C687.868 334.521 693.522 330.514 698.99 327.259C701.466 325.782 703.988 324.396 706.636 322.883L706.641 322.88Z" fill="#FF0000"/>
<path d="M819.523 287.375C816.079 289.344 812.795 291.701 809.152 293.179C804.5 295.063 799.263 297.088 794.888 292.974C790.398 288.755 792.401 283.473 794.367 278.857C796.042 274.922 798.247 271.048 800.933 267.729C814.415 251.077 830.82 237.536 847.797 224.671C850.613 222.54 854.071 221.003 857.461 219.923C866.836 216.939 872.391 222.121 870.195 231.857C868.414 239.736 864.3 246.608 859.291 252.826C848.109 266.695 834.827 278.245 819.526 287.367L819.523 287.375ZM842.401 251.57C836.014 257.909 828.777 261.524 826.244 269.531C825.155 272.98 823.85 275.558 819.822 275.424C817.943 275.366 816.095 274.666 815.564 272.753C814.569 269.15 816.59 266.396 819.053 264.248C826.097 258.109 833.189 252.018 840.508 246.216C846.345 241.59 851.32 241.917 853.594 251.478C857.228 245.484 860.303 241.044 862.684 236.253C864.013 233.585 866.27 229.935 862.925 227.456C860.256 225.475 857.338 227.98 855.115 229.552C835.666 243.302 817.773 258.777 803.387 277.928C801.387 280.588 797.923 284.118 801.173 287.441C804.186 290.528 808.012 287.69 811.068 286.074C825.083 278.675 838.549 270.663 842.406 251.567L842.401 251.57Z" fill="#FF0000"/>
<path d="M648.085 277.217C691.958 249.948 730.741 216.702 764.736 177.85C755.281 211.02 673.542 280.74 648.085 277.217Z" fill="#FF0000"/>
<path d="M517.254 342.986C503.768 350.577 471.762 346.124 460.923 335.372C459.031 333.489 457.542 331.459 458.61 328.742C460.106 324.937 463.534 323.492 467.202 323.235C480.245 322.312 492.973 324.053 505.249 328.654C508.941 330.036 512.623 331.52 516.117 333.337C518.848 334.754 523.779 332.265 524.371 336.483C525.012 340.988 519.275 340.603 517.254 342.986Z" fill="#FF0000"/>
<path d="M657.797 352.723C638.887 357.705 620.274 357.358 602.078 349.891C598.316 348.35 595.829 344.358 596.655 340.161C597.712 334.795 601.931 338.936 604.649 338.398C622.263 334.884 639.633 336.476 656.815 341.222C657.16 341.321 657.551 341.31 657.864 341.46C661.934 343.456 667.922 335.877 668.997 340.868C670.227 346.586 660.638 347.154 657.797 352.723Z" fill="#FF0000"/>
<path d="M534.475 334.221C542.119 330.765 549.686 331.196 557.168 332.607C564.227 333.938 571.34 335.41 578.08 337.815C581.096 338.891 586.785 336.744 586.866 341.652C586.926 345.384 582.829 348.226 579.532 350.44C569.795 356.958 539.343 353.292 531.228 344.722C525.675 338.86 531.493 336.879 534.478 334.226L534.475 334.221Z" fill="#FF0000"/>
<path d="M837.379 201.617C836.325 207.455 831.441 208.393 828.263 210.793C808.745 225.55 793.271 243.649 781.903 265.308C780.405 268.161 778.594 270.863 776.782 273.539C775.628 275.241 774.599 277.86 771.983 276.919C768.599 275.704 769.693 272.636 770.642 270.516C784.151 240.333 801.808 213.892 834.36 201.209C834.927 200.988 835.73 201.373 837.379 201.617Z" fill="#FF0000"/>
<path d="M453.811 324.871C439.465 338.222 406.159 337.161 394.635 323.925C393.25 322.329 391.316 320.711 391.917 318.364C392.676 315.371 395.315 316.854 397.262 316.565C412.239 314.366 426.722 315.625 439.941 323.508C444.154 326.019 448.357 323.192 453.808 324.866L453.811 324.871Z" fill="#FF0000"/>
<path d="M759.138 288.37C752.096 294.247 743.459 295.499 735.329 297.696C719.865 301.875 705.957 309.041 692.474 317.358C690.714 318.446 688.555 320.009 686.653 318.05C684.55 315.883 686.611 313.943 688.056 312.617C708.188 294.085 731.686 285.246 759.13 288.368L759.138 288.37Z" fill="#FF0000"/>
<path d="M665.306 320.04C662.644 324.217 659.181 323.609 656.121 323.224C640.237 321.242 624.598 322.907 609.024 326.003C606.361 326.53 602.875 328.33 601.645 324.498C600.532 321.038 603.958 319.698 606.447 318.337C620.346 310.771 649.042 311.462 665.309 320.032L665.306 320.04Z" fill="#FF0000"/>
<path d="M354.688 508.477C336.153 486.885 315.147 472.304 292.137 457.756C309.865 456.399 352.237 489.974 354.688 508.477Z" fill="#FF0000"/>
</g>
<defs>
<clipPath id="clip0_102_116">
<rect width="376.164" height="928.257" fill="white" transform="translate(186.649 712.183) rotate(-119.748)"/>
</clipPath>
</defs>
</svg>
