<svg width="166" height="194" viewBox="0 0 166 194" fill="none" xmlns="http://www.w3.org/2000/svg">
<g clip-path="url(#clip0_147_29)">
<path d="M101.481 47.6366C99.2257 46.7335 97.4735 46.7845 95.359 48.1632C87.0153 53.6077 78.4919 53.5852 70.1512 48.1571C68.0337 46.7794 66.2845 46.7294 64.0312 47.6397C53.1923 52.0197 49.049 57.805 48.9909 69.6767C48.8602 96.2652 55.9232 120.557 66.9009 143.592C73.4097 135.098 82.1239 125.75 82.723 125.109V125.072C82.723 125.072 82.7301 125.079 82.7403 125.091C82.7505 125.079 82.7577 125.072 82.7577 125.072V125.109C83.3577 125.751 92.1025 135.132 98.6155 143.639C99.2982 142.183 99.9666 140.72 100.622 139.25C109.885 118.459 115.917 96.85 116.514 77.8969C116.683 58.1102 113.354 52.3953 101.481 47.6366ZM65.8845 120.523C58.5133 103.592 53.1842 66.0079 63.2924 59.2348C79.8196 48.1612 57.8224 74.915 65.8845 120.523Z" fill="black"/>
<path d="M44.7047 68.8521C44.7302 67.203 45.1088 65.1834 42.6351 64.7395C40.2328 64.3078 38.4897 65.014 37.0967 67.2408C33.0565 73.6976 27.1651 76.656 19.5398 76.0294C17.8386 75.8896 16.2252 75.7488 14.6832 77.0969C9.24892 81.8525 7.19972 88.5685 9.30198 95.5172C10.3603 99.0135 11.9461 102.272 13.7218 105.447C17.2202 111.704 21.1502 117.531 25.4567 122.983C31.4594 125.92 53.9199 137.203 63.6597 146.205C51.9565 121.906 44.271 96.504 44.7047 68.8521ZM27.9386 115.931C27.9386 115.931 8.44679 94.2956 14.4678 86.0295C20.4889 77.7633 22.2238 85.4172 30.9492 80.4768C20.795 89.1094 27.9386 115.931 27.9386 115.931Z" fill="black"/>
<path d="M156.855 93.1404C155.905 97.6653 153.858 101.766 151.619 105.78C148.214 111.887 144.36 117.586 140.125 122.934C134.282 125.79 111.659 137.131 101.848 146.18C102.496 144.825 103.135 143.467 103.761 142.103C114.395 118.889 121.31 94.7834 120.82 68.9358C120.788 67.3019 120.342 65.2231 122.796 64.7608C124.917 64.3618 126.789 64.6282 128.096 66.7733C132.384 73.8026 138.648 76.6233 146.838 76.0528C152.725 75.6426 158.436 85.612 156.855 93.1404Z" fill="black"/>
<path d="M106.217 23.5954C106.203 37.0244 96.004 47.1999 82.6138 47.1459C69.3001 47.0918 59.2297 36.7856 59.3042 23.2903C59.3766 10.1307 69.5144 0.0327349 82.6852 7.83726e-05C96.0825 -0.0325781 106.232 10.144 106.217 23.5954Z" fill="black"/>
<path d="M146.03 72.7874C135.332 72.7812 126.609 64.2263 126.609 53.7384C126.609 42.8995 135.322 34.1813 146.125 34.2088C156.758 34.2353 165.397 42.7648 165.522 53.3608C165.65 64.1364 156.963 72.7925 146.03 72.7874Z" fill="black"/>
<path d="M19.2826 72.7831C8.57641 72.7361 0.00408347 64.1709 1.40414e-06 53.5167C-0.00408066 42.736 8.89277 34.0698 19.8174 34.2127C30.3971 34.3515 39.1184 43.3218 38.8704 53.8107C38.6173 64.5618 30.0817 72.828 19.2816 72.782L19.2826 72.7831Z" fill="black"/>
<path d="M99.8125 153.035C93.7507 144.967 82.725 132.08 82.725 132.08C82.725 132.08 71.73 144.967 65.6681 153.035C55.7212 143.815 28.155 128.804 27.9397 128.688C28.1101 128.874 43.873 146.113 43.873 194H121.608C121.608 146.113 137.371 128.874 137.541 128.688C137.326 128.804 109.76 143.815 99.8125 153.035ZM47.0223 169.916C45.5936 153.588 38.8765 140.729 38.8765 140.729C42.2616 143.28 46.5375 146.98 52.3035 153.358C44.9302 154.761 49.5736 164.609 47.0223 169.916ZM82.7403 153.358H72.7393L82.7403 140.729V153.358Z" fill="black"/>
</g>
<defs>
<clipPath id="clip0_147_29">
<rect width="165.525" height="194" fill="white"/>
</clipPath>
</defs>
</svg>
