<svg width="120" height="194" viewBox="0 0 120 194" fill="none" xmlns="http://www.w3.org/2000/svg">
<g clip-path="url(#clip0_34_514)">
<path d="M83.412 122.071C83.3462 116.395 82.802 110.672 87.736 106.3C89.0338 105.152 88.8065 103.812 86.6774 103.447C84.9909 103.154 83.4718 102.382 82.162 101.252C73.4124 96.342 64.8122 91.1867 56.4034 85.7264C55.5601 85.6187 54.7468 84.5004 53.9454 85.2539C53.2038 85.9537 53.8616 86.9524 54.1128 87.7778C55.1056 91.0193 56.1403 94.2488 57.163 97.4843C54.4717 93.1065 52.1392 88.6091 49.8905 84.0638C48.8857 82.0304 47.4803 80.4993 45.5067 79.3391C39.9268 76.0557 34.4485 72.5989 28.8626 69.3335C26.889 68.1792 26.5062 66.9352 27.6425 64.9616C28.6353 63.2392 29.4068 61.3912 30.262 59.591C31.6615 56.6366 33.966 55.6557 37.1757 56.6485C38.4077 57.0253 39.6756 57.3423 40.9494 57.5516C45.5486 58.2932 50.7696 55.0995 52.3904 50.7277C53.138 48.7182 52.8509 47.3426 50.7637 46.3678C42.7317 42.6239 34.7655 38.7305 26.3866 35.794C22.535 34.4424 21.8592 34.7534 19.5387 38.276C14.2638 46.2721 10.0056 54.8424 5.23306 63.1256C2.67334 67.5632 3.14582 70.8944 6.40526 74.6263C13.2112 82.4191 19.7481 90.4511 26.4165 98.3635C28.414 100.738 29.5444 103.292 29.4128 106.521C29.042 115.594 17.4994 194 17.4994 194H90.8938C90.8938 194 83.4658 126.251 83.418 122.071H83.412Z" fill="black"/>
<path d="M118.578 52.6657C116.09 48.8441 112.442 46.3561 107.735 45.782C107.52 45.9853 107.305 46.1827 107.089 46.386C107 47.2592 105.911 48.1324 106.521 48.8919C108.064 50.8237 106.796 52.2112 105.887 53.7123C98.3217 66.2298 90.7084 78.7174 83.2385 91.2887C81.9108 93.5254 80.8523 93.9142 78.5916 92.5027C70.9184 87.7003 63.1197 83.0952 55.3688 78.4124C47.7913 73.8312 40.2258 69.2261 32.6304 64.6748C30.3398 63.3053 28.8685 63.9332 28.5516 66.2537C28.3123 68.024 29.8254 68.3649 30.8362 68.9928C39.5559 74.3694 48.503 79.3693 57.0314 85.0628C65.7272 90.0327 74.3992 95.0445 82.7182 100.636C84.1237 101.133 85.4932 101.761 86.9346 102.102C90.7562 103.005 94.9367 101.193 96.9462 97.8494C104.015 86.0855 111.072 74.3156 118.148 62.5517C120.091 59.3221 120.647 55.8414 118.578 52.6657Z" fill="black"/>
<path d="M51.2242 40.6923C54.6331 43.569 58.5923 45.3392 62.8864 46.3918C64.7045 46.7088 65.3684 45.3512 66.0562 44.167C71.1337 35.3875 76.1515 26.578 81.259 17.8104C82.2577 16.0939 82.0723 14.8918 80.4276 13.7914C76.3668 11.0702 72.1504 8.67193 67.5453 6.96147C65.8528 6.3335 64.7165 6.58469 63.933 8.32506C59.5911 18.0376 55.2133 27.7263 50.8474 37.4269C50.3271 38.5811 50.0938 39.7294 51.2242 40.6863V40.6923Z" fill="black"/>
<path d="M8.56435 54.1488C9.32389 53.1201 10.7114 51.9898 9.28801 50.5125C8.19953 49.3882 8.94711 48.4971 9.50331 47.582C17.1884 34.8851 24.9035 22.2062 32.5706 9.5033C33.9282 7.25458 35.5071 6.33356 37.9472 7.94236C38.8683 8.5464 39.9448 9.19829 40.6983 7.70911C41.3323 6.45916 42.1217 5.03576 40.5428 3.98317C37.6542 2.06339 34.8074 -0.0477791 30.0767 6.60145e-05C27.7024 -0.00591462 25.053 1.39356 23.3126 4.24632C16.1 16.0461 8.83946 27.828 1.79427 39.7354C-1.62068 45.5127 -0.0716927 50.4348 5.72953 53.8378C6.6326 54.3641 7.59549 55.4526 8.56435 54.1488Z" fill="black"/>
<path d="M35.3336 30.1664C38.8921 32.8637 42.8632 34.5741 47.271 35.3038C48.7482 35.549 49.8127 35.0526 50.4288 33.683C54.1128 25.5254 57.7909 17.3619 61.4571 9.19828C61.8338 8.36697 62.1867 7.43997 61.3195 6.72827C57.0852 3.24156 52.2469 1.05265 46.8763 0.059859C45.5486 -0.0418119 44.801 0.675865 44.3584 1.78826C41.0391 10.1014 37.7259 18.4204 34.4186 26.7335C33.8743 28.1031 34.1136 29.2334 35.3336 30.1604V30.1664Z" fill="black"/>
<path d="M105.845 38.9819C104.811 38.0609 103.842 37.0741 102.795 36.165C100.379 34.0598 97.9808 34.0718 95.6005 36.2009C95.3135 36.4581 94.9127 36.5837 94.5659 36.7691C93.9977 34.7655 95.4749 33.5933 96.5215 32.3613C98.0526 30.5612 97.9808 29.1437 96.2524 27.5051C93.2023 24.6224 89.9488 22.0447 86.4442 19.7362C84.1895 18.247 82.8677 18.4862 81.5101 20.9503C77.5749 28.0971 73.4303 35.1304 69.3694 42.2114C66.7679 46.7448 66.8935 47.3668 71.1517 50.387C71.7976 50.8475 72.4794 51.2661 73.1731 51.6549C78.3105 54.5375 78.7291 54.4777 82.9515 50.4348C83.1608 50.2375 83.4598 50.1358 83.723 49.9923C84.01 50.6441 84.321 51.3499 83.7828 51.9659C81.235 54.8784 83.2864 56.6367 85.3856 58.3173C86.3903 59.1187 87.5685 59.6988 88.6331 60.4345C90.9416 62.0313 92.8135 61.6605 94.518 59.4177C95.7201 57.8389 97.0897 56.3736 98.5071 54.9861C101.408 52.1572 103.525 48.5509 107.089 46.3919C107.305 46.1886 107.52 45.9912 107.735 45.7879C109.553 42.8394 107.927 40.8598 105.839 38.9939L105.845 38.9819Z" fill="black"/>
</g>
<defs>
<clipPath id="clip0_34_514">
<rect width="119.894" height="194" fill="white"/>
</clipPath>
</defs>
</svg>
