<svg width="97" height="188" viewBox="0 0 97 188" fill="none" xmlns="http://www.w3.org/2000/svg">
<path d="M49.1819 187.815C38.8678 187.815 28.5538 187.815 18.2397 187.815C15.7637 187.815 15.7402 187.78 16.2905 185.327C19.7441 170.044 23.2329 154.772 26.6279 139.476C27.026 137.673 27.7284 136.988 29.6543 137C42.7136 137.1 55.773 137.111 68.8324 137.053C70.7231 137.041 71.4665 137.679 71.8704 139.505C75.2772 154.859 78.7835 170.196 82.2547 185.538C82.7639 187.78 82.7347 187.821 80.481 187.821C70.0441 187.821 59.613 187.821 49.176 187.821L49.1819 187.815ZM35.1742 162.586C35.1742 166.309 35.1566 170.032 35.18 173.755C35.1976 176.641 37.0825 178.713 39.6639 178.771C42.2336 178.83 44.1887 176.775 44.2063 173.866C44.2414 166.297 44.2414 158.729 44.2063 151.16C44.1946 148.175 42.3741 146.29 39.6756 146.302C37.0356 146.313 35.2035 148.286 35.18 151.236C35.1508 155.023 35.1742 158.805 35.1742 162.592V162.586Z" fill="black"/>
<g clip-path="url(#clip0_501_120)">
<path d="M94.4755 91.0401L72.83 125.004C71.6536 126.851 69.3847 128 66.9204 128H30.078C27.6118 128 25.3448 126.851 24.1684 125.004L2.52472 91.0401C-0.622814 86.1057 -0.836547 80.1982 1.93833 75.1066L22.9737 36.5319L45.1325 0.305255C45.454 -0.219475 46.3838 -0.0248424 46.3838 0.566842V74.0603C46.3838 75.8151 45.5161 77.5185 43.914 78.6209C42.0397 79.9117 40.9016 81.9484 41.1209 84.1999C41.4168 87.2455 44.2538 89.7383 47.8178 90.0731C52.3902 90.5029 56.263 87.4604 56.263 83.6487C56.263 81.5248 55.061 79.6408 53.205 78.4621C51.5371 77.4048 50.6183 75.6921 50.6183 73.9217V0.566842C50.6183 -0.0248424 51.5481 -0.219475 51.8696 0.305255L74.0284 36.5335L95.0638 75.1082C97.8404 80.1982 97.6249 86.1073 94.4773 91.0416L94.4755 91.0401Z" fill="black"/>
</g>
<defs>
<clipPath id="clip0_501_120">
<rect width="97" height="128" fill="white"/>
</clipPath>
</defs>
</svg>
