<svg width="83" height="188" viewBox="0 0 83 188" fill="none" xmlns="http://www.w3.org/2000/svg">
<g clip-path="url(#clip0_37_521)">
<path d="M45.4452 0C47.2013 1.03609 48.0852 2.56388 47.7164 4.60093C45.9428 14.4116 50.2393 22.0271 56.4149 28.9987C61.0685 34.2553 65.9972 39.2718 70.3581 44.7859C78.442 55.0063 82.6975 66.5027 82.6331 79.644C82.5863 88.8166 81.7317 97.8019 78.6117 106.477C75.7317 114.479 71.5172 121.597 64.7504 126.988C63.8372 127.714 62.9065 128.036 61.7358 128.036C48.2374 128.006 34.739 128.001 21.2406 128.036C19.9177 128.036 18.946 127.603 17.9743 126.742C9.87876 119.577 5.43588 110.346 2.86029 100.079C-0.0430905 88.4479 -0.382599 76.6763 0.928607 64.8052C2.57932 49.8551 7.27976 36.0055 15.7558 23.5256C22.3879 13.7677 30.6005 5.74238 41.4121 0.643896C41.7984 0.468288 42.1496 0.216583 42.5126 0H45.4452ZM57.369 85.4625C57.2753 86.6742 57.2461 87.8976 57.0705 89.1035C56.3973 93.722 54.4832 97.8195 51.9369 101.695C49.4959 105.417 50.2861 109.632 53.6695 111.839C56.9417 113.975 61.086 112.957 63.5445 109.415C65.3592 106.799 66.9104 104.036 68.1104 101.092C71.4235 92.9434 72.2547 84.5903 69.9601 76.0382C68.924 72.1807 65.166 70.1202 61.4197 71.1856C57.7027 72.2393 55.8061 75.6168 56.6607 79.8431C57.0353 81.7045 57.4217 83.5484 57.3749 85.4625H57.369Z" fill="black"/>
<path d="M41.5877 187.76C31.2736 187.76 20.9596 187.76 10.6456 187.76C8.16949 187.76 8.14607 187.725 8.69631 185.272C12.1499 169.989 15.6387 154.716 19.0338 139.421C19.4318 137.618 20.1342 136.933 22.0601 136.945C35.1194 137.044 48.1788 137.056 61.2382 136.998C63.1289 136.986 63.8723 137.624 64.2762 139.45C67.683 154.804 71.1893 170.141 74.6605 185.483C75.1698 187.725 75.1405 187.766 72.8869 187.766C62.4499 187.766 52.0188 187.766 41.5818 187.766L41.5877 187.76ZM27.58 162.531C27.58 166.254 27.5625 169.977 27.5859 173.7C27.6034 176.586 29.4883 178.658 32.0697 178.716C34.6395 178.775 36.5946 176.72 36.6121 173.811C36.6472 166.242 36.6472 158.674 36.6121 151.105C36.6004 148.12 34.7799 146.235 32.0814 146.246C29.4415 146.258 27.6093 148.231 27.5859 151.181C27.5566 154.968 27.58 158.75 27.58 162.537V162.531Z" fill="black"/>
<path d="M41.1819 187.815C30.8678 187.815 20.5538 187.815 10.2397 187.815C7.76366 187.815 7.74025 187.78 8.29049 185.327C11.7441 170.044 15.2329 154.772 18.6279 139.476C19.026 137.673 19.7284 136.988 21.6543 137C34.7136 137.1 47.773 137.111 60.8324 137.053C62.7231 137.041 63.4665 137.679 63.8704 139.505C67.2772 154.859 70.7835 170.196 74.2547 185.538C74.7639 187.78 74.7347 187.821 72.481 187.821C62.0441 187.821 51.613 187.821 41.176 187.821L41.1819 187.815ZM27.1742 162.586C27.1742 166.309 27.1566 170.032 27.18 173.755C27.1976 176.641 29.0825 178.713 31.6639 178.771C34.2336 178.83 36.1887 176.775 36.2063 173.866C36.2414 166.297 36.2414 158.729 36.2063 151.16C36.1946 148.175 34.3741 146.29 31.6756 146.302C29.0356 146.313 27.2035 148.286 27.18 151.236C27.1508 155.023 27.1742 158.805 27.1742 162.592V162.586Z" fill="black"/>
</g>
<defs>
<clipPath id="clip0_37_521">
<rect width="82.4362" height="187.76" fill="white" transform="translate(0.196899)"/>
</clipPath>
</defs>
</svg>
