<svg width="233" height="238" viewBox="0 0 233 238" fill="none" xmlns="http://www.w3.org/2000/svg">
<path d="M170.271 0.430664H62.825C28.2289 0.430664 0.172119 29.0152 0.172119 64.2619V173.728C0.172119 208.975 28.2289 237.56 62.825 237.56H170.271C204.867 237.56 232.924 208.975 232.924 173.728V64.2619C232.924 29.0152 204.867 0.430664 170.271 0.430664ZM179.913 71.1338C171.585 71.1338 164.824 64.2458 164.824 55.7608C164.824 47.2757 171.585 40.3877 179.913 40.3877C188.242 40.3877 195.003 47.2757 195.003 55.7608C195.003 64.2458 188.242 71.1338 179.913 71.1338ZM116.548 78.6026C138.446 78.6026 156.195 96.7018 156.195 118.995C156.195 141.289 138.43 159.388 116.548 159.388C94.6662 159.388 76.901 141.289 76.901 118.995C76.901 96.7018 94.6662 78.6026 116.548 78.6026Z" fill="black"/>
</svg>
