<svg width="245" height="250" viewBox="0 0 245 250" fill="none" xmlns="http://www.w3.org/2000/svg">
<path d="M0.206543 135.796V114.486C0.982382 109.308 1.50493 104.098 2.62911 98.9841C17.2276 32.0073 80.9728 -10.805 146.872 3.68085C194.752 14.1984 225.612 44.7832 239.988 92.4349C242.205 99.7746 243.139 107.389 244.042 114.986V135.328C243.472 139.393 243.139 143.506 242.284 147.507C231.676 197.336 202.384 229.808 154.519 244.939C147.236 247.246 139.668 248.198 132.115 249.117H112.117C108.127 248.537 104.074 248.198 100.147 247.327C51.2217 236.6 19.349 206.821 4.37056 158.331C2.10637 151.007 1.18822 143.393 0.206543 135.796ZM211.124 102.662C211.187 95.8063 208.844 92.3381 204.759 89.9023C198.79 86.3373 192.535 83.3691 186.107 80.7881C162.737 71.432 138.338 67.3024 113.384 66.3023C96.8698 65.6409 80.4028 66.5604 64.0943 69.593C57.8559 70.7545 51.6018 71.9643 45.6168 74.1259C39.6476 76.2875 36.8294 82.5787 38.6819 88.9505C40.3444 94.661 45.9494 97.8872 52.0294 96.5161C55.3544 95.774 58.632 94.7578 61.957 94.0157C84.108 89.0957 106.449 88.5311 128.917 91.0476C151.97 93.6286 174.2 98.9841 194.594 110.841C202.384 115.373 211.092 109.873 211.108 102.678L211.124 102.662ZM102.776 108.776C91.724 108.727 80.7672 109.776 69.9055 111.776C64.2846 112.809 58.7112 114.035 53.2486 115.761C49.0844 117.083 46.6461 120.374 46.5194 124.455C46.3611 129.133 48.3878 132.682 52.077 134.247C54.737 135.376 57.3653 134.957 59.9937 134.166C71.3938 130.763 83.0631 129.004 94.8907 128.504C113.653 127.714 132.067 130.069 150.054 135.683C159.871 138.731 169.276 142.748 178.19 147.959C180.518 149.33 182.893 150.749 185.759 150.394C189.67 149.91 192.504 147.829 193.565 143.942C194.689 139.812 194.119 135.876 190.683 132.924C189.306 131.747 187.69 130.811 186.107 129.908C160.219 115.228 132.226 109.082 102.807 108.76L102.776 108.776ZM102.427 149.426C88.2723 149.314 73.0563 151.475 57.9987 154.83C53.2486 155.895 50.6043 159.863 51.5702 164.235C52.6469 169.074 56.2888 171.284 61.2763 170.123C77.8223 166.284 94.5107 164.235 111.532 165.106C126.763 165.88 141.377 169.074 155.2 175.704C159.713 177.866 164.083 180.382 168.659 182.415C174.01 184.802 178.919 181.189 178.713 175.236C178.602 172.236 177.161 169.978 174.802 168.397C172.427 166.8 169.925 165.364 167.392 164.041C147.41 153.621 126.051 149.33 102.427 149.426Z" fill="black"/>
</svg>
