<?xml version="1.0" encoding="UTF-8"?><svg id="a" xmlns="http://www.w3.org/2000/svg" viewBox="0 0 500 574"><path d="M164.6,571.07c-14.09-1.91-28.23-3.74-41.68-8.59C55.63,538.22,13.8,491.51,2.41,420.53c-15.64-97.55,54.72-185.63,148.85-199.53,16.2-2.39,32.36-2.58,48.63-.93,4.36,.44,6.1,2.09,6.08,6.58-.13,27.92-.14,55.85,0,83.77,.02,4.88-1.77,5.42-6.06,4.35-47.99-12-93.64,17.09-103.21,65.65-9.3,47.19,27.34,93.94,75.2,97.49,43.75,3.24,84.41-27.67,89.74-73.9,.53-4.57,.38-9.23,.38-13.85,.04-125.93,.05-251.87,.07-377.8,0-3.14,.11-6.28,.17-9.43h93.21c2.05,8.29,1.33,16.89,3.04,25.26,13.66,67.17,66.92,112.91,135.95,116.41,4.02,.2,5.56,1.61,5.55,5.62-.09,27.55-.09,55.1,0,82.64,.01,4.09-1.61,5.66-5.62,5.47-9.96-.48-19.91-1.2-29.77-2.68-37.98-5.72-72.56-19.8-103.75-42.22-1-.72-1.94-2.1-3.36-1.37-1.39,.71-.87,2.28-.94,3.51-.08,1.47-.02,2.96-.02,4.44,.09,64.15,.17,128.31,.3,192.46,.02,9.26-.45,18.48-2.04,27.59-12.11,69.66-51.83,116.39-117.65,141.35-14.44,5.48-29.63,7.6-44.81,9.67h-27.74Z"/></svg>