<svg width="210" height="248" viewBox="0 0 210 248" fill="none" xmlns="http://www.w3.org/2000/svg">
<path d="M53.5676 246.993H53.0925C53.045 245.8 52.9499 244.59 52.9499 243.396C52.9499 231.12 52.9499 218.828 52.9499 206.552C52.9499 203.407 52.8707 203.31 49.7515 203.31C34.7097 203.31 19.6521 203.31 4.6103 203.31C1.1111 203.31 1.01607 203.213 1.01607 199.68C1.01607 148.867 1.01604 98.0698 0.984375 47.2565C0.984375 45.2562 1.57021 43.7882 2.96356 42.3687C16.1528 29.012 29.2948 15.6231 42.405 2.18582C43.7983 0.766271 45.2233 0.185547 47.1867 0.185547C100.055 0.233941 152.922 0.217809 205.774 0.217809C209.147 0.217809 209.179 0.23394 209.179 3.73442C209.179 42.8204 209.179 81.9063 209.21 121.008C209.21 122.912 208.672 124.348 207.342 125.703C182.515 150.932 157.736 176.193 132.972 201.471C131.626 202.842 130.217 203.358 128.365 203.342C118.754 203.278 109.143 203.374 99.5318 203.278C97.3943 203.262 95.8588 203.907 94.3388 205.455C80.7853 219.344 67.1686 233.169 53.5676 247.009V246.993ZM92.8977 179.339C93.8319 179 94.402 178.21 95.0354 177.548C103.348 169.096 111.676 160.691 119.91 152.158C121.604 150.4 123.377 149.69 125.736 149.722C135.189 149.819 144.642 149.722 154.094 149.787C156.153 149.803 157.641 149.141 159.082 147.657C169.057 137.398 179.095 127.187 189.165 117.008C190.559 115.604 191.192 114.137 191.192 112.136C191.144 82.0354 191.16 51.9506 191.16 21.8498C191.16 18.5106 191.018 18.3816 187.645 18.3816C144.167 18.3816 100.672 18.3816 57.1932 18.3816C53.6623 18.3816 53.6306 18.4138 53.6306 22.0111C53.6306 63.3393 53.6306 104.684 53.6306 146.012C53.6306 149.625 53.7575 149.754 57.3992 149.754C67.8018 149.754 78.1884 149.754 88.591 149.754C92.4227 149.754 92.4543 149.819 92.4702 153.61C92.4702 161.32 92.4702 169.015 92.486 176.726C92.486 177.564 92.201 178.484 92.8977 179.339Z" fill="black"/>
<path d="M118.44 75.3205C118.44 83.1119 118.44 90.8872 118.44 98.6786C118.44 101.856 118.234 102.05 115.051 102.066C111.504 102.082 107.958 102.066 104.411 102.066C100.484 102.066 100.421 102.002 100.405 98.0817C100.405 85.2412 100.405 72.4008 100.405 59.5603C100.405 56.7535 100.453 53.9467 100.405 51.1398C100.374 49.2041 101.181 48.4137 103.097 48.462C107.119 48.5427 111.125 48.462 115.146 48.4782C118.202 48.4782 118.408 48.6879 118.408 51.7367C118.424 59.6087 118.408 67.4646 118.408 75.3367L118.44 75.3205Z" fill="black"/>
<path d="M165.796 75.3883C165.796 83.341 165.749 91.2776 165.828 99.2303C165.86 101.327 165.147 102.118 163.121 102.085C158.94 102.005 154.776 102.021 150.596 102.085C148.68 102.118 147.968 101.311 147.968 99.3432C148.015 83.2926 148.015 67.2421 147.968 51.1753C147.968 49.2235 148.68 48.4169 150.596 48.4492C154.855 48.5137 159.099 48.5137 163.358 48.4492C165.195 48.433 165.828 49.2073 165.812 51.0624C165.749 59.1764 165.78 67.2743 165.78 75.3883H165.796Z" fill="black"/>
</svg>
