<svg width="287" height="236" viewBox="0 0 287 236" fill="none" xmlns="http://www.w3.org/2000/svg">
<path d="M286.973 27.4723C280.465 30.4889 273.435 32.7956 265.994 34.2474C262.621 34.9088 259.248 35.3766 255.923 35.667C255.923 35.6508 255.923 35.6347 255.923 35.6186C267.371 28.0369 276.079 16.5192 280.196 2.93672C273.404 7.51799 265.788 11.2927 257.507 14.035C255.322 14.7448 253.153 15.39 250.968 15.9224C247.912 16.6967 244.856 17.2935 241.816 17.7452C231.287 7.13084 216.783 0.56543 200.791 0.56543C194.458 0.56543 188.362 1.59783 182.662 3.50131C182.361 3.5981 182.06 3.69489 181.759 3.80781C179.194 4.71116 176.693 5.79195 174.302 7.03405C172.814 7.79222 171.389 8.63104 169.979 9.53439C153.465 20.0197 142.477 38.6835 142.477 59.9606C142.477 64.9935 143.094 69.8974 144.25 74.5594C142.287 74.3174 140.323 74.0593 138.376 73.7528C134.544 73.1721 130.776 72.4784 127.039 71.688C126.722 71.6235 126.422 71.559 126.121 71.4944C124.142 71.0589 122.178 70.6072 120.231 70.1233C116.906 69.3006 113.628 68.3811 110.398 67.3971C86.3946 60.0413 64.7661 48.2977 46.7318 33.2473C38.4509 26.3593 30.9458 18.7615 24.3116 10.5829C18.8649 19.4067 15.7139 29.8436 15.7139 41.0387C15.7139 48.8623 17.2499 56.315 20.0366 63.1062C24.66 74.3819 32.735 83.8348 42.9159 90.0937C36.2025 89.2227 29.4257 87.5611 22.6965 85.0608C20.4482 84.222 18.2316 83.3025 16.0941 82.3185C16.0624 82.9637 16.0465 83.6251 16.0465 84.2704C16.0465 100.466 22.6491 115.097 33.2734 125.502C41.5859 133.648 52.3527 139.213 64.3386 140.923C56.2477 142.488 47.6976 142.956 38.9258 142.181C37.7858 142.085 36.6616 141.972 35.5374 141.81C42.3617 165.556 63.9111 182.913 89.4346 182.913C89.8304 182.913 90.2263 182.913 90.6063 182.913C70.4819 198.302 45.4651 207.416 18.374 207.416C12.4365 207.416 6.60971 206.981 0.909668 206.126C27.399 224.628 59.446 235.452 93.9946 235.452C185.037 235.452 258.853 160.248 258.853 67.4939C258.853 66.8002 258.853 66.1227 258.853 65.4291C259.011 63.6385 259.106 61.8318 259.106 59.9929C259.106 59.0089 259.09 58.0249 259.043 57.057C265.138 54.0082 270.649 49.9109 275.319 45.007C280.164 39.9579 284.123 34.0216 286.973 27.4884V27.4723Z" fill="black"/>
</svg>
