<?xml version="1.0" encoding="UTF-8"?><svg id="a" xmlns="http://www.w3.org/2000/svg" viewBox="0 0 500 370"><path d="M4,135.11c1.67-13.62,2.87-27.32,5.51-40.8,4.26-21.69,10.21-42.8,25.71-59.52,18.87-20.36,50.06-24.58,72.38-10.43,10.19,6.46,16.64,15.72,20.47,26.96,3.91,11.46,5.35,23.35,5.75,35.37,.55,16.81-.74,33.54-2.63,50.24-.15,1.36-.57,2.79,.22,4.21,1.63-.78,2.02-2.44,2.81-3.74,19.15-31.89,39.99-62.54,65.55-89.73,15.32-16.29,31.75-31.33,52.85-39.84,20.71-8.35,40.83-7.45,58.73,7.12,11.98,9.76,17.15,23.63,20.26,38.28,4.23,19.94,3.82,40.01,1.3,60.12-.16,1.25-.16,2.51-.26,4.1,2.15-.27,2.58-2,3.44-3.12,22.81-29.65,47.51-57.47,77.89-79.69,11.94-8.73,24.61-16.16,39.37-19.21,5.84-1.21,11.71-1.65,17.58-.19,20.5,5.12,27.67,19.43,24.26,39.11-1.44,8.32-5.81,15.56-10.27,22.59-14.74,23.23-30.9,45.53-45.2,69.06-18.38,30.24-34.62,61.61-50.14,93.4-9.26,18.96-18.29,38.1-30.92,55.18-11.09,15-24.81,26.01-43.96,29.18-22.07,3.65-40.33-3.26-55.67-18.93-15.1-15.42-22.14-34.48-24.73-55.48-1.98-16.04-2.8-32.13-1.34-49.25-4.43,6.12-7.36,12.07-10.45,17.89-13.92,26.13-25.38,53.45-38.55,79.95-7.78,15.65-16.3,30.84-27.65,44.25-15.48,18.28-34.88,28.17-59.18,27.3-25.34-.9-43.62-13.99-57.61-34.02-13.3-19.05-20.78-40.61-26.18-62.98-4.44-18.36-7.31-36.98-8.73-55.82-.07-.94-.4-1.86-.61-2.79v-78.73Z"/></svg>