<?xml version="1.0" encoding="UTF-8"?><svg id="a" xmlns="http://www.w3.org/2000/svg" viewBox="0 0 424 418"><path d="M415.4,265.9c-2.82,5.93-7.39,8.35-14.06,8.34-126.94-.11-253.89-.08-380.83-.08-9.73,0-14.19-4.42-14.19-14.05,0-30.74,0-61.48,0-92.21,0-9.64,4.46-14.05,14.19-14.05,126.94,0,253.89,.03,380.83-.08,6.67,0,11.24,2.41,14.06,8.34v103.8ZM151.52,188.59c-.47-.38-.77-.51-.85-.72-1.95-5.07-5.03-8.75-10.95-8.96-6.44-.23-9.84,3.64-12.38,8.93-3.28,6.83-6.76,13.57-10.17,20.34-.46,.91-.7,2.24-1.94,2.29-1.29,.04-1.52-1.31-1.98-2.21-3.66-7.24-7.31-14.48-10.93-21.75-2.31-4.63-5.6-7.61-11.15-7.57-5.55,.04-8.8,3.08-11.09,7.7-3.49,7.03-6.99,14.05-10.56,21.04-.56,1.1-.76,2.92-2.42,2.76-1.26-.12-1.54-1.7-2.06-2.74-3.6-7.12-7.16-14.26-10.73-21.4-1.66-3.33-3.91-6.06-7.67-7.07-4.65-1.25-8.8-.25-11.93,3.47-3.47,4.13-3.46,8.79-1.15,13.46,7.51,15.13,15.1,30.22,22.63,45.34,2.31,4.63,5.63,7.65,11.14,7.64,5.52-.02,8.79-3.1,11.08-7.73,3.48-7.03,6.99-14.05,10.56-21.04,.56-1.1,.76-2.91,2.4-2.8,1.29,.09,1.56,1.67,2.08,2.7,3.73,7.36,7.29,14.79,11.14,22.08,3,5.69,7.81,7.83,13.61,6.46,4.31-1.02,6.56-4.25,8.4-7.93,6.77-13.56,13.55-27.13,20.35-40.68,1.34-2.67,2.77-5.31,4.28-8.19,8.27,16.55,16.38,32.67,24.37,48.85,2.39,4.84,5.88,7.93,11.4,7.95,5.51,.02,9.1-2.97,11.45-7.85,3.34-6.95,6.86-13.82,10.34-20.7,.52-1.03,.78-2.62,2.08-2.69,1.64-.1,1.83,1.71,2.39,2.81,3.09,6.04,6.14,12.09,9.11,18.19,2.63,5.41,5.32,10.55,12.54,10.57,7.21,.02,9.92-5.09,12.59-10.49,7.65-15.45,15.39-30.86,23.08-46.27,.87,.11,1.02,.79,1.32,1.38,7.89,15.83,15.84,31.63,23.68,47.48,2.34,4.74,5.91,7.56,11.22,7.56,5.31,0,8.93-2.78,11.24-7.54,3.13-6.46,6.36-12.88,9.65-19.26,.82-1.59,1.1-4.26,2.99-4.35,2.01-.09,2.26,2.61,3.07,4.18,3.48,6.73,6.72,13.59,10.25,20.3,3.04,5.79,7.61,7.94,13.5,6.71,4.35-.91,6.67-4.07,8.52-7.76,6.42-12.85,12.86-25.69,19.27-38.54,1.36-2.74,2.87-5.43,3.9-8.3,2.64-7.35-1.64-14.43-9.14-15.44-4.91-.66-9.28,1.69-11.97,6.84-3.82,7.31-7.41,14.73-11.13,22.09-.52,1.03-.79,2.62-2.08,2.7-1.64,.11-1.84-1.7-2.4-2.8-3.62-7.11-7.19-14.25-10.74-21.4-2.29-4.62-6.02-7.11-11.13-7.04-4.94,.06-8.56,2.52-10.76,7-.76,1.55-1.56,3.08-2.34,4.63-2.86,5.71-5.69,11.43-8.58,17.12-.51,1-.72,2.57-2.19,2.51-1.2-.04-1.42-1.42-1.92-2.32-.51-.93-.97-1.9-1.45-2.84-3.42-6.76-6.71-13.6-10.31-20.27-2.74-5.08-7.47-6.59-12.91-5.94-4.68,.55-7.16,3.66-8.35,8-.18,.66-.46,1.25-1.25,1.38-.84-.45-.7-1.37-.96-2.08-1.71-4.56-5.01-7.26-9.82-7.59-4.76-.33-8.65,1.64-10.91,5.95-4.07,7.77-7.95,15.65-11.93,23.48-.46,.91-.7,2.25-1.95,2.27-1.27,.02-1.51-1.33-1.97-2.23-3.12-6.17-6.35-12.29-9.28-18.56-2.6-5.56-5.62-10.45-12.62-10.51-7.22-.05-10.27,5-12.91,10.68-2.81,6.03-5.9,11.92-8.9,17.85-.52,1.03-.8,2.61-2.06,2.73-1.66,.15-1.86-1.67-2.42-2.77-3.62-7.11-7.17-14.26-10.74-21.39-1.73-3.46-4.09-6.2-8.07-7.15-6.6-1.59-11.24,1.38-14.47,9.46Z"/><path d="M194.23,418.4c-8.89-1.44-17.86-2.39-26.66-4.44-35.74-8.33-67.02-25.01-93.95-49.93-19.16-17.72-34.38-38.33-45.8-61.78-2.26-4.64-2.25-4.7,2.94-4.7,25.8,0,51.6,.08,77.39-.09,3.92-.03,5.55,1.18,6.48,5,6.33,25.86,15.61,50.55,30.65,72.71,12.09,17.8,26.7,32.75,47.81,39.85,5.32,1.79,10.93,1.93,16.3,3.36h-15.17Z"/><path d="M212.59,418.4c5.24-1.42,10.71-1.54,15.92-3.24,18.23-5.92,31.69-18.07,43.07-32.86,14.96-19.44,24.52-41.58,31.7-64.84,1.68-5.45,3.19-10.97,4.54-16.51,.62-2.54,1.84-3.43,4.42-3.42,26.73,.06,53.46,.08,80.19,0,3.88-.01,3.37,1.49,2.13,4.05-15.6,32.09-37.85,58.56-66.85,79.37-26.4,18.94-55.75,30.64-87.74,35.87-4.05,.66-8.13,1.07-12.2,1.6h-15.17Z"/><path d="M207.65,9.7c-7.4,1.04-14.52,2.83-21.32,5.87-14.87,6.65-26.29,17.47-35.99,30.21-17.97,23.6-28.41,50.66-35.57,79.11-1.07,4.25-2.7,5.7-7.18,5.66-25.68-.23-51.35-.11-77.03-.11-4.95,0-5-.11-2.84-4.51C49.23,82.22,81.93,49.72,125.74,28.55c21.12-10.21,43.46-16.34,66.88-18.49,3.71-.34,7.39-.83,11.13-.59,1.3,.08,2.6,.15,3.91,.23Z"/><path d="M214.45,9.93c11.55-1.09,22.95,.73,34.26,2.96,40.99,8.07,76.07,27.38,105.62,56.69,16.75,16.61,30.12,35.76,40.36,57.07,1.52,3.16,.71,3.84-2.51,3.83-26.48-.07-52.95-.13-79.43,.06-3.91,.03-4.61-2.05-5.31-4.92-4.59-18.79-10.95-36.95-19.77-54.2-9.05-17.7-20.24-33.76-36.06-46.17-10.91-8.56-23.13-13.98-37.16-15.31Z"/><path d="M199.3,82.81c0,14.37-.09,28.74,.07,43.11,.04,3.46-.99,4.62-4.53,4.59-17.83-.15-35.66-.08-53.49-.06-2.5,0-4.51,.04-3.51-3.66,6.19-22.72,14.57-44.48,28.01-64,7.33-10.64,16.07-19.85,27.92-25.6,5.11-2.48,5.52-2.22,5.52,3.32,0,14.1,0,28.21,0,42.31Z"/><path d="M222.7,82.62c0-14.24,0-28.47,0-42.71,0-4.77,.52-5.1,4.97-3,12.04,5.7,20.92,14.96,28.35,25.7,13.55,19.61,21.99,41.49,28.16,64.35,.66,2.46,.05,3.47-2.53,3.47-18.63-.03-37.25-.05-55.88,0-3.31,.01-3.07-2.16-3.07-4.32,0-14.5,0-29,0-43.51Z"/><path d="M199.3,345.19c0,14.24,0,28.47,0,42.71,0,5.01-.49,5.31-5.16,3.09-11.39-5.41-19.97-14.06-27.13-24.15-14.21-20.01-22.91-42.5-29.24-66.02-.61-2.28,.04-3.25,2.4-3.25,18.76,.02,37.52,.03,56.28,0,3.1,0,2.85,2.11,2.86,4.11,0,14.5,0,29,0,43.51Z"/><path d="M254.01,297.56c9.05,0,18.09,.02,27.14,0,2.33,0,3.92,.28,3.07,3.37-7.24,26.22-16.9,51.28-34.48,72.57-6.26,7.58-13.67,13.78-22.69,17.87-3.84,1.74-4.34,1.4-4.34-2.77-.02-28.87,.05-57.74-.08-86.61-.02-3.59,1.24-4.55,4.64-4.48,8.91,.19,17.83,.06,26.74,.07Z"/></svg>