<svg width="248" height="252" viewBox="0 0 248 252" fill="none" xmlns="http://www.w3.org/2000/svg">
<path d="M241.871 88.3164C219.451 13.9837 136.737 -21.6179 68.6848 13.7901C7.10844 45.8106 -16.2457 123.579 17.0838 185.394C17.7171 186.604 17.8751 188.427 17.5268 189.766C13.9009 203.703 10.1329 217.608 6.39618 231.513C4.59117 238.224 2.80166 244.935 0.91748 252C2.08916 251.742 2.91251 251.597 3.70418 251.387C23.7018 246.048 43.6997 240.692 63.7291 235.449C64.9799 235.111 66.6422 235.288 67.798 235.869C97.7074 251.21 128.773 254.339 160.804 244.338C225.262 224.206 261.663 153.938 241.871 88.3164ZM168.673 182.878C160.772 186.265 152.571 185.475 144.432 183.152C114.871 174.764 93.1002 155.842 75.6834 130.887C70.2684 123.144 65.3916 115.143 63.3174 105.754C60.3249 92.2202 63.5863 80.4928 73.3556 70.7172C76.5222 67.5394 80.3381 66.8296 84.8348 67.4587C90.139 66.1198 92.6884 69.2977 94.4934 74.1048C97.2801 81.4284 100.32 88.6713 103.36 95.882C104.437 98.3984 104.342 100.608 102.743 102.77C100.32 106.061 97.9927 109.432 95.4277 112.594C93.7018 114.739 93.5434 116.643 94.9368 119.014C104.944 136.146 118.908 148.534 137.117 155.922C139.619 156.955 141.598 156.487 143.276 154.342C146.285 150.518 149.356 146.744 152.333 142.904C154.518 140.065 155.785 139.372 158.92 140.84C167.581 144.856 176.162 149.05 184.665 153.422C185.71 153.954 186.66 155.922 186.644 157.229C186.438 170.537 182.591 176.909 168.673 182.878Z" fill="black"/>
</svg>
