<svg width="338" height="243" viewBox="0 0 338 243" fill="none" xmlns="http://www.w3.org/2000/svg">
<path d="M170.898 242.905C157.075 243.163 143.268 242.63 129.446 242.34C115.845 242.05 102.26 241.533 88.6587 241.066C78.1452 240.695 67.6318 240.323 57.1342 239.807C50.5475 239.469 44.0241 238.549 37.6274 236.823C22.9498 232.887 13.0697 223.789 8.03468 209.061C5.45383 201.512 3.82298 193.833 3.11047 185.897C2.11297 174.879 0.957123 163.861 0.592954 152.795C0.212951 141.31 0.0229492 129.792 0.0229492 118.291C0.0229492 105.854 0.16545 93.4164 1.00462 81.0115C1.90713 67.7678 2.52464 54.4756 5.913 41.5545C7.41717 35.7957 9.58636 30.311 12.6422 25.1974C19.2764 14.0992 29.1407 7.90476 41.5699 5.87223C51.1967 4.29137 60.9501 3.74291 70.6718 3.37189C82.3094 2.92021 93.9312 2.53306 105.585 2.30723C116.241 2.09752 126.896 1.87168 137.552 1.45227C154.953 0.774761 172.354 0.919942 189.739 1.22644C206.697 1.53293 223.671 2.12978 240.628 2.5492C248.133 2.74277 255.622 3.017 263.128 3.29123C274.053 3.69451 284.994 4.03327 295.808 5.90449C312.48 8.79198 323.326 18.6482 329.201 34.6987C332.415 43.5225 333.634 52.6367 334.6 61.896C337.434 89.0287 337.434 116.242 337.054 143.472C336.816 160.829 335.819 178.154 332.921 195.301C331.686 202.593 329.581 209.658 326.129 216.175C319.051 229.612 307.73 236.871 293.021 238.517C273.277 240.743 253.437 241.195 233.598 241.63C222.942 241.856 212.286 242.066 201.63 242.501C191.386 242.921 181.158 242.711 170.913 242.856L170.898 242.905ZM223.908 118.565C222.863 117.968 222.103 117.484 221.327 117.065C210.64 111.37 199.936 105.692 189.233 100.014C171.689 90.6902 154.162 81.3664 136.634 72.0264C134.243 70.752 134.227 70.7359 134.227 73.5589C134.227 103.434 134.227 133.309 134.227 163.2C134.227 163.345 134.227 163.49 134.227 163.636C134.259 165.926 134.322 165.991 136.254 164.991C138.312 163.926 140.355 162.797 142.397 161.7C167.747 148.327 193.096 134.954 218.446 121.565C220.171 120.646 221.881 119.678 223.892 118.565H223.908Z" fill="black"/>
</svg>
