<svg width="502" height="128" viewBox="0 0 502 128" fill="none" xmlns="http://www.w3.org/2000/svg">
<path d="M59.6909 79.8071L49.1572 57.4523H20.4822L12.0552 78.5197C10.5337 82.265 12.5234 87.7659 17.088 87.7659V88H2.34082V87.7659C5.73501 87.7659 9.59736 82.382 11.2359 78.1686L38.5065 10.1677L70.5757 78.1686C72.5654 82.382 75.2574 87.7659 80.6413 87.7659V88H55.2434V87.7659C61.4465 87.7659 61.4465 83.5524 59.6909 79.8071ZM20.9503 56.516H48.6891L33.7078 24.6808L20.9503 56.516ZM111.389 88.117C71.8294 88.117 72.1805 29.4795 111.74 29.4795C119.816 29.4795 127.424 33.5759 131.286 39.1939L129.296 49.4935H129.062C127.541 37.0872 119.816 30.4158 111.74 30.4158C87.5129 30.4158 84.7039 82.7332 111.038 86.2444C118.178 87.1807 126.488 83.6695 133.627 76.0618L134.329 76.647C126.136 85.3081 118.295 88.117 111.389 88.117ZM156.363 14.3812V29.3624H167.833V30.2988H156.363V71.8483C156.363 79.9242 160.694 84.4888 165.375 84.4888C169.238 84.4888 173.334 81.4457 175.558 74.5403L176.377 74.8914C174.036 83.4354 166.429 88.2341 159.406 88.2341C152.384 88.2341 145.829 83.3184 145.829 72.0824V30.2988H139.041V29.3624C148.755 29.3624 155.076 22.5741 156.129 14.3812H156.363ZM232.335 29.4795V75.4766C232.335 82.7332 232.335 87.7659 236.782 87.7659V88C228.121 88 221.801 88 221.801 75.7107C217.822 84.3717 210.214 88 202.723 88C192.307 88 182.007 80.7435 182.007 69.6246V52.0684C182.007 44.8119 182.007 39.7791 177.559 39.7791V39.545L192.307 29.4795H192.541V69.6246C192.541 81.7968 198.276 86.5955 204.713 86.5955C212.672 86.5955 221.801 78.9878 221.801 68.9223V52.0684C221.801 44.8119 221.801 39.7791 217.353 39.7791V39.545L232.101 29.4795H232.335ZM293.184 51.4832V75.4766C293.184 82.7332 293.184 87.7659 297.632 87.7659V88C291.897 88 283.119 88.5852 282.65 76.647C275.862 85.5421 268.02 88 259.476 88C236.185 88 234.664 57.6864 260.061 54.7604C273.989 53.1218 282.533 52.0684 280.661 40.3643C279.607 33.3418 274.106 29.4795 268.02 29.4795C260.413 29.4795 252.103 35.4486 250.464 48.5572H250.23L248.24 38.2576C252.805 31.7033 260.764 28.4261 268.84 28.4261C281.012 28.4261 293.184 36.0338 293.184 51.4832ZM282.65 75.0084V51.4832C282.65 48.3231 282.65 47.3868 282.065 44.8119C281.012 53.5899 272.117 54.2922 263.69 56.2819C247.07 60.1442 248.943 84.2547 264.86 85.3081C268.84 85.5421 275.979 84.1376 282.65 75.0084ZM306.706 75.4766V22.8081C306.706 15.5516 306.706 10.5188 302.258 10.5188V10.2848L317.006 0.219231H317.24V75.4766C317.24 82.7332 317.24 87.7659 321.687 87.7659V88H302.258V87.7659C306.706 87.7659 306.706 82.7332 306.706 75.4766ZM335.387 10.2848C344.048 10.2848 344.048 23.2763 335.387 23.2763C326.726 23.2763 326.726 10.2848 335.387 10.2848ZM330.823 75.4766V52.0684C330.823 44.8119 330.823 39.7791 326.375 39.7791V39.545L341.122 29.4795H341.357V75.4766C341.357 82.7332 341.357 87.7659 345.804 87.7659V88H326.375V87.7659C330.823 87.7659 330.823 82.7332 330.823 75.4766ZM367.814 14.3812V29.3624H379.284V30.2988H367.814V71.8483C367.814 79.9242 372.145 84.4888 376.826 84.4888C380.689 84.4888 384.785 81.4457 387.009 74.5403L387.828 74.8914C385.487 83.4354 377.88 88.2341 370.857 88.2341C363.835 88.2341 357.281 83.3184 357.281 72.0824V30.2988H350.492V29.3624C360.207 29.3624 366.527 22.5741 367.58 14.3812H367.814ZM428.657 11.5722C426.316 16.8391 420.23 21.0525 415.9 21.6377V21.2866C420.815 19.414 422.922 13.3278 423.507 10.2848L428.657 11.5722ZM419.879 88.117C380.319 88.117 380.67 29.4795 420.23 29.4795C430.998 29.4795 442.585 37.2042 444.458 51.1321H401.621C399.28 66.2304 405.483 84.3717 419.528 86.2444C426.668 87.1807 434.977 83.6695 442.117 76.0618L442.819 76.647C434.626 85.3081 426.785 88.117 419.879 88.117ZM401.738 50.1958H434.392C434.977 43.0562 432.286 30.4158 420.23 30.4158C409.697 30.4158 403.61 39.7791 401.738 50.1958ZM497.235 48.9083C495.011 34.9804 485.648 29.4795 477.338 29.4795C468.443 29.4795 460.718 35.7997 464.112 45.0459C468.911 58.0375 495.831 56.3989 497.469 71.3802C498.523 81.4457 485.531 88 472.305 88C463.41 88 454.398 84.9569 449.833 77.9345L450.887 67.5178H451.004C452.877 81.6798 462.591 87.0637 471.486 87.0637C479.913 87.0637 487.404 82.265 486.935 75.5937C485.765 61.1976 454.515 65.9963 452.877 45.163C452.057 34.0441 463.293 28.3091 475.114 28.3091C484.126 28.3091 493.607 31.7033 498.405 38.3746L497.469 48.9083H497.235Z" fill="white"/>
<path d="M463.772 79.5427C462.936 81.3534 462.036 83.2141 461.037 85.0498C459.926 87.1353 458.665 89.1958 457.216 91.1314C454.531 94.8652 451.135 98.0746 447.426 100.722C446.901 101.109 446.352 101.471 445.802 101.833C444.454 102.72 443.055 103.507 441.631 104.231C439.633 105.255 437.598 106.129 435.525 106.903C431.391 108.452 427.145 109.526 422.912 110.275C414.395 111.749 405.941 112.011 397.537 111.674C389.12 111.299 380.766 110.263 372.586 108.739C368.503 107.977 364.444 107.141 360.423 106.242L348.435 103.444C340.493 101.559 332.6 99.6855 324.708 98.0371C308.911 94.7403 293.014 92.4426 276.992 91.2438C260.958 90.02 244.836 90.0699 228.702 90.7443C224.668 90.9316 220.634 91.1314 216.613 91.4561C212.567 91.7058 208.546 92.0555 204.525 92.4301C196.483 93.2293 188.453 94.1909 180.474 95.4147C164.514 97.9622 148.68 101.584 133.182 106.591C125.44 109.064 117.797 111.949 110.217 115.083C102.662 118.242 95.2069 121.714 87.8516 125.41C91.3981 123.3 94.8822 121.04 98.5162 119.067C100.327 118.055 102.1 116.994 103.936 116.02L109.443 113.16C116.823 109.451 124.316 105.917 132.021 102.932C139.713 99.9103 147.506 97.138 155.411 94.8028C163.34 92.505 171.333 90.482 179.387 88.7712C187.454 87.0853 195.559 85.6617 203.701 84.5378C207.772 83.9883 211.856 83.4514 215.939 83.0268C220.01 82.5273 224.106 82.1651 228.19 81.7905C232.273 81.4034 236.382 81.1411 240.49 80.8789C244.599 80.6666 248.72 80.4793 252.828 80.4043C261.058 80.2045 269.312 80.242 277.554 80.6166C283.086 80.8664 288.631 81.2285 294.138 81.7405C296.848 81.9903 299.545 82.265 302.267 82.5897C310.472 83.5887 318.639 84.9 326.756 86.4235C331.764 87.3601 336.746 88.3965 341.704 89.458C352.806 91.8307 363.77 94.3532 374.622 96.3762C382.489 97.8498 390.306 98.9363 398.161 99.4982C400.134 99.6481 402.095 99.723 404.056 99.8354C406.004 99.8604 407.989 99.9353 409.937 99.9228C413.846 99.9353 417.717 99.7605 421.551 99.3733C424.411 99.0611 427.233 98.6241 429.993 98.0246C430.942 97.8123 431.866 97.5876 432.802 97.3503C436.449 96.4012 439.958 94.9901 443.23 93.2293C446.527 91.4561 449.511 89.1333 452.246 86.3985C454.968 83.6387 456.478 80.9498 459.814 76.8828C463.15 72.8157 467.63 72 467.63 72L465.707 75.7776L463.785 79.5552L463.772 79.5427Z" fill="url(#paint0_linear_393_107)"/>
<path d="M63.025 127.756C68.2324 122.387 74.1516 117.829 80.1832 113.508L84.7912 110.386C86.3272 109.337 87.9257 108.425 89.4991 107.439C91.0726 106.465 92.6586 105.503 94.257 104.579L99.1272 101.957C100.763 101.095 102.374 100.183 104.022 99.3467L109.03 97.0114L114.05 94.6887C115.736 93.9519 117.459 93.3026 119.158 92.6032L124.29 90.5802L126.863 89.5812L129.473 88.7195L139.925 85.2729L150.552 82.5256C152.325 82.0885 154.086 81.564 155.872 81.2144L161.254 80.1779C164.851 79.541 168.422 78.7917 172.031 78.2548C175.653 77.7927 179.274 77.3806 182.883 76.981L188.303 76.3691L193.76 76.1068L204.649 75.6698C206.46 75.5699 208.283 75.6448 210.094 75.7072L215.539 75.8946C219.16 76.0444 222.782 76.1943 226.403 76.419C222.782 76.7562 219.173 77.0185 215.564 77.2807L210.156 77.6428C208.358 77.7552 206.56 77.8427 204.762 78.1174L194.01 79.3662L188.64 79.9531L183.308 80.8522C179.761 81.4516 176.202 82.0386 172.655 82.588C169.121 83.2374 165.612 84.099 162.091 84.8358L156.808 85.9472C155.048 86.3094 153.324 86.8589 151.576 87.2959L141.149 90.1057L130.846 93.3775L128.274 94.2017L125.739 95.1508L120.669 97.0489C118.983 97.6733 117.272 98.2727 115.586 98.9346L110.591 101.057L105.596 103.18C103.935 103.905 102.312 104.716 100.676 105.478C87.5885 111.722 74.7885 118.803 63 127.769L63.025 127.756Z" fill="url(#paint1_linear_393_107)"/>
<defs>
<linearGradient id="paint0_linear_393_107" x1="272.247" y1="135.825" x2="289.467" y2="-25.3299" gradientUnits="userSpaceOnUse">
<stop stop-color="#E9C156"/>
<stop offset="0.04" stop-color="#B18539"/>
<stop offset="0.08" stop-color="#79481B"/>
<stop offset="0.1" stop-color="#633110"/>
<stop offset="0.13" stop-color="#6E3C13"/>
<stop offset="0.18" stop-color="#8D591D"/>
<stop offset="0.25" stop-color="#BE892D"/>
<stop offset="0.29" stop-color="#E1AB39"/>
<stop offset="0.31" stop-color="#E3B040"/>
<stop offset="0.41" stop-color="#EDCC66"/>
<stop offset="0.52" stop-color="#F4E283"/>
<stop offset="0.62" stop-color="#FAF299"/>
<stop offset="0.72" stop-color="#FDFBA5"/>
<stop offset="0.82" stop-color="#FFFFAA"/>
<stop offset="0.85" stop-color="#FDF9A3"/>
<stop offset="0.9" stop-color="#F8EB8F"/>
<stop offset="0.96" stop-color="#EFD470"/>
<stop offset="1" stop-color="#E9C156"/>
</linearGradient>
<linearGradient id="paint1_linear_393_107" x1="136.041" y1="54.1283" x2="160.08" y2="187.099" gradientUnits="userSpaceOnUse">
<stop stop-color="#E9C156"/>
<stop offset="0.04" stop-color="#B18539"/>
<stop offset="0.08" stop-color="#79481B"/>
<stop offset="0.1" stop-color="#633110"/>
<stop offset="0.13" stop-color="#6E3C13"/>
<stop offset="0.18" stop-color="#8D591D"/>
<stop offset="0.25" stop-color="#BE892D"/>
<stop offset="0.29" stop-color="#E1AB39"/>
<stop offset="0.31" stop-color="#E3B040"/>
<stop offset="0.41" stop-color="#EDCC66"/>
<stop offset="0.52" stop-color="#F4E283"/>
<stop offset="0.62" stop-color="#FAF299"/>
<stop offset="0.72" stop-color="#FDFBA5"/>
<stop offset="0.82" stop-color="#FFFFAA"/>
<stop offset="0.85" stop-color="#FDF9A3"/>
<stop offset="0.9" stop-color="#F8EB8F"/>
<stop offset="0.96" stop-color="#EFD470"/>
<stop offset="1" stop-color="#E9C156"/>
</linearGradient>
</defs>
</svg>
