<svg width="177" height="47" viewBox="0 0 177 47" fill="none" xmlns="http://www.w3.org/2000/svg">
<rect x="0.5" width="176" height="47" rx="23.5" fill="#FFC500" fill-opacity="0.1"/>
<path d="M32.78 18.34V16.54H43.44V18.34H39.1V31H37.14V18.34H32.78ZM42.8684 26.1C42.8684 23.08 45.0284 20.96 47.9684 20.96C50.8884 20.96 53.0484 23.08 53.0484 26.1C53.0484 29.12 50.8884 31.24 47.9684 31.24C45.0284 31.24 42.8684 29.12 42.8684 26.1ZM44.7684 26.1C44.7684 28.14 46.0684 29.56 47.9684 29.56C49.8484 29.56 51.1684 28.14 51.1684 26.1C51.1684 24.06 49.8484 22.64 47.9684 22.64C46.0684 22.64 44.7684 24.06 44.7684 26.1ZM61.6552 21.22H63.5152V31H61.8352L61.6352 29.52C61.0752 30.54 59.7752 31.24 58.3352 31.24C56.0552 31.24 54.7752 29.7 54.7752 27.3V21.22H56.6552V26.68C56.6552 28.78 57.5552 29.58 58.9952 29.58C60.7152 29.58 61.6552 28.48 61.6552 26.38V21.22ZM69.0028 31H67.1228V22.8H65.2028V21.22H67.1228V18.16H69.0028V21.22H70.9228V22.8H69.0028V31ZM80.8188 31L76.8788 21.22H78.8788L81.0188 26.68C81.3588 27.6 81.6388 28.42 81.7988 29.02C81.9588 28.38 82.2788 27.54 82.6188 26.68L84.7988 21.22H86.7588L82.6788 31H80.8188ZM87.1653 26.1C87.1653 23.08 89.3253 20.96 92.2653 20.96C95.1853 20.96 97.3453 23.08 97.3453 26.1C97.3453 29.12 95.1853 31.24 92.2653 31.24C89.3253 31.24 87.1653 29.12 87.1653 26.1ZM89.0653 26.1C89.0653 28.14 90.3653 29.56 92.2653 29.56C94.1453 29.56 95.4653 28.14 95.4653 26.1C95.4653 24.06 94.1453 22.64 92.2653 22.64C90.3653 22.64 89.0653 24.06 89.0653 26.1ZM100.346 18.9C99.6664 18.9 99.1064 18.34 99.1064 17.66C99.1064 16.96 99.6664 16.42 100.346 16.42C101.026 16.42 101.586 16.96 101.586 17.66C101.586 18.34 101.026 18.9 100.346 18.9ZM99.4264 31V21.22H101.306V31H99.4264ZM109.636 21.14V22.86H108.796C107.016 22.86 105.916 23.94 105.916 25.82V31H104.036V21.24H105.796L105.916 22.72C106.316 21.7 107.296 21.02 108.636 21.02C108.976 21.02 109.256 21.06 109.636 21.14Z" fill="#FFC500"/>
<path d="M137.5 18.5L126.5 29.5" stroke="#FFC500" stroke-width="1.5" stroke-linecap="round"/>
<path d="M131.5 17.6315C131.5 17.6315 137.134 17.1566 137.989 18.0116C138.843 18.8665 138.368 24.5 138.368 24.5" stroke="#FFC500" stroke-width="1.5" stroke-linecap="round" stroke-linejoin="round"/>
</svg>
