<svg width="205" height="47" viewBox="0 0 205 47" fill="none" xmlns="http://www.w3.org/2000/svg">
<rect width="205" height="47" rx="23.5" fill="#FFC500" fill-opacity="0.1"/>
<path d="M37.28 31.24C34.44 31.24 32.72 29.12 32.72 26.14C32.72 23.14 34.46 20.94 37.36 20.94C38.86 20.94 40.12 21.6 40.78 22.8V16.28H42.64V31H40.96L40.8 29.22C40.16 30.56 38.84 31.24 37.28 31.24ZM37.66 29.54C39.58 29.54 40.76 28.12 40.76 26.08C40.76 24.08 39.58 22.64 37.66 22.64C35.74 22.64 34.62 24.08 34.62 26.08C34.62 28.1 35.74 29.54 37.66 29.54ZM49.5722 31.24C46.6922 31.24 44.7122 29.16 44.7122 26.12C44.7122 23.06 46.6522 20.94 49.4922 20.94C52.2722 20.94 54.0922 22.86 54.0922 25.76V26.46L46.5322 26.48C46.6722 28.54 47.7522 29.68 49.6122 29.68C51.0722 29.68 52.0322 29.08 52.3522 27.96H54.1122C53.6322 30.06 51.9922 31.24 49.5722 31.24ZM49.4922 22.52C47.8522 22.52 46.8122 23.5 46.5722 25.22H52.2122C52.2122 23.6 51.1522 22.52 49.4922 22.52ZM58.6 31L54.66 21.22H56.66L58.8 26.68C59.14 27.6 59.42 28.42 59.58 29.02C59.74 28.38 60.06 27.54 60.4 26.68L62.58 21.22H64.54L60.46 31H58.6ZM69.8066 31.24C66.9266 31.24 64.9466 29.16 64.9466 26.12C64.9466 23.06 66.8866 20.94 69.7266 20.94C72.5066 20.94 74.3266 22.86 74.3266 25.76V26.46L66.7666 26.48C66.9066 28.54 67.9866 29.68 69.8466 29.68C71.3066 29.68 72.2666 29.08 72.5866 27.96H74.3466C73.8666 30.06 72.2266 31.24 69.8066 31.24ZM69.7266 22.52C68.0866 22.52 67.0466 23.5 66.8066 25.22H72.4466C72.4466 23.6 71.3866 22.52 69.7266 22.52ZM78.3464 31H76.4664V16.28H78.3464V31ZM80.4739 26.1C80.4739 23.08 82.6339 20.96 85.5739 20.96C88.4939 20.96 90.6539 23.08 90.6539 26.1C90.6539 29.12 88.4939 31.24 85.5739 31.24C82.6339 31.24 80.4739 29.12 80.4739 26.1ZM82.3739 26.1C82.3739 28.14 83.6739 29.56 85.5739 29.56C87.4539 29.56 88.7739 28.14 88.7739 26.1C88.7739 24.06 87.4539 22.64 85.5739 22.64C83.6739 22.64 82.3739 24.06 82.3739 26.1ZM92.735 35.38V21.22H94.435L94.575 22.98C95.235 21.64 96.555 20.94 98.115 20.94C100.915 20.94 102.655 23.04 102.655 26.04C102.655 29.02 101.015 31.26 98.115 31.26C96.555 31.26 95.255 30.6 94.615 29.4V35.38H92.735ZM94.635 26.12C94.635 28.12 95.795 29.56 97.715 29.56C99.635 29.56 100.775 28.12 100.775 26.12C100.775 24.1 99.635 22.66 97.715 22.66C95.795 22.66 94.635 24.08 94.635 26.12ZM104.727 35.38V21.22H106.427L106.567 22.98C107.227 21.64 108.547 20.94 110.107 20.94C112.907 20.94 114.647 23.04 114.647 26.04C114.647 29.02 113.007 31.26 110.107 31.26C108.547 31.26 107.247 30.6 106.607 29.4V35.38H104.727ZM106.627 26.12C106.627 28.12 107.787 29.56 109.707 29.56C111.627 29.56 112.767 28.12 112.767 26.12C112.767 24.1 111.627 22.66 109.707 22.66C107.787 22.66 106.627 24.08 106.627 26.12ZM120.939 31.24C118.059 31.24 116.079 29.16 116.079 26.12C116.079 23.06 118.019 20.94 120.859 20.94C123.639 20.94 125.459 22.86 125.459 25.76V26.46L117.899 26.48C118.039 28.54 119.119 29.68 120.979 29.68C122.439 29.68 123.399 29.08 123.719 27.96H125.479C124.999 30.06 123.359 31.24 120.939 31.24ZM120.859 22.52C119.219 22.52 118.179 23.5 117.939 25.22H123.579C123.579 23.6 122.519 22.52 120.859 22.52ZM129.439 31H127.559V21.22H129.239L129.419 22.5C129.919 21.58 130.959 20.94 132.339 20.94C133.859 20.94 134.939 21.7 135.439 22.92C135.899 21.7 137.079 20.94 138.599 20.94C140.839 20.94 142.199 22.34 142.199 24.6V31H140.359V25.06C140.359 23.52 139.499 22.64 138.179 22.64C136.759 22.64 135.819 23.64 135.819 25.2V31H133.959V25.04C133.959 23.5 133.119 22.66 131.799 22.66C130.379 22.66 129.439 23.64 129.439 25.2V31ZM149.025 31.24C146.145 31.24 144.165 29.16 144.165 26.12C144.165 23.06 146.105 20.94 148.945 20.94C151.725 20.94 153.545 22.86 153.545 25.76V26.46L145.985 26.48C146.125 28.54 147.205 29.68 149.065 29.68C150.525 29.68 151.485 29.08 151.805 27.96H153.565C153.085 30.06 151.445 31.24 149.025 31.24ZM148.945 22.52C147.305 22.52 146.265 23.5 146.025 25.22H151.665C151.665 23.6 150.605 22.52 148.945 22.52ZM157.525 31H155.645V21.22H157.345L157.545 22.72C158.165 21.6 159.405 20.94 160.785 20.94C163.365 20.94 164.545 22.52 164.545 25.02V31H162.665V25.44C162.665 23.46 161.745 22.66 160.305 22.66C158.545 22.66 157.525 23.92 157.525 25.82V31ZM169.909 31H168.029V22.8H166.109V21.22H168.029V18.16H169.909V21.22H171.829V22.8H169.909V31Z" fill="#FFC500"/>
</svg>
