<svg width="107" height="47" viewBox="0 0 107 47" fill="none" xmlns="http://www.w3.org/2000/svg">
<rect width="107" height="47" rx="23.5" fill="#FFC500" fill-opacity="0.1"/>
<path d="M34.28 18.9C33.6 18.9 33.04 18.34 33.04 17.66C33.04 16.96 33.6 16.42 34.28 16.42C34.96 16.42 35.52 16.96 35.52 17.66C35.52 18.34 34.96 18.9 34.28 18.9ZM33.36 31V21.22H35.24V31H33.36ZM39.8494 31H37.9694V21.22H39.6694L39.8694 22.72C40.4894 21.6 41.7294 20.94 43.1094 20.94C45.6894 20.94 46.8694 22.52 46.8694 25.02V31H44.9894V25.44C44.9894 23.46 44.0694 22.66 42.6294 22.66C40.8694 22.66 39.8494 23.92 39.8494 25.82V31ZM48.4333 21.22H49.8733V19.66C49.8733 17.26 51.1933 16.28 52.9733 16.28C53.3333 16.28 53.7533 16.3 54.1333 16.36V17.98H53.2933C52.0733 17.98 51.7533 18.6 51.7533 19.66V21.22H54.0733V22.8H51.7533V31H49.8733V22.8H48.4333V21.22ZM54.888 26.1C54.888 23.08 57.048 20.96 59.988 20.96C62.908 20.96 65.068 23.08 65.068 26.1C65.068 29.12 62.908 31.24 59.988 31.24C57.048 31.24 54.888 29.12 54.888 26.1ZM56.788 26.1C56.788 28.14 58.088 29.56 59.988 29.56C61.868 29.56 63.188 28.14 63.188 26.1C63.188 24.06 61.868 22.64 59.988 22.64C58.088 22.64 56.788 24.06 56.788 26.1ZM66.3491 28.16H68.1491C68.1491 29.16 68.9091 29.76 70.1491 29.76C71.4691 29.76 72.2291 29.22 72.2291 28.32C72.2291 27.66 71.9091 27.26 70.8891 27L69.1691 26.6C67.4291 26.18 66.6091 25.32 66.6091 23.88C66.6091 22.08 68.1291 20.94 70.2891 20.94C72.4291 20.94 73.8291 22.14 73.8691 24H72.0691C72.0291 23.02 71.3691 22.4 70.2291 22.4C69.0491 22.4 68.3891 22.92 68.3891 23.82C68.3891 24.48 68.8691 24.92 69.8291 25.16L71.5491 25.58C73.2091 25.98 74.0291 26.74 74.0291 28.2C74.0291 30.06 72.4291 31.24 70.1091 31.24C67.8091 31.24 66.3491 30.02 66.3491 28.16Z" fill="#FFC500"/>
</svg>
