<svg width="158" height="47" viewBox="0 0 158 47" fill="none" xmlns="http://www.w3.org/2000/svg">
<rect width="158" height="47" rx="23.5" fill="#FFC500" fill-opacity="0.1"/>
<path d="M34.28 18.9C33.6 18.9 33.04 18.34 33.04 17.66C33.04 16.96 33.6 16.42 34.28 16.42C34.96 16.42 35.52 16.96 35.52 17.66C35.52 18.34 34.96 18.9 34.28 18.9ZM33.36 31V21.22H35.24V31H33.36ZM39.8494 31H37.9694V21.22H39.6694L39.8694 22.72C40.4894 21.6 41.7294 20.94 43.1094 20.94C45.6894 20.94 46.8694 22.52 46.8694 25.02V31H44.9894V25.44C44.9894 23.46 44.0694 22.66 42.6294 22.66C40.8694 22.66 39.8494 23.92 39.8494 25.82V31ZM51.3533 31H49.4733V21.22H51.1733L51.3733 22.72C51.9933 21.6 53.2333 20.94 54.6133 20.94C57.1933 20.94 58.3733 22.52 58.3733 25.02V31H56.4933V25.44C56.4933 23.46 55.5733 22.66 54.1333 22.66C52.3733 22.66 51.3533 23.92 51.3533 25.82V31ZM60.3372 26.1C60.3372 23.08 62.4972 20.96 65.4372 20.96C68.3572 20.96 70.5172 23.08 70.5172 26.1C70.5172 29.12 68.3572 31.24 65.4372 31.24C62.4972 31.24 60.3372 29.12 60.3372 26.1ZM62.2372 26.1C62.2372 28.14 63.5372 29.56 65.4372 29.56C67.3172 29.56 68.6372 28.14 68.6372 26.1C68.6372 24.06 67.3172 22.64 65.4372 22.64C63.5372 22.64 62.2372 24.06 62.2372 26.1ZM74.8891 31L70.9491 21.22H72.9491L75.0891 26.68C75.4291 27.6 75.7091 28.42 75.8691 29.02C76.0291 28.38 76.3491 27.54 76.6891 26.68L78.8691 21.22H80.8291L76.7491 31H74.8891ZM84.7356 31.24C82.6356 31.24 81.3956 30.06 81.3956 28.28C81.3956 26.48 82.7356 25.36 85.0356 25.18L88.1156 24.94V24.66C88.1156 23.02 87.1356 22.44 85.8156 22.44C84.2356 22.44 83.3356 23.14 83.3356 24.32H81.6956C81.6956 22.28 83.3756 20.94 85.8956 20.94C88.3156 20.94 89.9556 22.22 89.9556 24.86V31H88.3556L88.1556 29.42C87.6556 30.54 86.3156 31.24 84.7356 31.24ZM85.2756 29.78C87.0556 29.78 88.1356 28.62 88.1356 26.78V26.26L85.6356 26.46C83.9756 26.62 83.2956 27.26 83.2956 28.22C83.2956 29.26 84.0556 29.78 85.2756 29.78ZM95.163 31H93.283V22.8H91.363V21.22H93.283V18.16H95.163V21.22H97.083V22.8H95.163V31ZM99.6902 18.9C99.0102 18.9 98.4502 18.34 98.4502 17.66C98.4502 16.96 99.0102 16.42 99.6902 16.42C100.37 16.42 100.93 16.96 100.93 17.66C100.93 18.34 100.37 18.9 99.6902 18.9ZM98.7702 31V21.22H100.65V31H98.7702ZM102.74 26.1C102.74 23.08 104.9 20.96 107.84 20.96C110.76 20.96 112.92 23.08 112.92 26.1C112.92 29.12 110.76 31.24 107.84 31.24C104.9 31.24 102.74 29.12 102.74 26.1ZM104.64 26.1C104.64 28.14 105.94 29.56 107.84 29.56C109.72 29.56 111.04 28.14 111.04 26.1C111.04 24.06 109.72 22.64 107.84 22.64C105.94 22.64 104.64 24.06 104.64 26.1ZM116.881 31H115.001V21.22H116.701L116.901 22.72C117.521 21.6 118.761 20.94 120.141 20.94C122.721 20.94 123.901 22.52 123.901 25.02V31H122.021V25.44C122.021 23.46 121.101 22.66 119.661 22.66C117.901 22.66 116.881 23.92 116.881 25.82V31Z" fill="#FFC500"/>
</svg>
