<svg width="450" height="113" viewBox="0 0 450 113" fill="none" xmlns="http://www.w3.org/2000/svg">
<path d="M2.34082 1.28476H31.9522C63.5533 1.28476 67.1815 27.736 43.5393 33.7051C74.5551 38.8549 73.9699 79 32.8885 79H2.34082V78.7659C6.78838 78.7659 6.78838 73.7332 6.78838 66.4766V13.8081C6.78838 6.55161 6.78838 1.51884 2.34082 1.51884V1.28476ZM17.3221 13.8081V33.237H33.5908C53.1366 33.237 51.1469 2.22109 30.7818 2.22109H21.7696C17.3221 2.22109 17.3221 6.55161 17.3221 13.8081ZM21.7696 78.0637H30.7818C61.3295 78.0637 60.1591 34.1733 33.5908 34.1733H17.3221V66.4766C17.3221 73.7332 17.3221 78.0637 21.7696 78.0637ZM101.08 79C62.9251 79 62.808 19.6602 101.08 19.6602C139.353 19.6602 139.119 79 101.08 79ZM101.08 78.0637C125.542 78.0637 124.84 20.5965 101.08 20.5965C77.2041 20.5965 76.7359 78.0637 101.08 78.0637ZM189.244 20.4795V66.4766C189.244 73.7332 189.244 78.7659 193.692 78.7659V79C185.031 79 178.711 79 178.711 66.7107C174.731 75.3717 167.124 79 159.633 79C149.216 79 138.917 71.7435 138.917 60.6246V43.0684C138.917 35.8119 138.917 30.7791 134.469 30.7791V30.545L149.216 20.4795H149.45V60.6246C149.45 72.7968 155.185 77.5955 161.623 77.5955C169.581 77.5955 178.711 69.9878 178.711 59.9223V43.0684C178.711 35.8119 178.711 30.7791 174.263 30.7791V30.545L189.01 20.4795H189.244ZM215.684 5.3812V20.3624H227.154V21.2988H215.684V62.8483C215.684 70.9242 220.014 75.4888 224.696 75.4888C228.558 75.4888 232.655 72.4457 234.878 65.5403L235.698 65.8914C233.357 74.4354 225.749 79.2341 218.727 79.2341C211.704 79.2341 205.15 74.3184 205.15 63.0824V21.2988H198.362V20.3624C208.076 20.3624 214.396 13.5741 215.45 5.3812H215.684ZM247.149 1.28476C255.811 1.28476 255.811 14.2763 247.149 14.2763C238.488 14.2763 238.488 1.28476 247.149 1.28476ZM242.585 66.4766V43.0684C242.585 35.8119 242.585 30.7791 238.137 30.7791V30.545L252.884 20.4795H253.119V66.4766C253.119 73.7332 253.119 78.7659 257.566 78.7659V79H238.137V78.7659C242.585 78.7659 242.585 73.7332 242.585 66.4766ZM307.666 95.7369V71.7435C304.038 75.7229 299.239 79 291.866 79C252.189 79 252.774 20.3624 291.866 20.3624C299.239 20.3624 304.155 23.6396 307.783 27.619L317.966 20.3624H318.2V95.7369C318.2 102.993 318.2 108.026 322.647 108.026V108.26H303.219V108.026C307.666 108.026 307.666 102.993 307.666 95.7369ZM307.666 65.7744V33.8222C304.74 26.3315 299.356 21.2988 291.866 21.2988C266.468 21.2988 266.702 78.0637 291.866 78.0637C299.356 78.0637 304.74 73.265 307.666 65.7744ZM382.065 20.4795V66.4766C382.065 73.7332 382.065 78.7659 386.512 78.7659V79C377.851 79 371.531 79 371.531 66.7107C367.552 75.3717 359.944 79 352.453 79C342.037 79 331.737 71.7435 331.737 60.6246V43.0684C331.737 35.8119 331.737 30.7791 327.29 30.7791V30.545L342.037 20.4795H342.271V60.6246C342.271 72.7968 348.006 77.5955 354.443 77.5955C362.402 77.5955 371.531 69.9878 371.531 59.9223V43.0684C371.531 35.8119 371.531 30.7791 367.084 30.7791V30.545L381.831 20.4795H382.065ZM422.508 79.117C382.948 79.117 383.299 20.4795 422.859 20.4795C433.627 20.4795 445.214 28.2042 447.087 42.1321H404.25C401.909 57.2304 408.112 75.3717 422.157 77.2444C429.296 78.1807 437.606 74.6695 444.746 67.0618L445.448 67.647C437.255 76.3081 429.413 79.117 422.508 79.117ZM404.367 41.1958H437.021C437.606 34.0562 434.914 21.4158 422.859 21.4158C412.325 21.4158 406.239 30.7791 404.367 41.1958Z" fill="white"/>
<path d="M423.772 64.5427C422.936 66.3534 422.036 68.2141 421.037 70.0498C419.926 72.1353 418.665 74.1958 417.216 76.1314C414.531 79.8652 411.135 83.0746 407.426 85.722C406.901 86.1091 406.352 86.4713 405.802 86.8334C404.454 87.7201 403.055 88.5068 401.631 89.2311C399.633 90.2551 397.598 91.1292 395.525 91.9035C391.391 93.452 387.145 94.5259 382.912 95.2752C374.395 96.7488 365.941 97.011 357.537 96.6738C349.12 96.2992 340.766 95.2627 332.586 93.7392C328.503 92.9774 324.444 92.1408 320.423 91.2416L308.435 88.4444C300.493 86.5587 292.6 84.6855 284.708 83.0371C268.911 79.7403 253.014 77.4426 236.992 76.2438C220.958 75.02 204.836 75.0699 188.702 75.7443C184.668 75.9316 180.634 76.1314 176.613 76.4561C172.567 76.7058 168.546 77.0555 164.525 77.4301C156.483 78.2293 148.453 79.1909 140.474 80.4147C124.514 82.9622 108.68 86.5837 93.1823 91.5913C85.4399 94.0639 77.7973 96.9486 70.2172 100.083C62.6621 103.242 55.2069 106.714 47.8516 110.41C51.3981 108.3 54.8822 106.04 58.5162 104.067C60.3269 103.055 62.1002 101.994 63.9359 101.02L69.443 98.1599C76.8233 94.451 84.316 90.9169 92.021 87.9324C99.7135 84.9103 107.506 82.138 115.411 79.8028C123.34 77.505 131.333 75.482 139.387 73.7712C147.454 72.0853 155.559 70.6617 163.701 69.5378C167.772 68.9883 171.856 68.4514 175.939 68.0268C180.01 67.5273 184.106 67.1651 188.19 66.7905C192.273 66.4034 196.382 66.1411 200.49 65.8789C204.599 65.6666 208.72 65.4793 212.828 65.4043C221.058 65.2045 229.312 65.242 237.554 65.6166C243.086 65.8664 248.631 66.2285 254.138 66.7405C256.848 66.9903 259.545 67.265 262.267 67.5897C270.472 68.5887 278.639 69.9 286.756 71.4235C291.764 72.3601 296.746 73.3965 301.704 74.458C312.806 76.8307 323.77 79.3532 334.622 81.3762C342.489 82.8498 350.306 83.9363 358.161 84.4982C360.134 84.6481 362.095 84.723 364.056 84.8354C366.004 84.8604 367.989 84.9353 369.937 84.9228C373.846 84.9353 377.717 84.7605 381.551 84.3733C384.411 84.0611 387.233 83.6241 389.993 83.0246C390.942 82.8123 391.866 82.5876 392.802 82.3503C396.449 81.4012 399.958 79.9901 403.23 78.2293C406.527 76.4561 409.511 74.1333 412.246 71.3985C414.968 68.6387 416.478 65.9498 419.814 61.8828C423.15 57.8157 427.63 57 427.63 57L425.707 60.7776L423.785 64.5552L423.772 64.5427Z" fill="url(#paint0_linear_393_99)"/>
<path d="M23.025 112.756C28.2324 107.387 34.1516 102.829 40.1832 98.5078L44.7912 95.3859C46.3272 94.3369 47.9257 93.4253 49.4991 92.4388C51.0726 91.4647 52.6586 90.5032 54.257 89.5791L59.1272 86.9566C60.7631 86.095 62.3741 85.1834 64.0225 84.3467L69.0301 82.0114L74.0502 79.6887C75.736 78.9519 77.4594 78.3026 79.1577 77.6032L84.2902 75.5802L86.8627 74.5812L89.4726 73.7195L99.9249 70.2729L110.552 67.5256C112.325 67.0885 114.086 66.564 115.872 66.2144L121.254 65.1779C124.851 64.541 128.422 63.7917 132.031 63.2548C135.653 62.7927 139.274 62.3806 142.883 61.981L148.303 61.3691L153.76 61.1068L164.649 60.6698C166.46 60.5699 168.283 60.6448 170.094 60.7072L175.539 60.8946C179.16 61.0444 182.782 61.1943 186.403 61.419C182.782 61.7562 179.173 62.0185 175.564 62.2807L170.156 62.6428C168.358 62.7552 166.56 62.8427 164.762 63.1174L154.01 64.3662L148.64 64.9531L143.308 65.8522C139.761 66.4516 136.202 67.0386 132.655 67.588C129.121 68.2374 125.612 69.099 122.091 69.8358L116.808 70.9472C115.048 71.3094 113.324 71.8589 111.576 72.2959L101.149 75.1057L90.8463 78.3775L88.2738 79.2017L85.7388 80.1508L80.6687 82.0489C78.9829 82.6733 77.272 83.2727 75.5862 83.9346L70.5911 86.0575L65.5959 88.1804C63.9351 88.9047 62.3116 89.7164 60.6757 90.4782C47.5885 96.7221 34.7885 103.803 23 112.769L23.025 112.756Z" fill="url(#paint1_linear_393_99)"/>
<defs>
<linearGradient id="paint0_linear_393_99" x1="232.247" y1="120.825" x2="249.467" y2="-40.3299" gradientUnits="userSpaceOnUse">
<stop stop-color="#E9C156"/>
<stop offset="0.04" stop-color="#B18539"/>
<stop offset="0.08" stop-color="#79481B"/>
<stop offset="0.1" stop-color="#633110"/>
<stop offset="0.13" stop-color="#6E3C13"/>
<stop offset="0.18" stop-color="#8D591D"/>
<stop offset="0.25" stop-color="#BE892D"/>
<stop offset="0.29" stop-color="#E1AB39"/>
<stop offset="0.31" stop-color="#E3B040"/>
<stop offset="0.41" stop-color="#EDCC66"/>
<stop offset="0.52" stop-color="#F4E283"/>
<stop offset="0.62" stop-color="#FAF299"/>
<stop offset="0.72" stop-color="#FDFBA5"/>
<stop offset="0.82" stop-color="#FFFFAA"/>
<stop offset="0.85" stop-color="#FDF9A3"/>
<stop offset="0.9" stop-color="#F8EB8F"/>
<stop offset="0.96" stop-color="#EFD470"/>
<stop offset="1" stop-color="#E9C156"/>
</linearGradient>
<linearGradient id="paint1_linear_393_99" x1="96.0412" y1="39.1283" x2="120.08" y2="172.099" gradientUnits="userSpaceOnUse">
<stop stop-color="#E9C156"/>
<stop offset="0.04" stop-color="#B18539"/>
<stop offset="0.08" stop-color="#79481B"/>
<stop offset="0.1" stop-color="#633110"/>
<stop offset="0.13" stop-color="#6E3C13"/>
<stop offset="0.18" stop-color="#8D591D"/>
<stop offset="0.25" stop-color="#BE892D"/>
<stop offset="0.29" stop-color="#E1AB39"/>
<stop offset="0.31" stop-color="#E3B040"/>
<stop offset="0.41" stop-color="#EDCC66"/>
<stop offset="0.52" stop-color="#F4E283"/>
<stop offset="0.62" stop-color="#FAF299"/>
<stop offset="0.72" stop-color="#FDFBA5"/>
<stop offset="0.82" stop-color="#FFFFAA"/>
<stop offset="0.85" stop-color="#FDF9A3"/>
<stop offset="0.9" stop-color="#F8EB8F"/>
<stop offset="0.96" stop-color="#EFD470"/>
<stop offset="1" stop-color="#E9C156"/>
</linearGradient>
</defs>
</svg>
