<svg width="137" height="8" viewBox="0 0 137 8" fill="none" xmlns="http://www.w3.org/2000/svg">
<path d="M132.5 7.0179C129.058 6.74599 130.139 6.17355 128.873 5.80147L130.62 5.64404C132.929 5.83724 136.467 6.17355 135.786 6.58141C135.564 6.65297 133.958 7.10376 132.5 7.02505V7.0179Z" fill="black"/>
<path d="M136.452 5.24264C136.127 5.24979 136.075 5.19264 135.749 5.19979L136.689 4.72119L136.452 5.24264Z" fill="black"/>
<path d="M126.305 6.0017L124.684 6.05177C124.306 6.0017 125.232 5.90871 125.18 5.84433L123.352 5.64404C125.831 5.82287 125.794 5.37938 126.312 6.0017H126.305Z" fill="black"/>
<path d="M104.884 3.44133C103.656 3.15511 105.824 2.9619 106.32 2.75439C107.349 2.79017 108.252 3.08356 107.431 3.29822C106.076 3.27675 105.528 3.41986 104.877 3.44133H104.884Z" fill="black"/>
<path d="M116.779 6.15918C117.393 5.69426 120.954 5.96606 120.591 5.52975C120.435 5.34378 120.28 5.15066 119.851 5.03621L118.06 5.28656C113.574 5.10059 119.925 4.71435 116.912 4.29235C116.261 4.3138 115.935 4.32096 115.661 4.39248C114.188 4.62852 114.618 4.74296 115.476 4.97899C111.198 5.04337 112.827 3.77735 110.495 3.7845C107.298 3.94901 109.266 4.7215 108.497 5.00045C108.534 4.22797 102.716 3.6343 98.0159 3.58423C93.6194 3.91325 88.6751 3.16223 83.4051 3.64145C81.155 3.54132 78.2166 3.36965 75.2633 3.30528C75.2633 3.26236 75.2633 3.2266 75.2633 3.18369C75.1893 3.21945 75.1449 3.25521 75.1449 3.29813C72.9762 2.74023 67.9061 3.54847 67.3806 2.67584L66.8551 2.75452C64.2201 2.8189 66.8551 2.43982 65.3377 2.261C62.9026 2.37544 59.6829 1.65302 58.432 2.38974C58.2322 2.33967 58.4986 2.30391 58.2988 2.25384L56.3225 2.38259C56.1893 2.56141 55.797 2.77598 56.1227 2.9691C55.6638 2.9548 55.2641 3.16938 54.6128 3.10501C52.9696 3.10501 54.4129 2.74023 53.8208 2.58287C49.6759 2.78314 44.9314 2.8332 40.9864 2.45411C40.9864 1.81753 36.4492 1.91767 34.5396 1.96058C30.7277 1.40268 26.3163 2.59716 23.4223 2.06072C25.1321 1.65302 28.0927 2.09649 28.4258 1.65302L27.6412 1.45275C25.8648 1.3097 23.0374 1.00929 21.979 1.47421C22.9634 1.7317 23.03 1.96059 23.3557 2.14656C22.5637 2.261 22.4305 2.43981 21.4461 2.50419C19.9954 2.55426 18.4188 2.46842 18.4188 2.14656C19.2108 2.03211 20.0694 2.14656 20.7873 2.1251C21.0538 1.76747 18.4854 1.74601 17.6268 1.63157C19.1368 2.44697 15.1251 2.78314 19.2034 3.30528L16.9681 3.46979C15.2583 4.1922 24.2069 4.17075 20.321 4.96469C19.9287 5.17927 20.4543 5.42245 19.1368 5.61558C19.8621 5.90883 21.3054 5.85877 21.8976 5.69426C22.882 6.26647 27.4858 5.75863 27.619 6.53111C31.3717 5.90883 33.1406 7.00319 36.5676 7.13909C40.9124 7.3036 38.0849 6.68132 39.3358 6.26647C41.5045 6.50966 43.6806 6.11627 44.9981 5.92314C46.1823 5.90884 46.9077 6.2021 46.1157 6.31654C54.9977 7.0175 64.0128 7.21777 72.8948 7.28214C76.5142 7.78998 79.8671 7.06757 83.4199 7.98311L82.8278 7.8329C82.7464 7.73991 83.1979 7.70415 83.5606 7.66839C82.9758 7.50388 82.4059 7.33222 81.8656 7.16771C82.9166 7.23208 83.9824 7.2893 85.0335 7.27499C86.1955 6.65987 91.0362 7.28214 92.5239 6.65986C98.3564 6.86729 95.9139 7.13193 101.798 7.40373C104.944 7.182 108.689 6.87445 112.419 6.95313C113.774 6.97458 115.003 7.26068 114.781 7.39658C116.402 7.34652 118.733 7.33937 120.406 7.35367C127.571 6.75285 119.481 6.22356 116.779 6.18064V6.15918Z" fill="black"/>
<path d="M45.5975 1.62447C45.8639 1.2667 44.0875 1.13073 43.4954 0.980469L42.7034 1.09496C40.7272 1.22376 40.6606 1.62447 41.9115 1.84629C42.3704 1.5386 44.4798 1.55291 45.5975 1.63162V1.62447Z" fill="black"/>
<path d="M61.5257 1.38135L61.2593 1.73901L63.6944 1.62456C63.6278 1.39566 62.4435 1.40996 61.5257 1.38135Z" fill="black"/>
<path d="M10.3805 4.0924C12.6824 4.1568 13.6076 4.50026 16.0427 4.38577L15.5838 3.73463C13.2153 3.44125 10.7209 3.01192 7.8861 3.02623C5.97648 3.69885 11.3057 3.48418 10.3805 4.0924Z" fill="black"/>
<path d="M15.3841 5.27197C11.1725 5.88019 6.23564 4.92851 2.68286 5.91598C3.66728 7.4401 9.79583 5.84441 12.49 6.32383C14.2664 6.14495 15.3248 5.99468 17.5601 5.8301C19.2033 5.51526 16.5091 5.35068 15.3915 5.27197H15.3841Z" fill="black"/>
<path d="M1.56513 5.20777C1.10623 5.19347 0.580715 5.27215 0.314256 5.30792C-0.0114155 5.43667 0.839772 5.55112 1.23946 5.65127C1.69836 5.66557 2.89002 5.33653 1.57253 5.20777H1.56513Z" fill="black"/>
</svg>
