<svg width="100" height="200" viewBox="0 0 100 200" fill="none" xmlns="http://www.w3.org/2000/svg">
<rect width="100" height="200" fill="#FF8C00"/>
<g clip-path="url(#clip0_90_579)">
<path d="M63.3653 43.4271C62.2673 46.423 62.5574 50.4039 62.9967 56.4301C63.2569 59.9983 63.5807 64.4386 63.667 69.7412C63.8636 81.8065 58.5272 91.6274 49.74 95.3714C44.6735 97.5296 38.7045 97.5562 32.4778 95.4493C28.2919 94.0321 24.0196 91.689 19.7071 88.4524C24.7652 97.1208 31.9282 103.554 40.5084 106.98C49.0983 110.41 58.0814 110.335 65.1542 106.775C78.3447 100.136 78.5666 91.5982 79.0079 74.5897C79.065 72.4088 79.1234 70.1539 79.2149 67.7498C79.4426 61.795 81.1323 57.5604 84.5324 54.4231C87.5186 51.6686 91.4735 50.1275 95.6614 48.4955C97.0741 47.9446 98.5262 47.3788 99.9999 46.7461V51.5193C99.0635 51.8996 98.1486 52.2558 97.2616 52.6017C89.2797 55.7124 84.0062 57.7674 83.6188 67.9179C83.528 70.2947 83.4696 72.5366 83.4138 74.7039C83.1886 83.3801 83.0102 90.2323 80.9818 96.0592C78.7399 102.501 74.4696 107.02 67.1353 110.712C58.9366 114.839 48.6356 114.97 38.8745 111.073C32.9379 108.701 27.5852 105.025 22.9639 100.141C17.9344 94.8257 14.0106 88.3051 11.3015 80.7599L9.4574 75.6233L14.3513 78.0398C14.3636 78.0463 14.3759 78.0521 14.3883 78.058C14.3902 78.0592 14.3928 78.0606 14.3947 78.0612C15.6828 78.6978 16.8663 79.2993 18.0116 79.8813C23.0002 82.4172 26.6048 84.2496 29.9147 84.3002C33.2344 84.3515 36.7494 82.5781 41.6673 78.3694C46.6968 74.066 45.9843 62.9753 40.1126 54.1512C36.569 48.8271 35.5418 42.7146 37.2932 37.3815C38.781 32.849 42.0942 29.4463 46.6202 27.7988C61.126 22.5201 67.1612 16.9482 72.8668 0H77.494C74.7986 8.26611 72.194 13.7122 69.0164 18.0026C63.6852 25.2006 56.8102 28.7799 48.1275 31.9399C44.8987 33.1151 42.5374 35.536 41.4797 38.7565C40.1528 42.797 40.9918 47.5183 43.7807 51.7094C46.9823 56.5203 49.0211 62.3531 49.3734 67.7115C49.7699 73.7332 48.0503 78.7075 44.5321 81.7177C38.7272 86.6855 34.3349 88.7755 29.8472 88.7068C29.1893 88.6964 28.5397 88.6399 27.8915 88.5439C35.3296 92.7201 42.3045 93.7486 48.0133 91.3166C55.118 88.2902 59.4278 80.05 59.2604 69.8126C59.1761 64.6352 58.8711 60.446 58.6018 56.7506C58.1385 50.3922 57.8037 45.7981 59.2273 41.9113C60.699 37.8947 63.8688 34.8859 70.1694 31.5253C83.4092 24.4635 90.4347 11.5981 96.5154 0H99.9999V2.84275C97.1539 8.25378 93.9289 14.1781 89.9033 19.6222C84.6674 26.7028 78.8904 31.8686 72.2426 35.4141C66.9977 38.2114 64.4255 40.5331 63.3653 43.4271Z" fill="#141E14"/>
<path d="M99.9999 19.4654V15.8252C97.6374 17.3838 95.4415 19.5835 94.6006 20.7755C92.9304 23.142 92.9959 26.0289 94.7758 28.4992C96.1417 30.3939 97.9644 31.2939 99.9999 31.1103V28.1481C99.4821 28.237 99.0097 28.1916 98.5717 28.0067C98.0591 27.7906 97.5939 27.3844 97.1598 26.7809C96.5557 25.9432 95.7316 24.2678 97.0008 22.4691C97.6023 21.6165 98.745 20.4816 99.9999 19.4654Z" fill="#141E14"/>
<path d="M89.3699 36.0105C88.7347 35.5056 88.6289 34.5816 89.1337 33.9464C89.8047 33.1022 90.6112 32.3897 91.532 31.8284C91.9486 31.5747 92.5176 31.2911 93.2314 31.3534C93.4747 31.3749 93.7038 31.4313 93.9153 31.5208C94.8899 31.9322 95.5012 33.034 95.5233 34.5148C95.5596 36.9929 94.6109 38.6417 92.9212 39.0388C91.5703 39.3561 90.1057 38.5963 89.5873 37.3089C89.4225 36.8994 89.3634 36.4614 89.3985 36.0325C89.3887 36.0254 89.3796 36.0183 89.3699 36.0105Z" fill="#141E14"/>
<path d="M74.2711 90.4223C73.0934 88.4276 70.8567 87.4822 69.376 86.856C69.3455 86.8431 69.3137 86.8301 69.2825 86.8165C68.5571 86.5108 67.6681 86.1494 66.6695 86.091C65.2835 86.0093 64.0331 86.5576 63.3251 87.5575C62.6484 88.5126 62.6373 89.582 62.6282 90.4411C62.6269 90.5767 62.6256 90.7117 62.6211 90.8447C62.538 93.2897 61.0365 95.2279 59.792 96.4232C59.5746 96.6321 59.2904 96.8372 59.0153 97.0364C58.2665 97.5775 57.334 98.2517 57.3126 99.4496C57.2905 100.682 58.3359 101.497 58.6798 101.764C60.3682 103.08 63.1538 102.569 67.1944 100.202C70.0839 98.5093 72.8021 96.3122 73.7611 95.1656C74.1874 94.6563 74.7656 93.8588 74.8675 92.8141C74.9434 92.0387 74.7377 91.2113 74.2711 90.4223ZM71.9436 92.5279C71.9319 92.648 71.8469 92.8757 71.5076 93.2806C70.8444 94.0736 68.3975 96.0922 65.7091 97.6671C62.5984 99.4898 61.0852 99.604 60.6219 99.5002C60.6621 99.471 60.7011 99.4431 60.7368 99.4171C61.0768 99.1712 61.4622 98.8928 61.8269 98.5424C64.1752 96.2876 65.4652 93.6602 65.5573 90.9447C65.5625 90.7889 65.5644 90.6312 65.5657 90.4723C65.5709 89.9986 65.5768 89.4613 65.7228 89.2556C65.8143 89.1265 66.1166 89.0012 66.4969 89.024C67.0335 89.0558 67.6428 89.3127 68.232 89.5625C69.7776 90.216 71.1078 90.8441 71.7418 91.9167C71.8826 92.1548 71.9579 92.3832 71.9436 92.5279Z" fill="#141E14"/>
<path d="M56.391 75.5574C56.1607 74.6645 55.7519 73.8742 55.3904 73.1767C55.0576 72.533 54.286 71.0444 52.8916 70.4559C52.5269 70.3015 52.1188 70.2093 51.6646 70.21L50.1442 70.2126L50.1987 71.7316C50.2987 74.5004 49.982 77.2607 49.2578 79.9348C48.9581 81.0398 48.5415 82.2643 47.7193 82.9631C47.306 83.3148 46.7428 83.5776 46.1465 83.8553C45.9687 83.9384 45.7902 84.0201 45.6118 84.1019C44.7079 84.5159 43.7735 84.9435 42.904 85.5203L41.2954 86.5884L42.7541 87.8544C45.3289 90.0878 49.8717 87.6058 50.7561 87.0861C53.5379 85.4509 55.6299 82.5971 56.3514 79.452C56.6772 78.0322 56.6908 76.7215 56.391 75.5574ZM53.4879 78.7947C53.1434 80.2968 52.3842 81.7108 51.3414 82.8593C51.6723 82.1442 51.904 81.4032 52.0935 80.703C52.5931 78.8589 52.9169 76.9778 53.0642 75.0805C53.2679 75.4938 53.4438 75.8935 53.5457 76.29C53.7267 76.9947 53.7072 77.8376 53.4879 78.7947Z" fill="#141E14"/>
<path d="M53.9001 48.8113C53.9137 48.5265 54.0299 48.1689 54.1525 47.7906C54.1785 47.7121 54.2038 47.6336 54.2291 47.5551C54.854 45.5851 55.1245 43.5391 55.033 41.4737C55.0051 40.8456 54.926 40.1773 54.5366 39.5414C54.2167 39.0177 53.7333 38.6245 53.1714 38.387C52.3992 38.0613 51.4798 38.0301 50.6304 38.3585C49.6558 38.7361 48.8401 39.5089 48.2055 40.6568C46.8948 43.0252 46.7501 46.0607 47.8084 48.9846C48.0368 49.6153 48.273 50.1954 48.515 50.7203C48.7577 51.2459 49.0062 51.717 49.2593 52.1297C50.7511 54.5611 52.2701 54.6649 53.2824 54.3242C54.1824 54.0212 54.5925 53.4469 54.7774 53.018C55.2563 51.9084 54.7242 50.7515 54.2972 49.821C54.1558 49.5134 53.9202 49.0014 53.9001 48.8113ZM51.4285 46.6668C51.4058 46.7381 51.3824 46.8102 51.3591 46.8822C51.1852 47.4162 50.9886 48.021 50.9633 48.7185C50.96 48.8139 50.9613 48.908 50.9678 49.0014C50.8393 48.6971 50.7063 48.359 50.5707 47.9846C50.2242 47.0269 50.0522 46.0458 50.0522 45.1088C50.0522 43.9973 50.2949 42.9487 50.7764 42.0785C51.0599 41.5652 51.385 41.2168 51.6913 41.0987C51.8198 41.0487 51.9788 41.0669 52.0397 41.0967C52.0599 41.1551 52.0845 41.2934 52.0981 41.6035C52.1741 43.3231 51.9489 45.0264 51.4285 46.6668Z" fill="#141E14"/>
<path d="M76.0211 18.031C75.9069 17.9538 75.7914 17.8928 75.6765 17.8442C75.0802 17.5924 74.5131 17.693 74.3035 17.73C70.8832 18.3347 69.065 21.073 67.461 23.4888L67.2839 23.7548C66.0737 25.573 64.8739 26.7345 63.3945 27.5222L61.05 28.77L63.4658 29.8725C65.3119 30.716 67.3656 30.6382 69.4096 29.6519C73.2464 27.8013 76.1891 23.1974 76.838 20.5857C77.1054 19.5118 76.7997 18.5566 76.0211 18.031ZM68.2708 27.2906C68.0444 27.3996 67.8205 27.4917 67.5999 27.5677C68.2494 26.8915 68.8665 26.1103 69.4667 25.2077L69.6451 24.939C70.9513 22.9723 72.1914 21.1041 74.1374 20.4682C73.3762 22.629 70.9987 25.974 68.2708 27.2906Z" fill="#141E14"/>
<path d="M88.0611 0C87.8995 0.564528 87.6062 1.15696 87.1669 1.8026C86.1897 3.23922 84.7459 3.89589 84.1814 3.7168C84.1717 3.7142 84.1626 3.71031 84.1529 3.70642C83.8284 3.5695 83.6305 2.88104 83.6467 1.93237C83.6571 1.32891 83.7694 0.674189 83.9575 0H81.253C81.1135 0.641096 81.0317 1.27505 81.0214 1.8876C80.9688 4.98666 82.4813 5.93208 83.3872 6.21954C85.5214 6.89632 87.9962 5.2527 89.3381 3.2788C90.024 2.26979 90.4626 1.31334 90.6793 0.353641C90.7059 0.235544 90.7293 0.117448 90.7494 0L88.0611 0Z" fill="#141E14"/>
<path d="M54.9116 151.971C55.336 150.644 55.6968 149.497 56.0712 148.354C56.3548 147.489 56.7402 146.671 57.3475 145.983C58.4377 144.748 59.6874 144.992 60.176 146.561C60.6108 147.957 60.7529 149.411 60.8106 150.864C60.9158 153.492 60.9813 156.123 61.0371 158.754C61.052 159.44 61.2084 160.021 61.5822 160.625C63.061 163.017 63.364 165.578 62.1947 168.164C61.6879 169.284 61.1993 170.363 61.1305 171.605C61.1033 172.095 60.9534 172.613 60.3175 172.529C59.6829 172.445 59.7367 171.909 59.753 171.421C59.7919 170.276 60.0021 169.23 60.5965 168.178C62.8202 164.244 60.5706 159.476 56.1419 158.596C55.5514 158.478 54.7935 158.189 54.3886 158.804C53.9656 159.446 54.5768 159.991 54.9623 160.452C55.5145 161.113 56.153 161.702 56.7571 162.32C57.0731 162.642 57.3852 162.991 57.0231 163.439C56.663 163.884 56.2289 163.708 55.8843 163.405C55.1238 162.736 54.338 163.002 53.5613 163.309C51.9164 163.958 50.8853 165.175 50.3519 166.847C50.1904 167.353 50.0788 168.08 49.3267 167.847C48.4935 167.59 48.8621 166.868 49.0269 166.347C49.6648 164.324 50.9359 162.832 52.9364 162.063C53.684 161.775 53.9844 161.52 53.4302 160.747C52.8151 159.891 52.4057 158.916 53.0863 157.905C53.7943 156.854 54.8948 156.932 55.9661 157.095C56.9413 157.243 57.8855 157.528 58.7504 158.015C59.3818 158.371 59.5849 158.163 59.5797 157.494C59.5557 154.272 59.4519 151.054 59.0398 147.855C58.997 147.525 59.0165 147.033 58.6258 146.958C58.2073 146.878 58.1139 147.369 57.9601 147.664C56.9102 149.675 56.493 151.881 56.0193 154.069C55.8928 154.652 56.1633 154.843 56.6773 154.923C57.136 154.994 57.5604 155.214 57.454 155.759C57.3359 156.362 56.8336 156.36 56.3295 156.304C55.7059 156.237 55.0771 156.217 54.4522 156.155C53.4374 156.053 52.708 156.233 52.2421 157.358C51.7451 158.557 50.5992 158.831 49.4876 158.173C48.9225 157.838 48.6246 157.803 48.1133 158.308C46.9992 159.41 45.4088 159.057 44.6872 157.651C44.4945 157.276 44.3744 156.892 44.7547 156.584C45.146 156.267 45.486 156.465 45.7747 156.789C46.1089 157.164 46.4113 157.706 47.0206 157.329C47.5533 156.999 47.5942 156.406 47.5144 155.848C47.3976 155.033 47.0887 154.275 46.1881 154.094C45.2504 153.906 44.4938 154.305 43.9897 155.119C43.503 155.905 43.5692 156.781 43.6749 157.642C44.2207 162.087 44.3972 166.562 44.7956 171.019C44.8059 171.136 44.8072 171.254 44.8072 171.372C44.8072 171.889 44.852 172.509 44.1382 172.521C43.4595 172.532 43.405 171.911 43.357 171.401C43.261 170.385 43.2006 169.366 43.1176 168.348C42.8178 164.671 42.6523 160.984 42.1916 157.317C41.873 154.784 43.1117 153.124 45.5567 152.588C46.081 152.473 46.3769 152.242 46.6176 151.793C46.8188 151.418 47.0491 150.945 47.393 150.782C48.6986 150.161 48.5785 149.086 48.4131 147.983C48.2943 147.188 48.4111 146.412 48.5513 145.642C48.6739 144.969 48.9257 144.33 49.6791 144.122C50.4681 143.904 51.0488 144.308 51.5439 144.854C52.2116 145.591 52.6698 146.467 53.0539 147.371C53.6755 148.835 54.2478 150.32 54.911 151.971L54.9116 151.971ZM49.7939 147.319C49.9101 148.811 49.8114 150.291 51.285 151.224C51.6419 151.45 51.8437 151.973 52.0339 152.397C52.2733 152.93 52.4439 153.497 52.6127 154.059C52.7677 154.576 53.1253 154.742 53.6028 154.65C54.2563 154.524 53.9656 154.052 53.8624 153.721C53.1376 151.402 52.429 149.072 51.2344 146.936C50.9801 146.481 50.7478 145.663 50.2196 145.816C49.6271 145.987 49.8692 146.826 49.7939 147.319ZM51.3259 155.324C51.2584 154.098 50.9288 152.947 50.0995 152C49.6836 151.525 49.1262 151.282 48.5396 151.695C48.0166 152.063 47.4683 152.666 47.8557 153.244C48.4326 154.105 48.7129 155.072 49.184 155.957C49.4656 156.487 49.8964 157.127 50.6225 156.921C51.3623 156.711 51.2734 155.954 51.3266 155.325L51.3259 155.324Z" fill="#141E14"/>
<path d="M52.5018 180C53.8995 180 55.0325 178.867 55.0325 177.469C55.0325 176.071 53.8995 174.938 52.5018 174.938C51.1042 174.938 49.9712 176.071 49.9712 177.469C49.9712 178.867 51.1042 180 52.5018 180Z" fill="#141E14"/>
</g>
<defs>
<clipPath id="clip0_90_579">
<rect width="90.5425" height="180" fill="white" transform="translate(9.45752)"/>
</clipPath>
</defs>
</svg>
