<svg width="100" height="200" viewBox="0 0 100 200" fill="none" xmlns="http://www.w3.org/2000/svg">
<rect width="100" height="200" fill="#FF0000"/>
<g clip-path="url(#clip0_90_595)">
<path d="M56.5333 168.267H43.5333V199.933H56.5333V168.267Z" fill="#FF8C00"/>
<path d="M56.5333 66.7998H43.5333V98.4665H56.5333V66.7998Z" fill="#FF8C00"/>
<path d="M67.3333 152.399V158.933C67.3333 164.087 63.1546 168.266 57.9999 168.266H42.0666C36.9119 168.266 32.7333 164.087 32.7333 158.933V152.399H67.3333Z" fill="#FF8C00"/>
<path d="M32.7333 114V107.467C32.7333 102.312 36.9119 98.1338 42.0666 98.1338H57.9999C63.1546 98.1338 67.3333 102.312 67.3333 107.467V114H32.7333Z" fill="#FF8C00"/>
<path d="M67.3333 146.6V147.133H32.7333V146.6C32.7333 138.131 39.5979 131.267 48.0666 131.267H51.9999C60.4686 131.267 67.3333 138.131 67.3333 146.6Z" fill="#FF8C00"/>
<path d="M92.838 85.5523V86.0003H63.7627V85.5523C63.7627 78.4363 69.5314 72.667 76.648 72.667H79.9534C87.0694 72.667 92.8387 78.4357 92.8387 85.5523H92.838Z" fill="#FF8C00"/>
<path d="M36.238 85.8853V86.3333H7.16199V85.8853C7.16199 78.7693 12.9307 73 20.0473 73H23.3527C30.4687 73 36.238 78.7687 36.238 85.8853Z" fill="#FF8C00"/>
<path d="M100 50.9326V66.7993H56.5333C56.5333 58.0366 63.6373 50.9326 72.4 50.9326H100Z" fill="#FF8C00"/>
<path d="M0 50.9326V66.7993H43.4667C43.4667 58.0366 36.3627 50.9326 27.6 50.9326H0Z" fill="#FF8C00"/>
<path d="M90.9333 0C90.8973 22.576 72.5846 40.8667 50 40.8667C27.4153 40.8667 9.10265 22.576 9.06665 0H90.9333Z" fill="#FF8C00"/>
<path d="M79.4 112.734C80.7992 112.734 81.9334 111.599 81.9334 110.2C81.9334 108.801 80.7992 107.667 79.4 107.667C78.0009 107.667 76.8667 108.801 76.8667 110.2C76.8667 111.599 78.0009 112.734 79.4 112.734Z" fill="#FF8C00"/>
<path d="M89.9334 120.267C91.3325 120.267 92.4667 119.133 92.4667 117.734C92.4667 116.334 91.3325 115.2 89.9334 115.2C88.5342 115.2 87.4 116.334 87.4 117.734C87.4 119.133 88.5342 120.267 89.9334 120.267Z" fill="#FF8C00"/>
<path d="M79.4 125.333C80.7992 125.333 81.9334 124.199 81.9334 122.8C81.9334 121.401 80.7992 120.267 79.4 120.267C78.0009 120.267 76.8667 121.401 76.8667 122.8C76.8667 124.199 78.0009 125.333 79.4 125.333Z" fill="#FF8C00"/>
<path d="M89.9334 132.866C91.3325 132.866 92.4667 131.732 92.4667 130.333C92.4667 128.934 91.3325 127.8 89.9334 127.8C88.5342 127.8 87.4 128.934 87.4 130.333C87.4 131.732 88.5342 132.866 89.9334 132.866Z" fill="#FF8C00"/>
<path d="M79.4 137.933C80.7992 137.933 81.9334 136.799 81.9334 135.4C81.9334 134 80.7992 132.866 79.4 132.866C78.0009 132.866 76.8667 134 76.8667 135.4C76.8667 136.799 78.0009 137.933 79.4 137.933Z" fill="#FF8C00"/>
<path d="M89.9334 145.466C91.3325 145.466 92.4667 144.332 92.4667 142.933C92.4667 141.534 91.3325 140.399 89.9334 140.399C88.5342 140.399 87.4 141.534 87.4 142.933C87.4 144.332 88.5342 145.466 89.9334 145.466Z" fill="#FF8C00"/>
<path d="M79.4 150.533C80.7992 150.533 81.9334 149.399 81.9334 148C81.9334 146.601 80.7992 145.467 79.4 145.467C78.0009 145.467 76.8667 146.601 76.8667 148C76.8667 149.399 78.0009 150.533 79.4 150.533Z" fill="#FF8C00"/>
<path d="M20.2 112.734C21.5991 112.734 22.7333 111.599 22.7333 110.2C22.7333 108.801 21.5991 107.667 20.2 107.667C18.8008 107.667 17.6666 108.801 17.6666 110.2C17.6666 111.599 18.8008 112.734 20.2 112.734Z" fill="#FF8C00"/>
<path d="M9.66663 120.267C11.0658 120.267 12.2 119.133 12.2 117.734C12.2 116.334 11.0658 115.2 9.66663 115.2C8.26751 115.2 7.1333 116.334 7.1333 117.734C7.1333 119.133 8.26751 120.267 9.66663 120.267Z" fill="#FF8C00"/>
<path d="M20.2 125.333C21.5991 125.333 22.7333 124.199 22.7333 122.8C22.7333 121.401 21.5991 120.267 20.2 120.267C18.8008 120.267 17.6666 121.401 17.6666 122.8C17.6666 124.199 18.8008 125.333 20.2 125.333Z" fill="#FF8C00"/>
<path d="M9.66663 132.866C11.0658 132.866 12.2 131.732 12.2 130.333C12.2 128.934 11.0658 127.8 9.66663 127.8C8.26751 127.8 7.1333 128.934 7.1333 130.333C7.1333 131.732 8.26751 132.866 9.66663 132.866Z" fill="#FF8C00"/>
<path d="M20.2 137.933C21.5991 137.933 22.7333 136.799 22.7333 135.4C22.7333 134 21.5991 132.866 20.2 132.866C18.8008 132.866 17.6666 134 17.6666 135.4C17.6666 136.799 18.8008 137.933 20.2 137.933Z" fill="#FF8C00"/>
<path d="M9.66663 145.466C11.0658 145.466 12.2 144.332 12.2 142.933C12.2 141.534 11.0658 140.399 9.66663 140.399C8.26751 140.399 7.1333 141.534 7.1333 142.933C7.1333 144.332 8.26751 145.466 9.66663 145.466Z" fill="#FF8C00"/>
<path d="M20.2 150.533C21.5991 150.533 22.7333 149.399 22.7333 148C22.7333 146.601 21.5991 145.467 20.2 145.467C18.8008 145.467 17.6666 146.601 17.6666 148C17.6666 149.399 18.8008 150.533 20.2 150.533Z" fill="#FF8C00"/>
<path d="M7.1647 186.118L9.3827 189.959L11.6 193.8H7.1647H2.72937L4.94737 189.959L7.1647 186.118Z" fill="#FF8C00"/>
<path d="M20.4313 186.118L22.6493 189.959L24.8666 193.8H20.4313H15.996L18.214 189.959L20.4313 186.118Z" fill="#FF8C00"/>
<path d="M13.798 187.933L11.5807 184.092L9.36267 180.251H13.798H18.2333L16.016 184.092L13.798 187.933Z" fill="#FF8C00"/>
<path d="M33.698 186.118L35.916 189.959L38.1334 193.8H33.698H29.2627L31.4807 189.959L33.698 186.118Z" fill="#FF8C00"/>
<path d="M27.0647 187.933L24.8474 184.092L22.6294 180.251H27.0647H31.5001L29.2827 184.092L27.0647 187.933Z" fill="#FF8C00"/>
<path d="M65.0313 186.118L67.2493 189.959L69.4666 193.8H65.0313H60.5959L62.8139 189.959L65.0313 186.118Z" fill="#FF8C00"/>
<path d="M78.298 186.118L80.516 189.959L82.7333 193.8H78.298H73.8627L76.0807 189.959L78.298 186.118Z" fill="#FF8C00"/>
<path d="M71.6647 187.933L69.4474 184.092L67.2294 180.251H71.6647H76.1L73.8827 184.092L71.6647 187.933Z" fill="#FF8C00"/>
<path d="M91.5646 186.118L93.7826 189.959L95.9999 193.8H91.5646H87.1293L89.3473 189.959L91.5646 186.118Z" fill="#FF8C00"/>
<path d="M84.9313 187.933L82.714 184.092L80.496 180.251H84.9313H89.3666L87.1493 184.092L84.9313 187.933Z" fill="#FF8C00"/>
</g>
<defs>
<clipPath id="clip0_90_595">
<rect width="100" height="199.933" fill="white"/>
</clipPath>
</defs>
</svg>
