<svg width="100" height="200" viewBox="0 0 100 200" fill="none" xmlns="http://www.w3.org/2000/svg">
<rect width="100" height="200" fill="#0A1E00"/>
<g clip-path="url(#clip0_90_634)">
<path d="M48.965 38.4373C49.9203 37.8003 51.7911 36.8848 53.1845 36.8848C55.931 36.8848 58.8372 38.9948 58.8372 40.0297C58.8372 40.9054 58.0808 41.2633 57.8422 42.4977C57.6035 43.6518 57.4842 44.7271 57.404 45.6824C61.0666 45.0851 61.9025 44.2889 62.4594 44.2889C64.3302 44.2889 67.953 46.5978 67.953 48.0311C67.953 49.1454 67.1966 49.9416 66.0425 49.9416C64.5297 49.9416 61.9423 49.3841 57.2847 49.5836C57.2847 52.6887 57.3642 57.3862 57.5233 60.2918C57.6029 61.6057 57.8415 63.5957 57.8415 65.6256C57.8415 68.6114 55.6519 71.1987 53.8607 71.1987C52.0695 71.1987 52.0297 69.4075 50.5169 67.9743C49.4026 66.8997 48.1284 66.1433 46.1781 65.1483L46.3372 64.551C48.4075 64.7897 50.2783 64.9488 51.6717 64.9488C52.269 64.9488 52.627 64.6306 52.6668 63.9935C52.7463 62.8791 52.7463 59.8536 52.7463 56.0318C48.5268 61.0077 41.5602 65.9438 33.1213 68.4516L32.7633 67.8941C40.8443 62.8785 46.7754 56.3898 49.9601 50.3785C48.0893 50.6967 46.5368 51.0951 45.2229 51.4531C43.2328 51.9708 41.5609 52.8067 40.4459 52.8067C38.8138 52.8067 36.5048 50.0603 35.9871 48.7066C35.6689 47.8707 35.5893 47.2734 35.5893 46.0397L35.9871 45.8408C37.181 46.8756 38.2562 47.5524 39.8884 47.5524C43.1923 47.5524 48.3671 46.7563 52.627 46.2385C52.5872 44.8451 52.5474 42.9346 52.4679 41.7002C52.4281 40.8245 52.269 40.3465 51.6717 39.8692C50.8756 39.1924 49.8407 39.0333 49.0048 38.8742L48.965 38.4367V38.4373Z" fill="white"/>
<path d="M44.0886 82.7973C44.8848 82.5189 45.6014 82.3193 47.0744 82.3193C50.2989 82.3193 53.8415 84.2299 53.8415 85.4245C53.8415 86.3399 53.3635 86.4195 52.6469 87.4947C52.3685 87.9329 52.0894 88.3307 51.7712 88.7689C53.6022 88.57 57.1057 88.0125 57.9814 87.6545C58.9367 87.2568 59.8522 86.1417 60.8479 86.1417C62.122 86.1417 66.5801 88.8882 66.5801 90.7994C66.5801 91.9535 64.7889 92.5508 64.2314 93.5061C62.48 96.4919 60.649 99.2383 58.6185 101.746C60.4495 103.179 61.7236 104.851 61.8429 106.921C61.9225 108.712 60.7286 109.946 59.1362 109.986C57.1859 110.066 56.708 108.912 54.7577 106.085C49.7022 110.981 43.5318 114.684 35.0531 117.192L34.6951 116.475C41.4224 113.052 47.4337 107.876 51.8919 102.383C49.5431 99.7163 47.1546 98.5217 44.4082 97.1687C41.5019 99.8356 38.1979 102.264 34.5758 103.856L34.1376 103.219C40.2285 97.646 46.1596 88.57 46.1596 85.8633C46.1596 85.0671 45.2839 83.9925 44.0495 83.2362L44.0893 82.7986L44.0886 82.7973ZM54.3195 99.1581C56.1107 96.5708 57.5439 94.0232 58.4992 91.5949C58.7378 90.9976 58.4992 90.759 57.9814 90.759C57.1455 90.759 54.399 91.4358 53.4033 91.8335C52.5674 92.1517 52.0099 92.3911 51.1341 92.3911C50.7357 92.3911 50.2186 92.0729 49.6214 91.5949C48.3075 93.1872 46.8749 94.8193 45.2826 96.3719C47.5517 96.8101 51.2137 97.7256 54.3188 99.1581H54.3195Z" fill="white"/>
<path d="M43.9096 128.512C44.7058 128.234 45.4224 128.034 46.8954 128.034C50.1198 128.034 53.6625 129.945 53.6625 131.139C53.6625 132.055 53.1447 132.134 52.4679 133.21C52.0304 133.926 51.5126 134.683 50.9551 135.399C52.4679 135.28 56.2094 134.683 57.1653 134.285C58.1206 133.887 59.0361 132.772 60.0318 132.772C61.3059 132.772 66.1625 135.161 66.1625 137.071C66.1625 138.385 64.4906 138.862 63.7342 140.136C57.6433 150.407 49.4032 158.408 35.4707 162.906L35.0325 162.229C45.0638 156.736 54.2598 146.784 57.6831 138.225C57.9217 137.628 57.6831 137.389 57.1653 137.389C56.3294 137.389 54.1 138.026 53.105 138.424C52.269 138.742 51.7115 138.982 50.8358 138.982C50.3976 138.982 49.7214 138.543 48.965 137.947C45.3024 142.246 40.3663 146.306 34.9927 148.416L34.5552 147.739C41.0836 142.007 45.9799 134.284 45.9799 131.577C45.9799 130.781 45.1042 129.707 43.8698 128.95L43.9096 128.513V128.512Z" fill="white"/>
<path d="M17.1032 11.4166L17.0959 11.9933C17.0933 11.0599 17.0979 10.1027 17.1059 9.13744C17.1165 7.97999 17.1277 6.81259 17.1384 5.65381C17.1258 6.08669 17.1125 6.52488 17.0992 6.96705L17.0946 7.1288L17.09 7.22956C17.0866 7.29718 17.0833 7.36414 17.0807 7.43175C17.0747 7.56699 17.0681 7.70289 17.0621 7.83879C17.0376 8.38371 17.0151 8.93525 16.9945 9.48945C16.9541 10.5979 16.9249 11.7149 16.9169 12.8021C16.8997 14.9764 16.9653 17.0321 17.1901 18.6583C17.1125 18.773 17.0482 19.2834 16.9985 19.9218C16.974 20.2407 16.9527 20.592 16.9362 20.942L16.9302 21.064L16.9242 21.0779L16.9136 21.1011C16.907 21.1144 16.9017 21.1243 16.8971 21.1316C16.8613 21.1223 16.844 21.117 16.8308 21.1177C16.789 21.1177 16.7505 21.1184 16.7167 21.119L16.604 21.1217C16.5411 21.1243 16.5033 21.1283 16.496 21.133C15.6481 21.1767 14.7896 21.2125 13.9219 21.2423C14.5192 21.2251 15.1138 21.2059 15.7031 21.1833C15.1131 21.2059 14.5192 21.2251 13.9219 21.2423C13.6116 21.2516 13.2994 21.2616 12.9858 21.2715L12.9295 21.2728L12.9156 21.2742L12.8871 21.2775L12.8274 21.2834L12.6988 21.2947L12.6888 21.178L12.6842 21.1157L12.6822 21.0832L12.6809 21.0667V21.0494L12.6796 21.0203C12.6743 20.708 12.6696 20.3938 12.6643 20.0789C12.6557 19.4491 12.6497 18.8134 12.6458 18.1737C12.6378 16.8936 12.6391 15.5949 12.6458 14.2804C12.653 12.9658 12.6663 11.6347 12.6829 10.2909C12.6922 9.61872 12.7008 8.94387 12.7101 8.26571C12.7147 7.92695 12.72 7.58688 12.7246 7.24614C12.7299 6.67271 12.7346 6.09796 12.7399 5.52255H12.7333C11.959 5.51592 10.9553 5.50797 9.78858 5.49802L8.36662 5.48543C7.62614 5.48145 6.84986 5.47681 6.0464 5.47217C6.03116 7.63792 6.01525 10.0045 6 12.2154C6.55287 12.218 7.09978 12.2207 7.63807 12.2233C7.93042 12.226 8.21813 12.2293 8.50053 12.2319C9.04942 12.2379 9.57644 12.2439 10.071 12.2492C11.0607 12.2611 11.9232 12.2737 12.5815 12.2863C13.0899 12.2943 13.5957 12.3022 14.1088 12.3102C13.5418 12.296 12.9748 12.2817 12.4078 12.2671C14.5463 12.2034 16.4841 12.1411 18.3601 12.1C18.03 12.0656 17.9723 12.0324 17.1881 11.9853L18.1453 12.0079C19.0177 11.9084 21.0284 11.9131 21.9737 11.8713C21.9273 11.8833 21.9299 11.8925 21.9697 11.9005C21.9896 11.9045 22.0181 11.9078 22.0546 11.9111L22.0831 11.9137L22.097 11.9151L22.1043 11.9164L22.1348 11.9204C22.2216 11.9303 22.3449 11.9356 22.4662 11.9396C22.4656 11.9661 22.4649 11.9926 22.4642 12.0185L22.4888 11.9177L22.4649 11.9078H22.498C22.4908 12.0841 22.4914 13.282 22.4947 14.1591C22.4981 15.0348 22.5047 16.2353 22.5087 16.4276C22.3085 16.4289 22.1129 16.4302 21.924 16.4315C21.5806 16.4315 21.2484 16.4315 20.9296 16.4315C20.6187 16.4315 20.386 16.4123 20.2455 16.3944L18.1082 16.4349C18.2726 16.3652 16.3356 16.3739 17.3558 16.3301C15.7562 16.4123 14.1333 16.3619 12.608 16.4474C10.5668 16.4561 8.48064 16.4653 6.36394 16.4746C6.36792 17.0759 6.37123 17.6785 6.37521 18.2831C6.37985 18.7431 6.38449 19.2039 6.38847 19.6653C6.39974 20.588 6.41035 21.5135 6.42162 22.4396C6.44681 24.2911 6.47796 26.144 6.51575 27.9789L6.5416 27.841C6.58801 29.8139 6.72457 31.552 6.67949 33.9505C6.7723 35.6628 6.82136 38.0977 6.96654 38.7792C6.98642 40.7553 7.05934 41.5429 7.09713 43.4806C7.16873 42.9808 7.18397 45.3626 7.23966 44.4093C7.34042 43.1239 7.2549 43.0537 7.33578 41.9619L7.31192 41.9943C7.41997 36.9031 7.48162 31.8059 7.51477 26.6451C7.48693 25.0859 7.48229 23.4671 7.48361 21.8303C7.4856 20.4236 7.48693 19.001 7.48891 17.5989C7.5983 17.5976 7.70701 17.5963 7.81507 17.5956C11.6693 17.5698 15.839 17.5227 19.1457 17.463C19.9345 17.4425 20.5033 17.5028 21.1762 17.536C21.4639 17.5333 21.7596 17.5307 22.0612 17.528C22.5643 17.526 23.0794 17.5247 23.6038 17.5227C23.5998 15.412 23.5952 13.1017 23.5905 10.816C22.8726 10.8186 22.1573 10.8213 21.4486 10.8232C20.9402 10.8279 20.437 10.8325 19.9432 10.8365C20.0075 10.8372 20.0704 10.8385 20.1109 10.8392C18.2885 10.8511 16.9236 10.7775 15.1443 10.7894C15.1529 10.81 14.8771 10.8113 14.7432 10.8219C14.6411 10.7901 13.4578 10.8014 11.8986 10.8285C11.1191 10.8438 10.2453 10.8604 9.36497 10.8776C8.9248 10.8869 8.48329 10.8955 8.05173 10.9048C7.94368 10.9068 7.83628 10.9094 7.72955 10.9114L7.67055 10.9127L7.63608 10.9141L7.56648 10.9174C7.47035 10.9214 7.37622 10.926 7.28474 10.93C7.28076 10.8385 7.27678 10.7497 7.2728 10.6641C7.27081 10.6191 7.26949 10.5753 7.2675 10.5322C7.26551 10.4407 7.26419 10.3512 7.26286 10.2631C7.25756 9.90709 7.25225 9.58359 7.24761 9.30516C7.24032 8.74831 7.23966 8.36978 7.24894 8.26372C7.24562 8.07876 7.24165 7.88718 7.23767 7.69162C7.23899 7.56964 7.24098 7.44766 7.24231 7.32569L7.24496 7.14272L7.24761 7.03864C7.25225 6.92263 7.25623 6.80662 7.26087 6.69061L7.58106 6.70453L7.65796 6.70851H7.67718L7.70768 6.7105L7.79054 6.71249L8.122 6.72044C8.56417 6.73171 9.00501 6.74365 9.4432 6.75492C9.88205 6.76685 10.3183 6.77878 10.7511 6.79071C10.8592 6.79336 10.9672 6.79668 11.0753 6.79933L11.1502 6.80132L11.1787 6.80331L11.2337 6.80729C11.3027 6.81259 11.371 6.81856 11.4386 6.82386C11.4339 6.88551 11.43 6.9465 11.4253 7.00749L11.4194 7.09234L11.418 7.11289L11.4167 7.17322L11.4141 7.30713C11.4074 7.66378 11.4015 8.01579 11.3948 8.36316C11.3849 9.05723 11.3796 9.73142 11.3829 10.3784C11.428 11.0785 11.4671 11.8667 11.5175 12.456C11.4764 13.0261 11.5559 13.1355 11.5446 13.823C11.3537 15.5671 11.4333 16.5886 11.5009 15.6884C11.5268 17.1236 11.5095 18.5635 11.5161 19.8389C11.5234 20.1346 11.5307 20.4296 11.538 20.7246L11.544 20.946L11.55 21.2251C11.5539 21.4518 11.5579 21.6792 11.5619 21.9072C11.5659 22.0988 11.5672 22.2692 11.5659 22.4256C12.0279 22.429 12.3289 22.4535 12.6279 22.4873C12.834 22.4846 13.0064 22.4827 13.1542 22.4807C13.2702 22.4807 13.367 22.48 13.4512 22.4793C13.6189 22.48 13.7349 22.484 13.8536 22.4899C14.0903 22.5006 14.3342 22.5171 15.0137 22.5271C15.1231 22.5496 15.5367 22.545 16.0545 22.5304C16.3243 22.5218 16.6213 22.5118 16.9189 22.5019C17.3684 22.4906 17.8198 22.48 18.2322 22.4694C18.2116 21.6255 18.197 20.9089 18.2037 20.8658L18.2136 21.1011C18.2149 20.9984 18.2163 20.8976 18.2169 20.7988C18.2189 20.7047 18.2209 20.6119 18.2229 20.5211C18.2275 20.3394 18.2335 20.1638 18.2408 19.9921C18.2547 19.6493 18.2719 19.3232 18.2892 18.9984C18.3237 18.3487 18.3575 17.7037 18.3601 16.936C18.38 15.178 18.384 13.3536 18.3827 11.5418C18.3807 9.95482 18.3787 8.3784 18.3767 6.88352C18.903 6.88551 19.4035 6.8875 19.8888 6.89015C19.9279 6.81988 19.0171 6.9054 18.9707 6.81325C21.3028 6.82518 23.6542 6.91203 26.0075 6.92396C26.4318 6.94252 26.9509 6.97832 27.1444 7.0002C27.8962 7.02605 27.5886 6.96705 28.1388 6.97567L28.2131 7.03864C29.0179 6.98694 29.3891 7.10891 30.1468 7.0824C30.1866 7.05721 30.4637 7.05389 30.7322 7.05588C30.7461 7.12283 31.5608 7.05124 31.5224 7.11223L31.5303 7.10692C31.6927 7.10825 31.8081 7.10361 32.0063 7.11554C32.3145 7.09168 35.2035 6.90805 35.5164 6.87954L35.6623 6.89081C36.0945 6.88882 36.2795 6.83911 36.0269 6.82717L36.5599 6.83115L36.4982 6.83579L37.0279 6.83977C37.1253 6.84573 37.2361 6.87689 37.0856 6.90606C37.3859 6.88286 37.7233 6.87026 38.0229 6.8822C37.1877 6.84109 36.1509 6.78209 35.2778 6.71448C35.6364 6.69128 36.2848 6.72707 36.6739 6.71978C37.1379 6.7642 38.0932 6.80198 38.8363 6.83248C38.9994 6.8285 39.1121 6.75359 39.4827 6.78674C39.6637 6.83844 39.901 6.78475 40.2092 6.82187C39.8552 6.84905 39.5092 6.83712 39.1506 6.83447C39.2122 6.89545 40.0236 6.87557 40.3074 6.8928C40.4406 6.87358 41.1327 6.89347 41.5676 6.87689C41.378 6.93523 41.9182 6.91402 42.1768 6.94584C42.4705 6.95313 42.6581 6.92926 42.5387 6.90871C42.6335 6.84507 41.3713 6.87093 41.7804 6.80397C41.8877 6.83513 42.4625 6.82386 42.7714 6.82121C42.7754 6.78674 42.56 6.79469 42.7608 6.76154C43.1049 6.7695 43.4695 6.72774 43.667 6.76353C43.6027 6.77281 43.4609 6.76685 43.3601 6.76618C43.8082 6.7695 40.9325 6.9929 41.5125 6.97302C41.3621 6.94186 44.0634 6.76685 43.7651 6.76486C43.492 6.74762 43.9607 6.70188 43.6783 6.68995L43.3647 6.73171C42.9783 6.71845 42.8198 6.65813 42.9564 6.63426C43.6034 6.63957 41.1181 6.87159 41.6716 6.83645L41.4469 6.81988C41.6816 6.79734 42.308 6.77745 42.55 6.81391C42.552 6.77944 42.8675 6.76751 43.1294 6.75492L43.2222 6.76088C43.4927 6.74365 43.8712 6.7516 43.6955 6.70652C42.1078 6.71183 44.7396 6.35716 43.2017 6.33728C43.8467 6.41285 42.9849 6.41484 42.308 6.42412C42.2424 6.39827 41.9414 6.36048 41.4549 6.34059C41.0332 6.34656 41.2063 6.36843 41.1261 6.38766C40.8927 6.37042 40.4459 6.3565 40.5042 6.31606C40.1754 6.36379 39.9792 6.28557 39.5854 6.30214C39.2381 6.32402 39.6086 6.32269 39.3627 6.34589C38.8416 6.34059 38.1111 6.33396 37.6968 6.32468C37.5364 6.28756 37.0478 6.22127 37.4038 6.16293C38.194 6.17088 37.1028 6.25773 37.9248 6.24513C37.5708 6.15961 38.652 6.22193 38.8019 6.15696C38.54 6.11851 38.009 6.11785 37.5649 6.12846L37.6537 6.13973C37.2626 6.151 36.4797 6.1689 36.0561 6.12315C36.1555 6.09332 35.9712 6.07078 36.2582 6.06349L35.7193 6.05752C35.651 6.06681 35.5807 6.07675 35.7359 6.08338C35.482 6.10658 35.2274 6.09399 35.0318 6.07609C34.9728 6.04427 32.1661 6.21 32.2529 6.18945C31.8644 6.19011 31.771 6.14304 31.3924 6.17486C31.3825 6.18149 31.6092 6.17751 31.9473 6.1689C32.2854 6.15829 32.7342 6.14503 33.1684 6.13111C34.0368 6.10194 34.8462 6.07078 34.5897 6.07609C34.2582 6.04095 30.1912 6.23519 29.9493 6.17486C29.6615 6.17751 29.3148 6.18414 29.3825 6.21596C28.8965 6.20005 29.5283 6.15431 29.1823 6.12448C29.1743 6.12978 29.2108 6.14039 29.1001 6.13973L28.7673 6.09929C28.0129 6.14901 26.9058 6.08404 26.1156 6.15033C26.3443 6.1152 26.6055 6.05421 27.114 6.02239L27.2028 6.03963C27.275 6.02968 27.6933 6.01841 27.6814 5.98659C27.1981 5.96538 26.7851 5.97135 26.2767 6.0025C26.1826 5.99388 26.0732 5.98527 26.0002 5.97599C26.0022 5.97996 26.0102 5.98394 26.0082 5.98858C25.8418 5.96869 25.8597 5.96538 25.92 5.95278C25.928 5.9508 25.9379 5.94814 25.9552 5.94549C25.6522 5.85136 24.0586 6.00515 23.1762 5.95676C22.9164 5.97002 23.1517 5.97267 22.8282 5.99057C21.9266 5.95345 21.3048 5.92428 20.3628 5.9024C20.0618 5.94284 20.038 5.95941 20.4019 6.00184L19.6899 5.98858C20.3376 5.88053 18.3601 5.88517 19.0741 5.77711C18.97 5.76452 18.8116 5.75722 18.6286 5.75523H18.1997C18.0485 5.75789 17.8954 5.76054 17.7469 5.76518C17.7138 5.78639 17.6667 5.81689 17.3226 5.82948C17.3266 5.9382 17.3286 6.07344 17.3286 6.24049C17.3114 6.74166 17.3047 6.93258 17.2994 7.10228C17.2961 7.16261 17.2935 7.21896 17.2895 7.29718C17.2849 7.37408 17.2796 7.47153 17.2709 7.61605C17.2358 7.75261 17.2212 7.54047 17.1934 7.565C17.2391 8.45663 17.1165 8.34327 17.1231 9.18385C17.1337 9.71087 17.1377 10.751 17.2 10.7762C17.1974 11.4862 17.1516 11.4862 17.1012 11.4152L17.1032 11.4166Z" fill="white"/>
<path d="M18.3363 188.374L18.3435 187.797C18.3462 188.73 18.3416 189.688 18.3336 190.653C18.329 191.135 18.3237 191.621 18.319 192.106L18.315 192.47L18.3131 192.651L18.3111 192.728C18.3077 192.813 18.3051 192.898 18.3018 192.982C18.315 192.877 18.3283 192.784 18.3409 192.701L18.3435 192.686L18.3449 192.679V192.675L18.3462 192.662L18.3508 192.561C18.3542 192.494 18.3575 192.427 18.3601 192.359C18.3661 192.224 18.3727 192.088 18.3787 191.952C18.4032 191.407 18.4257 190.856 18.4463 190.301C18.4867 189.193 18.5159 188.076 18.5239 186.989C18.5411 184.814 18.4755 182.759 18.2507 181.133C18.3283 181.018 18.3926 180.507 18.4423 179.869C18.4668 179.55 18.4881 179.199 18.5046 178.849L18.5106 178.709C18.5126 178.626 18.5146 178.544 18.5166 178.462C18.5199 178.296 18.5239 178.132 18.5272 177.968C18.5331 177.639 18.5384 177.318 18.5437 177.014C17.9007 177.005 17.3213 176.999 16.8997 177C16.8328 177 16.7724 177.001 16.7187 177.001C16.675 177.003 16.6372 177.003 16.606 177.004C16.5431 177.007 16.5053 177.011 16.498 177.015C15.6501 177.059 14.7916 177.095 13.9239 177.125C14.5212 177.107 15.1158 177.088 15.7051 177.066C15.1151 177.088 14.5212 177.107 13.9239 177.125C13.6136 177.134 13.3014 177.144 12.9878 177.154C12.4555 177.162 11.9205 177.17 11.3829 177.178C11.3895 177.706 11.3955 178.237 11.4021 178.77C11.4074 179.082 11.4121 179.396 11.4174 179.711C11.426 180.341 11.432 180.977 11.4359 181.617C11.4439 182.897 11.4426 184.195 11.4359 185.51C11.4286 186.824 11.4154 188.156 11.3988 189.499C11.3895 190.171 11.3809 190.846 11.3716 191.524C11.367 191.863 11.3617 192.203 11.357 192.544L11.3551 192.672L11.3531 192.704L11.3491 192.761L11.3411 192.868H11.3405C11.308 192.866 11.2729 192.864 11.2357 192.862C11.2178 192.861 11.1999 192.86 11.1814 192.858C11.1721 192.858 11.1628 192.857 11.1535 192.857C11.1118 192.857 11.0693 192.856 11.0263 192.856C10.6497 192.852 10.2354 192.848 9.78991 192.843C9.34443 192.839 8.86845 192.835 8.36795 192.83C8.1419 192.828 7.91054 192.826 7.67454 192.824C7.63344 192.822 7.59167 192.819 7.54858 192.817C7.55057 192.784 7.5519 192.75 7.55389 192.716L7.55521 192.691V192.679L7.55654 192.615C7.5572 192.508 7.55853 192.4 7.55919 192.292C7.56317 191.86 7.56648 191.422 7.57046 190.984C7.57444 190.545 7.57841 190.106 7.58173 189.669C7.58239 189.56 7.58372 189.451 7.58438 189.342V189.263L7.58571 189.254L7.58703 189.235C7.58902 189.213 7.59101 189.19 7.593 189.168C7.62416 189.171 7.65531 189.174 7.68514 189.176C7.96158 189.179 8.23404 189.182 8.50053 189.185C9.04943 189.191 9.57645 189.197 10.071 189.202C11.0607 189.214 11.9232 189.227 12.5815 189.239C13.0899 189.247 13.5957 189.255 14.1088 189.263L12.4078 189.22C14.5463 189.157 16.4841 189.094 18.3601 189.053C18.03 189.019 17.9723 188.986 17.1881 188.938L18.1453 188.961C19.0177 188.862 21.0284 188.866 21.9737 188.824C21.9273 188.836 21.9299 188.846 21.9697 188.854C21.9896 188.858 22.0181 188.861 22.0546 188.864C22.0638 188.865 22.0731 188.866 22.0831 188.867C22.0963 188.868 22.1102 188.868 22.1248 188.869C22.1593 188.87 22.1958 188.871 22.2355 188.873C22.5511 188.883 23.0271 188.888 23.5077 188.892C23.5083 188.795 23.509 188.697 23.5097 188.6L23.4851 188.87L23.3592 188.86C23.397 188.86 23.4348 188.86 23.4759 188.86C23.4832 187.275 23.4825 186.614 23.4792 185.63C23.4745 184.539 23.4699 183.445 23.4653 182.406C22.5677 182.407 21.7151 182.409 20.9303 182.41C20.6193 182.41 20.3867 182.391 20.2461 182.373L18.1089 182.413C18.2733 182.344 16.3362 182.352 17.3565 182.309C15.7568 182.391 14.134 182.34 12.6086 182.426C11.6587 182.429 10.6981 182.432 9.72892 182.435C9.24433 182.438 8.75775 182.441 8.26851 182.443C8.04909 182.444 7.82966 182.446 7.60957 182.448C7.48295 182.45 7.35567 182.451 7.22839 182.453C7.20917 180.765 7.18994 179.06 7.17006 177.353C7.14487 175.501 7.11371 173.648 7.07592 171.813L7.05007 171.951C7.00366 169.978 6.8671 168.24 6.91218 165.842C6.81937 164.129 6.77032 161.694 6.62514 161.013C6.60525 159.037 6.53233 158.249 6.49454 156.312C6.42295 156.811 6.4077 154.43 6.35202 155.383C6.25125 156.668 6.33677 156.738 6.25589 157.83L6.27976 157.798C6.1717 162.889 6.11005 167.986 6.0769 173.147C6.10475 174.706 6.10939 176.325 6.10806 177.962C6.10607 179.829 6.10475 181.717 6.10276 183.579C6.67685 183.578 7.24696 183.577 7.81508 183.576C11.6693 183.55 15.839 183.503 19.1457 183.444C19.9346 183.423 20.5033 183.483 21.1762 183.516C21.4639 183.514 21.7596 183.511 22.0612 183.508C22.162 183.506 22.2647 183.505 22.3694 183.503C22.3701 183.569 22.3714 183.636 22.3721 183.704C22.3721 183.87 22.3734 184.039 22.3741 184.209C22.3748 184.659 22.3761 185.115 22.3767 185.576C22.3774 186.037 22.3781 186.503 22.3794 186.97C22.3794 187.16 22.3807 187.351 22.3807 187.542L22.3827 187.769C21.5567 187.776 20.7354 187.783 19.9432 187.79C20.0075 187.791 20.0704 187.792 20.1109 187.793C18.2885 187.805 16.9236 187.731 15.1443 187.743C15.1529 187.764 14.8771 187.765 14.7432 187.776C14.6411 187.744 13.4578 187.755 11.8987 187.782C11.1191 187.798 10.2453 187.814 9.36498 187.831C8.9248 187.841 8.4833 187.849 8.05174 187.859C7.94368 187.861 7.83629 187.863 7.72956 187.865C7.57112 187.867 7.41401 187.87 7.25756 187.872C6.93339 187.876 6.61586 187.88 6.30561 187.884C6.3202 188.896 6.33279 189.802 6.34273 190.488C6.35003 191.045 6.35069 191.423 6.34141 191.529C6.34472 191.714 6.3487 191.906 6.35268 192.101C6.34472 192.744 6.33743 193.389 6.32948 194.035L7.33711 194.049L7.79121 194.056L8.12267 194.064C8.56484 194.075 9.00568 194.087 9.44387 194.099C9.88272 194.111 10.3189 194.122 10.7518 194.134C10.8599 194.137 10.9679 194.14 11.076 194.143C11.2384 194.146 11.4008 194.149 11.5626 194.152C11.9232 194.157 12.2812 194.163 12.6378 194.168C12.6531 193.235 12.6676 192.319 12.6816 191.43C12.6915 190.736 12.6968 190.062 12.6935 189.415C12.6484 188.715 12.6093 187.927 12.5589 187.337C12.6 186.767 12.5205 186.658 12.5317 185.971C12.7227 184.226 12.6431 183.205 12.5755 184.105C12.5496 182.67 12.5669 181.23 12.5602 179.955C12.553 179.659 12.5457 179.364 12.5384 179.069L12.5324 178.847L12.5298 178.737L12.5271 178.682C12.5231 178.613 12.5191 178.543 12.5152 178.473C12.5112 178.411 12.5099 178.356 12.5112 178.31C12.6597 178.313 12.7724 178.338 12.8559 178.372C12.8718 178.371 12.8877 178.37 12.9023 178.37C12.9189 178.369 12.9242 178.368 12.9673 178.368C13.0362 178.367 13.0992 178.366 13.1569 178.365C13.2729 178.365 13.3697 178.364 13.4539 178.364C13.6216 178.364 13.7376 178.368 13.8563 178.374C14.0929 178.385 14.3369 178.401 15.0164 178.411C15.1257 178.434 15.5394 178.429 16.0571 178.414C16.1864 178.41 16.3223 178.405 16.4615 178.401C16.5311 178.398 16.6014 178.396 16.6723 178.393L16.7791 178.389L16.8301 178.387L16.8507 178.385C16.972 178.374 17.0933 178.364 17.2047 178.353C17.2252 178.569 17.2398 178.713 17.2332 178.927L17.2285 178.816L17.2259 178.761L17.2245 178.733L17.2232 178.719C17.2219 178.812 17.2206 178.904 17.2199 178.994C17.2179 179.088 17.2159 179.181 17.2139 179.272C17.2093 179.453 17.2033 179.629 17.196 179.801C17.1821 180.144 17.1649 180.47 17.1476 180.794C17.1132 181.444 17.0794 182.089 17.0767 182.857C17.0568 184.615 17.0528 186.439 17.0542 188.251C17.0562 190.287 17.0581 192.309 17.0601 194.227C17.6627 194.227 18.2507 194.229 18.8268 194.229C19.1881 194.231 19.5421 194.233 19.8901 194.234C19.9292 194.164 19.0184 194.249 18.972 194.157C21.3041 194.169 23.6555 194.256 26.0089 194.268C26.4331 194.286 26.9522 194.321 27.1458 194.344C27.8975 194.37 27.5899 194.311 28.1402 194.319L28.2144 194.382C29.0192 194.331 29.3904 194.453 30.1481 194.426C30.1879 194.401 30.465 194.398 30.7335 194.4C30.7474 194.467 31.5621 194.395 31.5237 194.456L31.5316 194.451C31.6941 194.452 31.8094 194.447 32.0076 194.459C32.3159 194.435 35.2049 194.252 35.5178 194.223L35.6636 194.234C36.0958 194.233 36.2808 194.183 36.0282 194.171L36.5612 194.175L36.4996 194.179L37.0292 194.183C37.1267 194.189 37.2374 194.221 37.0869 194.25C37.3872 194.227 37.7246 194.214 38.0243 194.226C37.189 194.185 36.1522 194.126 35.2791 194.058C35.6378 194.035 36.2861 194.071 36.6752 194.063C37.1393 194.108 38.0945 194.146 38.8377 194.176C39.0007 194.172 39.1134 194.097 39.484 194.13C39.665 194.182 39.9023 194.128 40.2106 194.166C39.8566 194.193 39.5105 194.181 39.1519 194.179C39.2135 194.24 40.025 194.22 40.3087 194.237C40.4419 194.218 41.134 194.238 41.5689 194.221C41.3793 194.28 41.9196 194.258 42.1781 194.29C42.4718 194.297 42.6594 194.274 42.5401 194.253C42.6349 194.189 41.3727 194.215 41.7817 194.148C41.8891 194.179 42.4638 194.168 42.7728 194.166C42.7767 194.131 42.5613 194.139 42.7621 194.106C43.1062 194.114 43.4708 194.072 43.6684 194.108C43.604 194.117 43.4622 194.111 43.3614 194.111C43.8096 194.114 40.9338 194.337 41.5139 194.317C41.3634 194.286 44.0648 194.111 43.7665 194.109C43.4933 194.092 43.962 194.046 43.6796 194.034L43.3661 194.076C42.9796 194.063 42.8211 194.002 42.9577 193.979C43.6047 193.984 41.1194 194.216 41.673 194.181L41.4482 194.164C41.6829 194.142 42.3094 194.122 42.5513 194.158C42.5533 194.124 42.8689 194.112 43.1307 194.099L43.2235 194.105C43.494 194.088 43.8725 194.096 43.6969 194.051C42.1092 194.056 44.741 193.702 43.203 193.682C43.848 193.758 42.9862 193.76 42.3094 193.769C42.2437 193.743 41.9428 193.705 41.4562 193.686C41.0346 193.692 41.2076 193.713 41.1274 193.733C40.894 193.715 40.4472 193.702 40.5056 193.661C40.1768 193.709 39.9805 193.631 39.5868 193.647C39.2394 193.669 39.61 193.668 39.364 193.691C38.843 193.686 38.1124 193.679 37.6981 193.67C37.5377 193.633 37.0491 193.566 37.4051 193.508C38.1953 193.516 37.1041 193.603 37.9262 193.59C37.5722 193.505 38.6534 193.567 38.8032 193.502C38.5413 193.464 38.0103 193.463 37.5662 193.473L37.655 193.485C37.2639 193.496 36.481 193.514 36.0574 193.468C36.1568 193.438 35.9725 193.416 36.2596 193.409L35.7206 193.403C35.6523 193.412 35.5821 193.422 35.7372 193.428C35.4833 193.452 35.2287 193.439 35.0332 193.421C34.9742 193.389 32.1674 193.555 32.2542 193.534C31.8658 193.535 31.7723 193.488 31.3938 193.52C31.3838 193.527 31.6105 193.523 31.9486 193.514C32.2867 193.503 32.7355 193.49 33.1697 193.476C34.0381 193.447 34.8476 193.416 34.591 193.421C34.2596 193.386 30.1926 193.58 29.9506 193.52C29.6629 193.523 29.3162 193.529 29.3838 193.561C28.8979 193.545 29.5296 193.499 29.1836 193.469C29.1756 193.475 29.2121 193.485 29.1014 193.485L28.7686 193.444C28.0142 193.494 26.9071 193.429 26.1169 193.495C26.3456 193.46 26.6068 193.399 27.1153 193.367L27.2041 193.385C27.2764 193.375 27.6947 193.363 27.6827 193.332C27.1995 193.31 26.7865 193.316 26.278 193.348C26.1839 193.339 26.0745 193.33 26.0016 193.321C26.0036 193.325 26.0115 193.329 26.0095 193.334C25.8431 193.314 25.861 193.31 25.9214 193.298C25.9293 193.296 25.9393 193.293 25.9565 193.291C25.6535 193.196 24.0599 193.35 23.1775 193.302C22.9177 193.315 23.153 193.318 22.8295 193.336C21.9279 193.298 21.3061 193.269 20.3641 193.247C20.0632 193.288 20.0393 193.304 20.4032 193.347L19.6913 193.334C20.3389 193.226 18.3614 193.23 19.0754 193.122C18.9713 193.11 18.8129 193.102 18.6299 193.1C18.6047 193.1 18.5795 193.1 18.553 193.1C18.5305 193.1 18.5066 193.101 18.4834 193.102C18.4357 193.103 18.3866 193.106 18.3356 193.11C18.3071 193.131 18.266 193.162 18.1148 193.174C18.1109 193.138 18.1089 193.088 18.1089 193.022C18.1261 192.825 18.1327 192.75 18.138 192.684C18.1447 192.567 18.1506 192.465 18.1665 192.179C18.2017 192.042 18.2163 192.254 18.2441 192.23C18.199 191.338 18.321 191.452 18.3144 190.611C18.3038 190.084 18.2998 189.044 18.2375 189.019C18.2401 188.309 18.2859 188.309 18.3363 188.38V188.374Z" fill="white"/>
<path d="M83.5634 188.374L83.5707 187.797C83.5734 188.731 83.5687 189.688 83.5608 190.653C83.5502 191.811 83.5389 192.978 83.5283 194.137C83.5409 193.704 83.5541 193.266 83.5674 192.823L83.572 192.662L83.5767 192.561C83.58 192.493 83.5833 192.426 83.5859 192.359C83.5919 192.224 83.5985 192.088 83.6045 191.952C83.629 191.407 83.6516 190.855 83.6721 190.301C83.7126 189.193 83.7417 188.076 83.7497 186.988C83.7669 184.814 83.7013 182.758 83.4766 181.132C83.5541 181.018 83.6184 180.507 83.6675 179.869C83.692 179.55 83.7132 179.198 83.7298 178.848L83.7358 178.727L83.7417 178.713L83.7523 178.689C83.759 178.676 83.7643 178.666 83.7689 178.659C83.8047 178.668 83.8219 178.673 83.8352 178.673C83.877 178.673 83.9154 178.672 83.9492 178.671C83.993 178.67 84.0308 178.669 84.0619 178.669C84.1249 178.666 84.1627 178.662 84.17 178.658C85.0179 178.614 85.8763 178.578 86.7441 178.548C86.1468 178.565 85.5522 178.585 84.9628 178.607C85.5528 178.585 86.1468 178.565 86.7441 178.548C87.0543 178.539 87.3666 178.529 87.6801 178.519L87.7365 178.518L87.7504 178.516L87.7789 178.513L87.8386 178.507C87.8817 178.503 87.9241 178.499 87.9678 178.496L87.9778 178.612L87.9824 178.675L87.9844 178.707L87.9857 178.724V178.741L87.9871 178.77C87.9924 179.082 87.997 179.397 88.0023 179.712C88.0109 180.341 88.0169 180.977 88.0209 181.617C88.0288 182.897 88.0275 184.196 88.0209 185.51C88.0136 186.825 88.0003 188.156 87.9837 189.5C87.9745 190.172 87.9659 190.847 87.9566 191.525C87.9519 191.864 87.9466 192.204 87.942 192.544C87.9367 193.118 87.932 193.692 87.9267 194.268H87.9334C88.7077 194.275 89.7113 194.283 90.8781 194.292C91.3235 194.296 91.7995 194.3 92.3 194.305C93.0405 194.309 93.8168 194.314 94.6202 194.318C94.6348 192.155 94.6507 189.789 94.666 187.577C94.1131 187.574 93.5662 187.572 93.0279 187.569C92.7356 187.567 92.4478 187.563 92.1654 187.561C91.6165 187.555 91.0895 187.549 90.595 187.543C89.6052 187.531 88.7428 187.519 88.0845 187.506C87.5761 187.498 87.0702 187.49 86.5571 187.482C87.1242 187.496 87.6912 187.511 88.2582 187.525C86.1196 187.589 84.1826 187.651 82.3059 187.692C82.636 187.727 82.6937 187.76 83.4779 187.807L82.5206 187.785C81.6482 187.884 79.6376 187.879 78.6923 187.921C78.7387 187.909 78.736 187.9 78.6963 187.892C78.6764 187.888 78.6479 187.885 78.6114 187.881C78.6021 187.881 78.5928 187.88 78.5829 187.879L78.569 187.877L78.5617 187.876C78.5524 187.875 78.5418 187.873 78.5312 187.872C78.4444 187.862 78.3211 187.857 78.1997 187.853L78.2017 187.774L78.1772 187.875L78.2011 187.885C78.1905 187.885 78.1799 187.885 78.1679 187.885C78.1752 187.709 78.1745 186.511 78.1712 185.634C78.1679 184.758 78.1613 183.558 78.1573 183.366C78.3575 183.364 78.5531 183.363 78.742 183.362C79.0854 183.362 79.4175 183.362 79.7364 183.362C80.0473 183.362 80.28 183.381 80.4205 183.399L82.5578 183.358C82.3934 183.428 84.3304 183.419 83.3102 183.463C84.9098 183.381 86.5326 183.431 88.058 183.346C90.0991 183.337 92.1853 183.328 94.302 183.319C94.298 182.717 94.2947 182.115 94.2908 181.51C94.2861 181.05 94.2815 180.589 94.2775 180.128C94.2662 179.205 94.2556 178.28 94.2444 177.354C94.2192 175.502 94.188 173.649 94.1502 171.814L94.1244 171.952C94.078 169.979 93.9414 168.241 93.9865 165.843C93.8937 164.13 93.8446 161.695 93.6994 161.014C93.6796 159.038 93.6066 158.25 93.5688 156.313C93.4972 156.812 93.482 154.431 93.4263 155.384C93.3256 156.669 93.4111 156.739 93.3302 157.831L93.354 157.799C93.246 162.89 93.1843 167.987 93.1512 173.148C93.179 174.707 93.1837 176.326 93.1824 177.963C93.1804 179.37 93.179 180.792 93.1771 182.194C93.0677 182.196 92.959 182.197 92.8509 182.198C88.9967 182.223 84.8269 182.27 81.5203 182.33C80.7314 182.351 80.1626 182.29 79.4898 182.257C79.2021 182.26 78.9064 182.263 78.6048 182.265C78.1016 182.267 77.5865 182.268 77.0622 182.27C77.0661 184.381 77.0708 186.691 77.0754 188.977C77.7934 188.975 78.5087 188.972 79.2173 188.97C79.7258 188.965 80.2289 188.961 80.7228 188.957C80.6585 188.956 80.5962 188.955 80.5551 188.954C82.3775 188.942 83.7424 189.016 85.5217 189.004C85.5131 188.983 85.7888 188.982 85.9227 188.971C86.0248 189.003 87.2081 188.992 88.7673 188.965C89.5469 188.949 90.4206 188.933 91.301 188.916C91.7412 188.906 92.1827 188.898 92.6142 188.888C92.7223 188.886 92.8297 188.884 92.9364 188.882L92.9954 188.88L93.0299 188.879L93.0995 188.876C93.1956 188.872 93.2897 188.867 93.3812 188.863C93.3852 188.955 93.3892 189.043 93.3932 189.129C93.3952 189.174 93.3965 189.218 93.3985 189.261C93.4005 189.352 93.4018 189.442 93.4031 189.53C93.4084 189.886 93.4137 190.21 93.4184 190.488C93.4256 191.045 93.4263 191.423 93.417 191.529C93.4203 191.714 93.4243 191.906 93.4283 192.102C93.427 192.224 93.425 192.346 93.4237 192.467L93.421 192.65L93.4184 192.755C93.4137 192.871 93.4097 192.987 93.4051 193.103L93.0849 193.089L93.008 193.085H92.9888L92.9583 193.083L92.8754 193.081L92.544 193.073C92.1018 193.061 91.661 193.05 91.2228 193.038C90.7839 193.026 90.3477 193.014 89.9148 193.002C89.8068 193 89.6987 192.996 89.5907 192.994L89.5158 192.992L89.4873 192.99L89.4322 192.986C89.3633 192.981 89.295 192.975 89.2274 192.969C89.232 192.908 89.236 192.847 89.2406 192.786L89.2466 192.701L89.2479 192.68L89.2493 192.62L89.2519 192.486C89.2585 192.129 89.2645 191.777 89.2711 191.43C89.2811 190.736 89.2864 190.062 89.2831 189.415C89.238 188.715 89.1989 187.926 89.1485 187.337C89.1896 186.767 89.1101 186.658 89.1213 185.97C89.3122 184.226 89.2327 183.205 89.1651 184.105C89.1392 182.67 89.1565 181.23 89.1498 179.954C89.1425 179.659 89.1352 179.364 89.1279 179.069L89.122 178.847L89.116 178.568C89.112 178.341 89.1081 178.114 89.1041 177.886C89.1001 177.694 89.0988 177.524 89.1001 177.368C88.6381 177.364 88.3371 177.34 88.0381 177.306C87.8319 177.309 87.6596 177.311 87.5118 177.312C87.3957 177.312 87.299 177.313 87.2148 177.314C87.047 177.313 86.931 177.309 86.8124 177.303C86.5757 177.293 86.3318 177.276 85.6523 177.266C85.5429 177.244 85.1292 177.248 84.6115 177.263C84.3417 177.272 84.0447 177.282 83.747 177.292C83.2976 177.303 82.8461 177.314 82.4338 177.324C82.4543 178.168 82.4689 178.885 82.4623 178.928L82.4524 178.693C82.451 178.795 82.4497 178.896 82.449 178.995C82.4471 179.089 82.4451 179.182 82.4431 179.273C82.4384 179.454 82.4325 179.63 82.4252 179.802C82.4113 180.144 82.394 180.471 82.3768 180.795C82.3423 181.445 82.3085 182.09 82.3059 182.858C82.286 184.616 82.282 186.44 82.2833 188.252C82.2853 189.839 82.2873 191.415 82.2893 192.91C81.7629 192.908 81.2624 192.906 80.7772 192.904C80.7381 192.974 81.6489 192.888 81.6953 192.981C79.3632 192.969 77.0118 192.882 74.6584 192.87C74.2342 192.851 73.7151 192.816 73.5215 192.794C72.7698 192.768 73.0774 192.827 72.5271 192.818L72.4529 192.755C71.6481 192.807 71.2769 192.685 70.5192 192.711C70.4794 192.737 70.2023 192.74 69.9338 192.738C69.9199 192.671 69.1052 192.743 69.1436 192.682L69.1357 192.687C68.9732 192.686 68.8579 192.69 68.6597 192.678C68.3514 192.702 65.4624 192.886 65.1495 192.914L65.0037 192.903C64.5715 192.905 64.3865 192.955 64.6391 192.967L64.1061 192.963L64.1677 192.958L63.6381 192.954C63.5406 192.948 63.4299 192.917 63.5804 192.888C63.2801 192.911 62.9427 192.924 62.643 192.912C63.4783 192.953 64.5151 193.012 65.3882 193.079C65.0295 193.103 64.3812 193.067 63.9921 193.074C63.528 193.03 62.5728 192.992 61.8296 192.961C61.6666 192.965 61.5539 193.04 61.1833 193.007C61.0023 192.955 60.765 193.009 60.4567 192.971C60.8107 192.944 61.1568 192.956 61.5154 192.959C61.4538 192.898 60.6423 192.918 60.3586 192.9C60.2254 192.92 59.5333 192.9 59.0984 192.916C59.288 192.858 58.7477 192.879 58.4892 192.847C58.1955 192.84 58.0079 192.864 58.1272 192.884C58.0324 192.948 59.2946 192.922 58.8856 192.989C58.7782 192.958 58.2035 192.969 57.8945 192.972C57.8906 193.006 58.106 192.998 57.9052 193.032C57.5611 193.024 57.1965 193.065 56.9989 193.03C57.0632 193.02 57.2051 193.026 57.3059 193.027C56.8577 193.024 59.7335 192.8 59.1534 192.82C59.3039 192.851 56.6025 193.026 56.9008 193.028C57.174 193.046 56.7053 193.091 56.9877 193.103L57.3012 193.061C57.6877 193.075 57.8462 193.135 57.7096 193.159C57.0626 193.154 59.5479 192.922 58.9943 192.957L59.2191 192.973C58.9844 192.996 58.3579 193.016 58.116 192.979C58.114 193.014 57.7984 193.026 57.5366 193.038L57.4438 193.032C57.1733 193.05 56.7948 193.042 56.9704 193.087C58.5581 193.081 55.9263 193.436 57.4643 193.455C56.8193 193.38 57.6811 193.378 58.3579 193.368C58.4236 193.394 58.7245 193.432 59.2111 193.452C59.6327 193.446 59.4597 193.424 59.5399 193.405C59.7733 193.422 60.2201 193.436 60.1617 193.476C60.4905 193.429 60.6868 193.507 61.0805 193.49C61.4279 193.468 61.0573 193.47 61.3033 193.447C61.8243 193.452 62.5549 193.459 62.9692 193.468C63.1296 193.505 63.6182 193.571 63.2622 193.63C62.472 193.622 63.5632 193.535 62.7411 193.547C63.0951 193.633 62.0139 193.571 61.8641 193.636C62.126 193.674 62.657 193.675 63.1011 193.664L63.0123 193.653C63.4034 193.641 64.1863 193.624 64.6099 193.669C64.5105 193.699 64.6948 193.722 64.4077 193.729L64.9467 193.735C65.015 193.726 65.0852 193.716 64.9301 193.709C65.184 193.686 65.4386 193.699 65.6341 193.716C65.6931 193.748 68.4999 193.582 68.4131 193.603C68.8015 193.602 68.895 193.649 69.2735 193.618C69.2835 193.611 69.0568 193.615 68.7187 193.624C68.3806 193.634 67.9318 193.647 67.4976 193.661C66.6292 193.691 65.8197 193.722 66.0763 193.716C66.4077 193.752 70.4748 193.557 70.7167 193.618C71.0044 193.615 71.3511 193.608 71.2835 193.577C71.7694 193.592 71.1377 193.638 71.4837 193.668C71.4917 193.663 71.4552 193.652 71.5659 193.653L71.8987 193.693C72.6531 193.643 73.7602 193.708 74.5504 193.642C74.3217 193.677 74.0605 193.738 73.552 193.77L73.4632 193.753C73.3909 193.763 72.9726 193.774 72.9846 193.806C73.4678 193.827 73.8808 193.821 74.3893 193.79C74.4834 193.799 74.5928 193.807 74.6657 193.817C74.6637 193.813 74.6558 193.809 74.6578 193.804C74.8242 193.824 74.8063 193.827 74.7459 193.84C74.738 193.842 74.728 193.844 74.7108 193.847C75.0138 193.941 76.6074 193.787 77.4898 193.836C77.7496 193.822 77.5143 193.82 77.8378 193.802C78.7394 193.839 79.3612 193.868 80.3032 193.89C80.6041 193.85 80.628 193.833 80.2641 193.791L80.976 193.804C80.3284 193.912 82.3059 193.907 81.5919 194.015C81.696 194.028 81.8544 194.035 82.0374 194.037C82.1037 194.037 82.1719 194.037 82.2422 194.037C82.3158 194.037 82.3907 194.037 82.4663 194.036C82.6174 194.035 82.7706 194.031 82.9191 194.027C82.9522 194.006 82.9993 193.976 83.3433 193.963C83.3393 193.854 83.3374 193.719 83.3374 193.552C83.3546 193.051 83.3612 192.86 83.3665 192.69C83.3698 192.63 83.3725 192.574 83.3765 192.495C83.3811 192.418 83.3864 192.321 83.395 192.176C83.4302 192.04 83.4447 192.252 83.4726 192.227C83.4275 191.336 83.5495 191.449 83.5429 190.609C83.5323 190.082 83.5283 189.042 83.466 189.016C83.4686 188.306 83.5144 188.306 83.5647 188.377L83.5634 188.374Z" fill="white"/>
<path d="M82.3304 11.4165L82.3231 11.9932C82.3205 11.0598 82.3251 10.1026 82.3331 9.13736C82.3377 8.65475 82.343 8.1695 82.3477 7.6849L82.3516 7.32096L82.3536 7.13932L82.3556 7.06242C82.3589 6.97757 82.3616 6.89272 82.3649 6.80853C82.3516 6.91327 82.3384 7.00674 82.3258 7.0896L82.3231 7.10485L82.3218 7.11214V7.11612L82.3205 7.12871L82.3158 7.22948C82.3125 7.2971 82.3092 7.36405 82.3066 7.43167C82.3006 7.5669 82.294 7.7028 82.288 7.8387C82.2635 8.38362 82.2409 8.93517 82.2204 9.48937C82.18 10.5978 82.1508 11.7148 82.1428 12.802C82.1256 14.9763 82.1912 17.0321 82.416 18.6582C82.3384 18.7729 82.2741 19.2833 82.2244 19.9217C82.1998 20.2406 82.1786 20.5919 82.1621 20.9419L82.1561 21.0818C82.1541 21.1647 82.1521 21.2469 82.1501 21.3291C82.1468 21.4948 82.1428 21.6592 82.1395 21.8223C82.1336 22.1518 82.1282 22.4726 82.1229 22.7769C82.766 22.7862 83.3454 22.7915 83.767 22.7908L83.948 22.7895C83.9917 22.7882 84.0295 22.7875 84.0607 22.7868C84.1236 22.7842 84.1614 22.7802 84.1687 22.7756C85.0166 22.7318 85.8751 22.696 86.7428 22.6662C86.1455 22.6834 85.5509 22.7027 84.9616 22.7252C85.5516 22.7027 86.1455 22.6834 86.7428 22.6662C87.0531 22.6569 87.3653 22.647 87.6789 22.637C88.2112 22.6291 88.7462 22.6211 89.2838 22.6132C89.2772 22.0848 89.2712 21.5538 89.2646 21.0208C89.2593 20.7086 89.2546 20.3944 89.2493 20.0795C89.2407 19.4497 89.2347 18.814 89.2308 18.1743C89.2228 16.8942 89.2241 15.5955 89.2308 14.2809C89.238 12.9664 89.2513 11.6352 89.2679 10.2915C89.2772 9.6193 89.2858 8.94445 89.2951 8.26628C89.2997 7.92753 89.305 7.58745 89.3096 7.24671L89.3116 7.11877L89.3136 7.08629L89.3176 7.02994L89.3255 6.92321H89.3262L89.431 6.92918L89.4853 6.93249L89.5132 6.93382L89.6404 6.93514C90.017 6.93912 90.4313 6.9431 90.8768 6.94774C91.3223 6.95172 91.7982 6.95569 92.2987 6.96033C92.5248 6.96232 92.7562 6.96431 92.9922 6.96696L93.1181 6.97359C93.1161 7.00674 93.1148 7.04055 93.1128 7.07502L93.1115 7.09955V7.11148L93.1102 7.17578C93.1095 7.28317 93.1082 7.39057 93.1075 7.49862C93.1035 7.93085 93.1002 8.36837 93.0962 8.80656C93.0923 9.24541 93.0883 9.68493 93.085 10.1218C93.0843 10.2312 93.083 10.3399 93.0823 10.4486V10.5275L93.081 10.5368L93.0797 10.5553C93.0777 10.5779 93.0757 10.6004 93.0737 10.6223L92.9815 10.6143C92.7051 10.6117 92.4327 10.6084 92.1662 10.6057C91.6173 10.5998 91.0902 10.5938 90.5957 10.5885C89.606 10.5766 88.7435 10.564 88.0852 10.5514C87.5768 10.5434 87.071 10.5355 86.5579 10.5275C87.1249 10.5416 87.6919 10.556 88.2589 10.5706C86.1203 10.6342 84.1833 10.6965 82.3066 10.7376C82.6367 10.7721 82.6944 10.8053 83.4786 10.8523L82.5214 10.8298C81.649 10.9292 79.6383 10.9246 78.693 10.9664C78.7394 10.9544 78.7368 10.9451 78.697 10.9372C78.6771 10.9332 78.6486 10.9299 78.6121 10.9266L78.5836 10.9239L78.5419 10.9219L78.4311 10.918C78.1156 10.908 77.6396 10.9027 77.159 10.8987C77.1583 10.9962 77.1577 11.0936 77.157 11.1904L77.1815 10.9213L77.3075 10.9312H77.1908C77.1835 12.5156 77.1842 13.1759 77.1875 14.1596C77.1922 15.2515 77.1968 16.3453 77.2014 17.3841C78.099 17.3827 78.9515 17.3814 79.7364 17.3801C80.0473 17.3801 80.28 17.3993 80.4206 17.4172L82.5578 17.3768C82.3934 17.4464 84.3305 17.4378 83.3102 17.4815C84.9098 17.3993 86.5327 17.4497 88.058 17.3642C89.008 17.3609 89.9686 17.3582 90.9378 17.3549C91.4224 17.3522 91.9089 17.3496 92.3982 17.3469C92.6176 17.3456 92.837 17.3436 93.0571 17.3423C93.1837 17.3403 93.311 17.339 93.4383 17.337C93.4575 19.0248 93.4767 20.7305 93.4966 22.4375C93.5218 24.289 93.553 26.1419 93.5908 27.9768L93.6166 27.8389C93.663 29.8118 93.7996 31.55 93.7545 33.9484C93.8473 35.6607 93.8964 38.0956 94.0415 38.7771C94.0614 40.7533 94.1344 41.5408 94.1721 43.4785C94.2437 42.9787 94.259 45.3605 94.3147 44.4073C94.4154 43.1219 94.3299 43.0516 94.4108 41.9598L94.3869 41.9923C94.495 36.901 94.5566 31.8039 94.5898 26.643C94.5619 25.0839 94.5573 23.465 94.5586 21.8283C94.5606 19.9608 94.5619 18.0728 94.5639 16.2107C93.9898 16.212 93.4197 16.2133 92.8516 16.214C88.9974 16.2399 84.8276 16.2869 81.521 16.3466C80.7321 16.3671 80.1634 16.3068 79.4905 16.2737C79.2028 16.2763 78.9071 16.279 78.6055 16.2816C78.5047 16.2836 78.402 16.2849 78.2972 16.2869C78.2966 16.2206 78.2953 16.1537 78.2946 16.0861C78.2946 15.9197 78.2933 15.7513 78.2926 15.5809C78.2919 15.1315 78.2906 14.6754 78.2899 14.214C78.2893 13.7533 78.2886 13.2872 78.2873 12.8205C78.2873 12.6296 78.286 12.4387 78.286 12.2478L78.284 12.0211C79.11 12.0138 79.9313 12.0071 80.7235 11.9998C80.6592 11.9992 80.5969 11.9979 80.5558 11.9972C82.3782 11.9853 83.7431 12.0588 85.5224 12.0469C85.5138 12.0264 85.7895 12.025 85.9235 12.0144C86.0255 12.0462 87.2089 12.035 88.768 12.0078C89.5476 11.9925 90.4214 11.976 91.3017 11.9587C91.7419 11.9495 92.1834 11.9408 92.6149 11.9316L92.9371 11.9249C93.0956 11.9229 93.2527 11.9203 93.4091 11.9183C93.7333 11.9143 94.0508 11.9097 94.3611 11.9057C94.3465 10.8941 94.3339 9.98788 94.324 9.30242C94.3167 8.74557 94.316 8.36705 94.3253 8.26098C94.322 8.07603 94.318 7.88444 94.314 7.68888C94.322 7.04651 94.3293 6.40149 94.3372 5.75581L93.3296 5.74189L92.8755 5.7346L92.544 5.72664C92.1019 5.71537 91.661 5.70344 91.2228 5.69217C90.784 5.68024 90.3478 5.66831 89.9149 5.65637L89.5907 5.64776C89.4283 5.6451 89.2659 5.64179 89.1041 5.63914C88.7435 5.63383 88.3855 5.62787 88.0289 5.62256C88.0136 6.55595 87.9991 7.47144 87.9851 8.36042C87.9752 9.05449 87.9699 9.72868 87.9732 10.3757C88.0183 11.0757 88.0574 11.8639 88.1078 12.4533C88.0667 13.0234 88.1462 13.1328 88.1349 13.8202C87.944 15.5644 88.0236 16.5859 88.0912 15.6857C88.117 17.1209 88.0998 18.5607 88.1064 19.8362C88.1137 20.1319 88.121 20.4269 88.1283 20.7219L88.1343 20.9433L88.1369 21.054L88.1396 21.1083C88.1436 21.1779 88.1475 21.2476 88.1515 21.3178C88.1555 21.3795 88.1568 21.4345 88.1555 21.4809C88.007 21.4776 87.8943 21.4531 87.8108 21.4192L87.7644 21.4219C87.7478 21.4226 87.7425 21.4232 87.6994 21.4239C87.6305 21.4246 87.5675 21.4259 87.5098 21.4265C87.3938 21.4265 87.297 21.4272 87.2128 21.4279C87.0451 21.4272 86.9291 21.4232 86.8104 21.4173C86.5738 21.4067 86.3298 21.3901 85.6503 21.3801C85.541 21.3576 85.1273 21.3622 84.6096 21.3768C84.4803 21.3808 84.3444 21.3854 84.2052 21.3901C84.1356 21.3927 84.0653 21.3954 83.9944 21.3974L83.8876 21.4014L83.8366 21.4033L83.816 21.4053C83.6947 21.4166 83.5734 21.4272 83.462 21.4378C83.4415 21.2217 83.4269 21.0778 83.4335 20.8637L83.4382 20.9744L83.4408 21.0301L83.4421 21.058L83.4435 21.0719C83.4448 20.9784 83.4461 20.8869 83.4468 20.7968C83.4488 20.7026 83.4508 20.6098 83.4528 20.519C83.4574 20.3374 83.4634 20.1617 83.4707 19.99C83.4846 19.6473 83.5018 19.3211 83.519 18.9963C83.5535 18.3466 83.5873 17.7016 83.59 16.9339C83.6099 15.1759 83.6138 13.3515 83.6125 11.5398C83.6105 9.50329 83.6085 7.48139 83.6066 5.56356C83.004 5.56356 82.416 5.56224 81.8399 5.56158C81.4786 5.56025 81.1246 5.55826 80.7766 5.55694C80.7374 5.6272 81.6483 5.54169 81.6947 5.63383C79.3625 5.6219 77.0112 5.53506 74.6578 5.52313C74.2335 5.50456 73.7145 5.46877 73.5209 5.44689C72.7692 5.42104 73.0768 5.48004 72.5265 5.47142L72.4523 5.40844C71.6475 5.46015 71.2763 5.33817 70.5186 5.36469C70.4788 5.38988 70.2017 5.39319 69.9332 5.39121C69.9193 5.32425 69.1046 5.39585 69.143 5.33486L69.135 5.34016C68.9726 5.33884 68.8573 5.34348 68.6591 5.33154C68.3508 5.35541 65.4618 5.53904 65.1489 5.56754L65.0031 5.55627C64.5709 5.55826 64.3859 5.60798 64.6385 5.61991L64.1055 5.61594L64.1671 5.61129L63.6375 5.60732C63.54 5.60135 63.4293 5.57019 63.5798 5.54103C63.2795 5.56423 62.9421 5.57682 62.6424 5.56489C63.4777 5.60599 64.5145 5.66499 65.3876 5.73261C65.0289 5.75581 64.3806 5.72001 63.9915 5.72731C63.5274 5.68289 62.5722 5.6451 61.829 5.61461C61.6659 5.61859 61.5532 5.6935 61.1827 5.66035C61.0017 5.60864 60.7644 5.66234 60.4561 5.62522C60.8101 5.59804 61.1562 5.60997 61.5148 5.61262C61.4531 5.55163 60.6417 5.57152 60.358 5.55428C60.2248 5.57351 59.5327 5.55362 59.0978 5.57019C59.2874 5.51186 58.7471 5.53307 58.4886 5.50125C58.1949 5.49396 58.0073 5.51782 58.1266 5.53837C58.0318 5.60201 59.294 5.57616 58.885 5.64311C58.7776 5.61196 58.2029 5.62323 57.8939 5.62588C57.89 5.66035 58.1054 5.6524 57.9045 5.68554C57.5605 5.67759 57.1959 5.71935 56.9983 5.68355C57.0626 5.67427 57.2045 5.68024 57.3053 5.6809C56.8571 5.67759 59.7329 5.45418 59.1528 5.47407C59.3033 5.50523 56.6019 5.68024 56.9002 5.68223C57.1733 5.69946 56.7047 5.7452 56.9871 5.75714L57.3006 5.71537C57.6871 5.72863 57.8455 5.78896 57.709 5.81282C57.062 5.80752 59.5473 5.5755 58.9937 5.61063L59.2184 5.6272C58.9838 5.64974 58.3573 5.66963 58.1154 5.63317C58.1134 5.66764 57.7978 5.67958 57.536 5.69217L57.4432 5.6862C57.1727 5.70344 56.7942 5.69549 56.9698 5.74056C58.5575 5.73526 55.9257 6.08992 57.4637 6.10981C56.8187 6.03424 57.6805 6.03225 58.3573 6.02297C58.4229 6.04882 58.7239 6.08661 59.2105 6.10649C59.6321 6.10053 59.4591 6.07865 59.5393 6.05943C59.7726 6.07666 60.2195 6.09058 60.1611 6.13102C60.4899 6.08329 60.6862 6.16152 61.0799 6.14494C61.4273 6.12307 61.0567 6.12439 61.3027 6.10119C61.8237 6.10649 62.5543 6.11312 62.9686 6.1224C63.129 6.15953 63.6176 6.22582 63.2616 6.28416C62.4714 6.2762 63.5626 6.18936 62.7405 6.20195C63.0945 6.28747 62.0133 6.22516 61.8635 6.29012C62.1253 6.32857 62.6563 6.32924 63.1005 6.31863L63.0117 6.30736C63.4028 6.29609 64.1857 6.27819 64.6093 6.32393C64.5099 6.35376 64.6942 6.3763 64.4071 6.38359L64.9461 6.38956C65.0143 6.38028 65.0846 6.37034 64.9295 6.36371C65.1834 6.3405 65.438 6.3531 65.6335 6.371C65.6925 6.40282 68.4993 6.23709 68.4125 6.25764C68.8009 6.25698 68.8944 6.30404 69.2729 6.27222C69.2829 6.2656 69.0562 6.26957 68.7181 6.27819C68.38 6.2888 67.9312 6.30206 67.497 6.31598C66.6286 6.34515 65.8191 6.3763 66.0757 6.371C66.4071 6.40613 70.4741 6.2119 70.7161 6.27222C71.0038 6.26957 71.3505 6.26294 71.2829 6.23112C71.7688 6.24703 71.1371 6.29277 71.4831 6.32261C71.4911 6.3173 71.4546 6.3067 71.5653 6.30736L71.8981 6.3478C72.6525 6.29808 73.7596 6.36304 74.5498 6.29675C74.3211 6.33189 74.0599 6.39288 73.5514 6.4247L73.4626 6.40746C73.3903 6.4174 72.972 6.42867 72.9839 6.46049C73.4672 6.48171 73.8802 6.47574 74.3887 6.44458C74.4828 6.4532 74.5922 6.46182 74.6651 6.4711C74.6631 6.46712 74.6552 6.46314 74.6572 6.4585C74.8236 6.47839 74.8056 6.48171 74.7453 6.4943C74.7374 6.49629 74.7274 6.49894 74.7102 6.50159C75.0131 6.59573 76.6068 6.44193 77.4891 6.49032C77.749 6.47707 77.5137 6.47441 77.8372 6.45652C78.7387 6.49364 79.3606 6.52281 80.3026 6.54468C80.6035 6.50425 80.6274 6.48767 80.2635 6.44525L80.9754 6.4585C80.3278 6.56656 82.3052 6.56192 81.5913 6.66998C81.6954 6.68257 81.8538 6.68986 82.0368 6.69185H82.1833C82.231 6.6892 82.2801 6.68655 82.3311 6.68191C82.3596 6.66069 82.4007 6.6302 82.5519 6.6176C82.5558 6.65407 82.5578 6.70445 82.5578 6.77008C82.5406 6.96696 82.534 7.04187 82.5287 7.10816C82.522 7.22484 82.5161 7.32693 82.5001 7.61331C82.465 7.74987 82.4504 7.53774 82.4226 7.56226C82.4677 8.45389 82.3457 8.34053 82.3523 9.18111C82.3629 9.70813 82.3669 10.7482 82.4292 10.7734C82.4266 11.4834 82.3808 11.4834 82.3304 11.4125V11.4165Z" fill="white"/>
</g>
<defs>
<clipPath id="clip0_90_634">
<rect width="88.6667" height="189.123" fill="white" transform="translate(6 5.3335)"/>
</clipPath>
</defs>
</svg>
