<svg width="992" height="258" viewBox="0 0 992 258" fill="none" xmlns="http://www.w3.org/2000/svg">
<g clip-path="url(#clip0_88_354)">
<path d="M14.7002 39.0033C8.25892 41.2783 -0.542747 45.0678 -1.73716 51.6939C-3.27994 60.2752 9.53866 64.6973 18.4825 81.7888C27.1776 98.4039 20.8429 105.272 27.661 112.005C39.4913 123.679 61.588 106.011 102.539 103.189C143.739 100.352 163.447 115.346 170.99 105.208C179.223 94.1382 164.009 65.0813 144.514 47.8476C100.321 8.78751 35.4744 31.6733 14.7073 39.0033H14.7002Z" fill="black"/>
<path d="M67.1335 153.915C60.1306 161.139 66.4865 168.163 60.7349 182.354C46.7219 216.956 -7.65941 216.252 -8.22818 232.121C-8.59787 242.437 13.9253 255.625 36.5623 257.715C77.4211 261.491 92.4792 226.703 131.12 232.121C155.819 235.583 166.49 252.156 174.488 246.34C184.257 239.231 177.809 207.6 161.691 185.909C136.125 151.512 82.8955 137.656 67.1335 153.915Z" fill="black"/>
<path d="M189.418 136.853C188.835 142.05 222.435 139.647 245.584 166.713C266.842 191.568 255.701 213.693 274.734 227.855C295.764 243.511 338.315 238.022 352.939 213.636C361.719 198.997 359.835 178.543 351.517 163.869C319.951 108.194 190.556 126.693 189.418 136.853Z" fill="#FF0000"/>
<path d="M293.219 43.0058C292.749 49.2196 317.334 50.1154 323.79 68.6004C328.013 80.6867 319.68 86.5521 323.79 95.6168C331.347 112.282 362.665 99.4844 387.776 118.368C410.413 135.381 404.533 160.478 421.191 164.58C438.51 168.846 464.809 146.614 463.138 129.743C461.439 112.609 432.154 113.768 413.371 82.8196C402.379 64.7043 408.629 58.0782 399.151 46.5606C372.412 14.0698 294.043 32.0286 293.219 43.0058Z" fill="black"/>
<path d="M484.466 40.1627C479.852 49.3412 482.582 60.3398 483.045 62.2025C487.012 78.1919 502.048 89.6953 515.038 94.1956C548.446 105.763 566.284 70.2719 613.861 73.5778C643.345 75.6254 660.6 90.9323 663.628 86.3751C667.368 80.7514 644.077 52.9458 612.439 36.6079C563.881 11.5324 497.413 14.3834 484.466 40.1627Z" fill="#FF0000"/>
<path d="M410.527 193.018C406.481 200.931 417.146 211.283 410.527 223.589C405.664 232.626 395.767 234.737 396.308 236.387C397.274 239.344 427.675 227.827 457.45 225.011C517.242 219.359 538.144 252.269 572.625 236.387C591.025 227.912 608.351 207.827 607.462 185.198C606.368 157.164 577.616 132.821 556.273 135.43C533.245 138.246 536.111 170.324 505.795 185.909C467.517 205.595 418.589 177.249 410.527 193.018Z" fill="black"/>
<path d="M650.831 132.586C649.871 140.592 665.249 141.743 672.871 159.603C683.67 184.891 663.266 207.031 672.871 217.19C680.94 225.729 697.854 212.733 730.458 209.37C775.647 204.706 807.491 223.034 810.797 215.768C813.655 209.491 787.676 200.597 776.671 172.4C767.741 149.521 778.413 138.871 770.272 126.188C750.003 94.6067 653.191 112.814 650.831 132.586Z" fill="black"/>
<path d="M702.02 70.0229C708.042 79.9692 734.056 62.5578 773.827 67.1791C830.284 73.7412 853.76 117.636 868.384 108.415C883.478 98.9021 879.219 39.0962 841.368 12.4352C799.955 -16.7354 747.244 14.1273 741.834 17.4119C717.142 32.3918 695.884 59.8989 702.02 70.0229Z" fill="black"/>
<path d="M828.571 138.985C821.774 145.59 839.477 188.155 876.205 207.948C908.312 225.253 956.572 226.007 978.583 201.55C1020.39 155.089 947.706 39.6715 941.613 41.584C938.613 42.5296 953.145 71.487 941.613 106.992C940.191 111.358 926.32 152.287 895.401 159.603C862.938 167.282 835.481 132.274 828.571 138.985Z" fill="#FF0000"/>
</g>
<defs>
<clipPath id="clip0_88_354">
<rect width="1564.48" height="258" fill="white" transform="translate(-573)"/>
</clipPath>
</defs>
</svg>
