<svg width="294" height="297" viewBox="0 0 294 297" fill="none" xmlns="http://www.w3.org/2000/svg">
<g clip-path="url(#clip0_5_158)">
<path d="M284.664 48.1015C282.171 50.8926 279.069 51.8229 272.217 52.4491C259.77 63.6224 239.861 77.2737 221.504 87.2035C243.592 100.855 268.791 110.48 293.991 117.619L293.372 121.036C274.701 124.758 261.33 138.418 254.793 159.521C211.55 135.627 180.746 104.594 162.389 50.2753C160.523 53.6926 157.412 54.623 150.255 55.5533C136.875 88.7601 115.102 117.619 83.6784 139.662H156.479L177.015 111.733C177.015 111.733 200.035 130.662 213.415 143.392C212.797 146.809 209.371 148.357 204.708 148.357H85.5527L83.0596 139.975C60.9719 155.496 34.2121 167.599 1.85627 175.973L-0.0090332 172.555C39.8169 152.696 69.3658 122.897 88.0367 87.8297C83.3735 90.0035 77.1498 90.3166 70.6123 86.5862C69.0609 80.3779 65.6352 73.8653 61.5907 67.9611C55.6809 73.8564 49.1434 79.4475 42.301 84.4124C93.0138 96.5161 65.0164 138.409 40.1218 119.167C39.808 109.854 36.3912 99.6113 31.719 91.5422C23.0113 97.4375 13.6758 102.402 4.02647 106.437L0.914649 103.646C26.1321 79.4475 46.9732 38.7889 57.5552 0L108.887 18.9293C107.64 22.3466 103.596 25.1377 96.4395 24.5114C93.3277 29.7895 89.902 35.0675 86.1714 40.0324H102.663L125.065 18.312L162.398 50.2753C158.039 36.9282 154.309 22.3466 151.197 6.20837L154.927 4.34765C165.509 38.4848 186.037 63.0051 211.55 80.691C216.841 68.9004 222.437 54.623 225.863 43.1366H183.239L180.441 34.4502H224.616L247.018 12.4167L284.664 48.1104V48.1015ZM116.357 222.204C114.806 224.995 111.694 227.169 104.537 226.239C82.4498 247.342 47.9148 268.132 9.64928 279.001L7.4701 275.897C32.6696 253.55 55.0711 217.866 64.7115 192.728L116.357 222.213V222.204ZM169.554 190.545V249.507C169.554 277.436 162.398 293.887 114.492 296.991C113.873 283.957 112.626 274.645 107.649 268.436C103.291 263.158 97.695 258.193 81.2033 255.402V251.985C81.2033 251.985 111.066 253.846 117.917 253.846C122.276 253.846 123.513 251.672 123.513 248.881V190.536H24.8855L22.3925 181.85H212.178L233.333 152.678C233.333 152.678 257.286 172.233 271.285 185.571C270.666 188.989 267.24 190.536 262.577 190.536H169.554V190.545ZM79.6429 48.7277C77.1498 51.5188 74.9796 54.3099 72.4866 56.7968C87.113 58.6575 94.2604 64.2486 96.4395 70.448C99.5514 63.3093 102.035 56.1706 104.215 48.7277H79.6339H79.6429ZM180.755 203.588C301.775 211.657 281.239 296.07 236.759 275.28C224.311 250.759 199.112 223.144 178.584 205.762L180.764 203.588H180.755Z" fill="#FF0000"/>
</g>
<defs>
<clipPath id="clip0_5_158">
<rect width="294" height="297" fill="white"/>
</clipPath>
</defs>
</svg>
