<svg width="76" height="35" viewBox="0 0 76 35" fill="none" xmlns="http://www.w3.org/2000/svg">
<path d="M71.64 7.81C75.09 7.81 76.32 12.38 73.34 14.11L61.1 21.21L39.7 33.63C38.65 34.24 37.36 34.24 36.31 33.63L14.91 21.21L2.67001 14.11C-0.319994 12.38 0.91001 7.81 4.37001 7.81C4.97001 7.81 5.55001 7.97 6.07001 8.27L14.92 13.41L36.32 25.83C37.37 26.44 38.66 26.44 39.71 25.83L61.11 13.41L69.96 8.27C70.48 7.97 71.06 7.81 71.66 7.81H71.64Z" fill="#FF8C00"/>
<path d="M39.7 18.29C38.65 18.9 37.36 18.9 36.31 18.29L21.4 9.64L15.65 6.3C12.66 4.57 13.89 0 17.35 0H58.68C62.13 0 63.36 4.57 60.38 6.3L54.63 9.64L39.72 18.29H39.7Z" fill="#FF8C00"/>
</svg>
