<svg width="103" height="47" viewBox="0 0 103 47" fill="none" xmlns="http://www.w3.org/2000/svg">
<g clip-path="url(#clip0_90_653)">
<path d="M22.0571 45.5064C34.239 45.5064 44.1143 35.631 44.1143 23.4492C44.1143 11.2674 34.239 1.39209 22.0571 1.39209C9.87531 1.39209 0 11.2674 0 23.4492C0 35.631 9.87531 45.5064 22.0571 45.5064Z" fill="#FF0000"/>
<path d="M16.8225 3.19333C25.263 5.24167 33.9506 6.29511 42.6382 6.31462H42.8853C51.6509 6.31462 60.423 5.26768 68.9481 3.19333C69.3252 3.10229 69.6504 2.86819 69.8519 2.53655C70.0535 2.20492 70.1186 1.80825 70.021 1.4311C69.93 1.04744 69.6959 0.728806 69.3577 0.527222C69.0261 0.325639 68.6359 0.267114 68.2523 0.358152C59.9548 2.37399 51.4168 3.39491 42.8788 3.39491H42.6382C34.1782 3.3754 25.7247 2.35448 17.5118 0.358152C17.1346 0.267114 16.738 0.325639 16.4063 0.527222C16.0747 0.728806 15.8341 1.05394 15.743 1.4311C15.652 1.80825 15.7105 2.20492 15.9121 2.53655C16.1137 2.86819 16.4388 3.10229 16.816 3.19333H16.8225Z" fill="black"/>
<path d="M76.4066 6.01557C76.3156 5.63191 76.075 5.31328 75.7433 5.11169C75.4117 4.91011 75.0215 4.85159 74.6379 4.94262C64.2531 7.46567 53.5627 8.7402 42.8787 8.7402H42.5796C31.9997 8.71419 21.4198 7.43966 11.1326 4.94262C10.7554 4.85159 10.3653 4.91011 10.0336 5.11169C9.69549 5.31328 9.4614 5.63841 9.37036 6.01557C9.27932 6.39273 9.33785 6.78939 9.53943 7.12103C9.74101 7.45266 10.0661 7.68676 10.4433 7.7843C15.5089 9.01331 20.7176 9.9627 25.9262 10.613V17.3823C23.0585 16.9271 20.2299 16.3614 17.5117 15.6981C17.1281 15.607 16.7379 15.6656 16.4063 15.8671C16.0746 16.0687 15.8405 16.3939 15.7495 16.771C15.6585 17.1482 15.717 17.5448 15.9186 17.8765C16.1202 18.2081 16.4453 18.4422 16.8224 18.5333C19.8007 19.2551 22.8634 19.8663 25.9262 20.341V22.4544C24.6257 22.2203 23.5267 22.0057 22.4928 21.7846C22.1091 21.7001 21.719 21.7716 21.3938 21.9797C21.0622 22.1943 20.8411 22.5194 20.7566 22.9031C20.5875 23.6899 21.0882 24.4702 21.875 24.6393C23.1301 24.9124 24.4566 25.166 25.9262 25.4196V44.6351C25.9262 45.4414 26.583 46.0982 27.3893 46.0982C28.1957 46.0982 28.8524 45.4414 28.8524 44.6351V25.8748C33.4563 26.5316 38.1123 26.8697 42.6902 26.8762H42.8917C47.3331 26.8762 51.8459 26.5706 56.3133 25.9593V44.6286C56.3133 45.4349 56.9701 46.0917 57.7764 46.0917C58.5827 46.0917 59.2395 45.4349 59.2395 44.6286V25.5171C60.8262 25.2505 62.3933 24.9514 63.9084 24.6263C64.6953 24.4572 65.196 23.6769 65.0269 22.8901C64.9424 22.5064 64.7148 22.1813 64.3896 21.9732C64.0645 21.7651 63.6678 21.6936 63.2907 21.7716C62.0227 22.0447 60.6961 22.3048 59.246 22.5519V20.419C62.5234 19.9313 65.7942 19.2876 68.961 18.5202C69.3382 18.4292 69.6633 18.1951 69.8649 17.8635C70.0665 17.5318 70.1315 17.1352 70.034 16.758C69.9429 16.3744 69.7088 16.0557 69.3707 15.8476C69.0391 15.6461 68.6424 15.5875 68.2652 15.6786C65.3 16.4004 62.2633 16.9986 59.2395 17.4603V10.6845C64.6562 10.0342 70.073 9.05883 75.3402 7.7843C76.1205 7.59572 76.6082 6.8024 76.4131 6.01557H76.4066ZM44.0427 18.7153V11.6469C48.0939 11.6144 52.2166 11.3933 56.3068 10.9901V17.8765C52.2491 18.3837 48.1264 18.6698 44.0427 18.7153ZM56.3068 20.8287V23.0201C51.8394 23.6509 47.3266 23.9695 42.8852 23.9695H42.6902C38.1058 23.9565 33.4498 23.6119 28.8459 22.9356V20.7507C33.4368 21.3359 38.0537 21.6415 42.5731 21.6545H42.8787C47.3071 21.6545 51.8199 21.3749 56.3003 20.8287H56.3068ZM28.8524 17.7984V10.9316C32.9231 11.3478 37.0523 11.5884 41.1165 11.6404V18.7023C37.0328 18.6373 32.9101 18.3317 28.8524 17.7919V17.7984Z" fill="black"/>
<path d="M70.8859 42.1703H63.3298V38.8344H64.3897V31.5644H63.2972V28.2285H70.8859V31.5644H69.7804V38.8344H70.8859V42.1703ZM79.554 42.1703H72.336V38.8344H73.0058L69.9495 34.8678L73.5 31.5709H72.3685V28.235H79.2353V31.5709H78.1559L75.3077 34.2175L78.8647 38.8409H79.554V42.1768V42.1703Z" fill="black"/>
<path d="M78.7866 35.1667C78.7866 34.0027 79.0727 32.8778 79.6385 31.7918C80.1977 30.7124 81.0691 29.7955 82.2526 29.0542C82.6752 28.7941 83.1044 28.586 83.5531 28.4299C83.9953 28.2739 84.483 28.1568 85.0032 28.0723C85.5234 27.9877 86.0696 27.9487 86.6484 27.9487C89.1454 27.9487 91.0832 28.6835 92.4553 30.1466C93.1381 30.8684 93.6518 31.6488 93.9964 32.4941C94.3411 33.333 94.5166 34.2303 94.5166 35.1732C94.5166 37.1175 93.8078 38.8082 92.3903 40.2453C90.9727 41.6824 89.0609 42.3977 86.6484 42.3977C84.2359 42.3977 82.4281 41.7214 80.978 40.3754C79.5214 39.0293 78.7931 37.2996 78.7931 35.1732L78.7866 35.1667ZM84.8406 35.1667C84.8406 36.7144 84.9902 37.7613 85.2893 38.301C85.5754 38.8472 86.0306 39.1204 86.6419 39.1204C87.2531 39.1204 87.7018 38.8537 88.0074 38.327C88.3066 37.7938 88.4561 36.7339 88.4561 35.1602C88.4561 33.5866 88.3066 32.5851 88.0139 32.0324C87.7278 31.4862 87.2661 31.2131 86.6419 31.2131C86.0176 31.2131 85.5884 31.4797 85.2893 32.0064C84.9902 32.5331 84.8406 33.5866 84.8406 35.1667Z" fill="black"/>
<path d="M83.3515 20.5621C83.3515 20.5621 83.41 20.5426 83.449 20.4971C83.4946 20.4776 83.5076 20.4646 83.4816 20.4646C83.462 20.4191 83.462 20.3735 83.4816 20.328C83.5726 20.172 83.7482 20.1394 84.0148 20.2305C84.0798 20.25 84.1058 20.276 84.0798 20.2955C84.1903 20.315 84.3009 20.3215 84.4114 20.315C84.522 20.302 84.639 20.315 84.7626 20.3345C84.8861 20.354 84.9772 20.4126 85.0487 20.5036C85.1137 20.5036 85.2633 20.4906 85.4974 20.4711C85.7315 20.4516 85.9396 20.4386 86.1151 20.4386C86.3167 20.5036 86.4403 20.5166 86.4793 20.4711C86.4988 20.4711 86.5248 20.4841 86.5443 20.5036C86.5898 20.5491 86.6224 20.5361 86.6419 20.4711C86.6874 20.5166 86.7914 20.5296 86.9605 20.5036C87.1296 20.4841 87.2531 20.5036 87.3442 20.5686C87.3897 20.5231 87.4547 20.5166 87.5457 20.5361C87.6368 20.5556 87.7018 20.6011 87.7473 20.6662C87.7473 20.6467 87.7863 20.6206 87.8644 20.6011C87.9424 20.5816 88.0269 20.5816 88.1115 20.6011C88.2025 20.6206 88.2545 20.6662 88.2805 20.7312C88.2805 20.7767 88.261 20.8222 88.2155 20.8678L88.4171 20.9003C88.4626 20.9913 88.5146 20.9588 88.5862 20.8027C88.6317 20.7832 88.6707 20.7897 88.7032 20.8352C88.7357 20.8808 88.7617 20.9133 88.7877 20.9328L88.8528 20.9003C88.7877 20.9003 88.7617 20.8808 88.7877 20.8352C88.8333 20.7442 88.9308 20.7377 89.0869 20.8027C89.1519 20.8027 89.2429 20.8157 89.3535 20.8352C89.9062 20.9263 89.9452 20.9653 89.451 20.9653C90.0753 21.0758 90.5045 21.1409 90.7516 21.1669H91.1482C91.1482 21.1669 91.2328 21.1994 91.3303 21.1994C91.4278 21.1994 91.5189 21.2124 91.5969 21.2319C91.6749 21.2514 91.714 21.3099 91.714 21.401L92.0456 21.3685C93.3331 21.388 94.0094 21.57 94.0809 21.9017C94.146 21.7651 94.2565 21.7001 94.4126 21.7001C94.5686 21.7001 94.7117 21.7586 94.8483 21.8692C94.9588 21.8497 95.2124 21.8887 95.6156 22.0057C95.6806 22.0512 95.7846 22.0773 95.9147 22.0903C96.0448 22.1033 96.1618 22.1293 96.2658 22.1748C96.3634 22.2203 96.4284 22.3113 96.4479 22.4414L96.4804 22.3764C96.4804 22.3309 96.4999 22.3113 96.5455 22.3113C96.6105 22.3569 96.6885 22.3894 96.7796 22.4089C96.9356 22.3179 97.0462 22.3439 97.1112 22.4739C97.1567 22.4284 97.2803 22.4544 97.4753 22.5389C98.7434 22.9356 99.7968 23.3193 100.642 23.6704C100.707 23.6704 100.74 23.6964 100.727 23.7549C100.714 23.8135 100.707 23.8525 100.707 23.885C100.707 23.9175 100.753 23.924 100.837 23.9045H100.935C100.915 23.95 100.935 23.9825 101 24.002V24.0346C101.468 24.1711 101.722 24.3662 101.767 24.6328C101.767 24.6523 101.787 24.6848 101.819 24.7173C101.852 24.7499 101.871 24.7824 101.884 24.8149C101.897 24.8474 101.904 24.9124 101.904 24.997C101.904 25.0165 101.917 25.0425 101.936 25.062C102.027 25.153 102.034 25.2376 101.969 25.3286C101.923 25.4391 101.819 25.5692 101.65 25.7123C101.481 25.8553 101.299 25.9984 101.097 26.1284C100.896 26.2585 100.766 26.3495 100.701 26.395C100.681 26.6161 100.571 26.8372 100.369 27.0583L100.304 26.9933C100.304 26.9933 100.271 27.0128 100.271 27.0583C100.382 27.1949 100.363 27.3054 100.206 27.4095C100.05 27.507 99.8748 27.546 99.6733 27.5265C99.6733 27.481 99.6537 27.442 99.6082 27.4095C99.5627 27.3769 99.4977 27.3509 99.4066 27.3249C99.3156 27.3054 99.2376 27.2859 99.1725 27.2729C99.1075 27.2599 99.01 27.2534 98.8864 27.2404C98.7629 27.2274 98.6783 27.2209 98.6393 27.2209C98.6198 27.2014 98.5678 27.1689 98.4898 27.1233C98.4117 27.0778 98.3337 27.0388 98.2557 27.0063C98.1776 26.9738 98.0931 26.9543 98.0086 26.9543C97.8525 26.7982 97.5859 26.7072 97.2087 26.6877C97.2282 26.7072 97.2542 26.7527 97.2738 26.8177C97.2933 26.8827 97.3323 26.9543 97.3713 27.0193C97.3908 27.0193 97.3908 27.0323 97.3713 27.0518C97.4623 27.2989 97.5729 27.6436 97.7029 28.0987C97.8395 28.5539 97.9565 28.9766 98.0671 29.3668C98.1776 29.7569 98.3012 30.1276 98.4312 30.4852C98.4312 30.5958 98.5093 30.9209 98.6653 31.4541C98.7564 31.4997 98.9645 31.5842 99.2961 31.7207H99.3286C99.4587 31.8313 99.6147 31.9223 99.7968 31.9874C99.9724 32.0524 100.161 32.1239 100.35 32.2019C100.538 32.28 100.701 32.3775 100.831 32.4881C100.896 32.5336 101.006 32.5921 101.149 32.6701C101.292 32.7482 101.416 32.8327 101.514 32.9172C101.611 33.0083 101.683 33.1188 101.728 33.2489C101.748 33.2684 101.793 33.3204 101.858 33.3984C101.923 33.4765 101.982 33.5415 102.027 33.6C102.073 33.6585 102.079 33.7301 102.06 33.8146C101.858 34.1007 101.683 34.2958 101.527 34.3803C101.37 34.3348 101.292 34.3934 101.292 34.5494C101.227 34.6405 101.045 34.7445 100.74 34.868C100.441 34.9916 100.245 35.1412 100.154 35.3167C100.109 35.4273 100.05 35.5248 99.9724 35.6029C99.8944 35.6809 99.8358 35.7394 99.7903 35.7849C99.7448 35.8304 99.7253 35.9215 99.7253 36.071C99.7253 36.2141 99.7708 36.4222 99.8553 36.6888C99.9464 37.131 100.089 37.8853 100.291 38.9517C100.493 40.0182 100.636 40.7985 100.727 41.2862C100.727 41.3057 100.727 41.3447 100.746 41.3837C100.759 41.4293 100.766 41.4813 100.766 41.5333C100.766 41.5918 100.779 41.6373 100.798 41.6829V41.7479C100.818 41.8389 100.831 41.904 100.831 41.9495C100.831 42.0795 100.811 42.2421 100.766 42.4307C100.72 42.6193 100.701 42.7688 100.701 42.8794C100.792 42.8338 100.837 42.8273 100.85 42.8599C100.863 42.8924 100.876 42.9964 100.902 43.1785C100.922 43.3346 100.922 43.6337 100.883 44.0759C100.85 44.518 100.857 44.8107 100.902 44.9407C100.902 44.9862 100.902 45.0448 100.922 45.1228C100.935 45.2008 100.948 45.2724 100.974 45.3374C100.993 45.4024 101 45.4674 100.993 45.5195C100.98 45.5715 100.967 45.6235 100.941 45.669L100.876 45.6365C100.857 45.591 100.824 45.617 100.779 45.7015L100.681 45.604L100.649 45.4739L100.681 45.5065L100.714 45.4414C100.714 45.1943 100.681 45.0643 100.616 45.0448V45.3114L100.649 45.643C100.668 45.708 100.636 45.734 100.551 45.708C100.551 45.6885 100.538 45.6625 100.519 45.643C100.499 45.6235 100.473 45.63 100.454 45.6755C100.408 45.6755 100.363 45.63 100.324 45.5455C100.011 44.9927 99.7383 44.3685 99.4912 43.6792C99.4262 43.6142 99.3806 43.5361 99.3611 43.4451C99.3416 43.4256 99.3091 43.3541 99.2636 43.2305C99.2181 43.107 99.1725 42.9899 99.114 42.8794C99.062 42.7688 99.01 42.7233 98.9645 42.7493C98.945 42.5737 98.9189 42.4632 98.8994 42.4177C98.8799 42.3722 98.8214 42.2356 98.7304 42.0015C98.6393 41.7674 98.5743 41.5723 98.5288 41.4163C98.2427 40.7075 98.0281 40.1157 97.898 39.6475C97.6314 38.8477 97.5079 38.334 97.5339 38.1129C97.3973 38.0479 97.3128 37.8333 97.2673 37.4821C97.2022 37.4821 97.1697 37.4041 97.1697 37.248C97.0136 37.1375 96.9616 37.0269 97.0006 36.9164C96.6235 35.8955 96.4219 35.2972 96.4024 35.1151C96.3829 35.0501 96.3504 34.9461 96.3179 34.7965C96.2853 34.6535 96.2333 34.5364 96.1683 34.4454C96.1033 34.3543 95.9927 34.2893 95.8367 34.2438C94.3476 33.444 93.1511 32.6246 92.2407 31.7793C92.1952 31.7142 92.1952 31.6817 92.2407 31.6817C92.2862 31.6817 92.3187 31.6687 92.3382 31.6492C92.3187 31.5842 92.2797 31.5647 92.2212 31.5972C92.1692 31.6297 92.1301 31.6492 92.1041 31.6492L91.9025 31.4476C91.7465 31.3111 91.6294 31.2135 91.5514 31.1485C91.4734 31.0835 91.4148 31.051 91.3693 31.051C91.3693 31.0705 91.4083 31.1095 91.4864 31.168C91.5644 31.2265 91.5579 31.2395 91.4669 31.22C91.4213 31.155 91.3498 31.0835 91.2523 31.0054C91.1547 30.9274 91.0442 30.8364 90.9336 30.7193H91.0637L90.9336 30.6218C90.6215 30.4007 90.511 30.2901 90.602 30.2901C90.667 30.3357 90.7125 30.3552 90.7321 30.3552L90.498 30.1536C90.4524 30.0886 90.4134 30.0561 90.3809 30.0561C90.3484 30.0561 90.3094 30.1211 90.2639 30.2576C90.1728 30.2576 90.1663 30.2121 90.2313 30.1211C90.2118 30.03 90.2574 29.978 90.3809 29.952C90.5045 29.9325 90.5435 29.887 90.498 29.822C90.498 29.8024 90.511 29.7764 90.5305 29.7569C90.55 29.7374 90.589 29.7179 90.628 29.7049C90.6735 29.6919 90.706 29.6789 90.7256 29.6529L90.693 29.6204C90.7386 29.6009 90.7906 29.6074 90.8621 29.6529C90.9271 29.6984 90.9857 29.7114 91.0312 29.6854H91.0637V29.7829C91.1547 29.8024 91.4018 29.8415 91.8115 29.8805C92.2212 29.926 92.5398 30.004 92.7609 30.1146C93.008 30.0951 93.4632 30.1341 94.1265 30.2511C94.2565 30.3422 94.3931 30.3422 94.5231 30.2511C94.5426 30.2967 94.5816 30.3162 94.6207 30.3162C94.4906 29.939 94.4321 29.6854 94.4516 29.5488C94.341 29.4838 94.2045 29.3017 94.0549 29.0156C94.1004 28.9701 94.12 28.9376 94.12 28.9181C94.12 28.8986 94.1004 28.8661 94.0679 28.8205C94.0354 28.775 94.0159 28.7425 94.0159 28.723C94.0354 28.632 94.0159 28.5539 93.9509 28.4889C93.7493 28.1573 93.5282 27.533 93.2876 26.6226C93.2876 26.6682 93.2746 26.7007 93.2551 26.7202L92.9885 25.6537C92.9235 25.3416 92.8779 25.153 92.8584 25.088C92.8779 25.0685 92.8714 25.036 92.8259 24.9905L92.6243 24.8929C92.5788 24.8734 92.5333 24.8604 92.4878 24.8604C92.3122 24.8604 92.1887 24.8279 92.1236 24.7629C92.1236 24.7434 92.0781 24.7303 91.9936 24.7303C91.9481 24.6393 91.9025 24.6068 91.857 24.6328C91.8115 24.5223 91.727 24.4637 91.5904 24.4637C91.5449 24.4637 91.4929 24.4312 91.4213 24.3662C91.3108 24.3467 91.2848 24.3012 91.3563 24.2361C91.3758 24.2166 91.4018 24.1841 91.4213 24.1386C91.4408 24.0931 91.4213 24.0606 91.3563 24.0411C91.3563 24.1061 91.3368 24.1386 91.2913 24.1386C91.1612 24.1386 91.0897 24.0606 91.0897 23.9045C91.0247 23.9695 90.9596 24.0085 90.9076 24.0216C90.8556 24.0346 90.8036 24.0411 90.7581 24.0411L90.7256 24.0736L90.5955 23.976L90.5305 23.9435L90.5955 24.0411C90.6605 24.1061 90.6865 24.1451 90.6605 24.1581C90.641 24.1711 90.5955 24.1581 90.5305 24.1386C90.485 24.1841 90.4394 24.1386 90.4004 24.0085C90.3809 23.9175 90.3679 23.898 90.3679 23.9435C90.3224 24.0086 90.2378 24.0216 90.1208 23.976C89.9972 23.9305 89.8607 23.8785 89.7046 23.807C89.6591 23.7875 89.5941 23.7549 89.503 23.7094C89.412 23.6639 89.3405 23.6314 89.2885 23.6119C89.2364 23.5924 89.1844 23.5924 89.1389 23.6119C89.1194 23.6119 89.1064 23.5989 89.1064 23.5794C88.9698 23.5143 88.8073 23.4363 88.6057 23.3453C88.4041 23.2542 88.183 23.1632 87.9424 23.0592C87.6953 22.9616 87.5197 22.8901 87.4092 22.8446C87.4092 22.8251 87.3897 22.8056 87.3442 22.7925C87.2986 22.7795 87.2661 22.76 87.2466 22.7275C87.2271 22.695 87.2271 22.6365 87.2466 22.5454C87.4027 22.6365 87.4677 22.656 87.4482 22.6105C87.4482 22.591 87.4287 22.5584 87.3832 22.5129C87.2921 22.4024 87.3637 22.3244 87.5847 22.2788C87.5847 22.2333 87.5978 22.1878 87.6173 22.1488C87.6368 22.1033 87.6628 22.0773 87.6823 22.0642C87.7018 22.0512 87.7278 22.0447 87.7473 22.0447H87.8123L87.7473 21.9797L87.7148 21.9147C87.7148 21.9147 87.7473 21.8692 87.7473 21.8497C87.7278 21.8041 87.6368 21.7716 87.4807 21.7521C87.4352 21.7326 87.4287 21.6871 87.4482 21.6221C87.4287 21.6221 87.3832 21.5961 87.3116 21.5375C87.2466 21.4855 87.1686 21.479 87.0775 21.518C87.032 21.518 86.967 21.5375 86.876 21.583C86.8565 21.6026 86.8304 21.6156 86.8109 21.6156C86.7914 21.6156 86.8239 21.57 86.9085 21.479C86.889 21.5245 86.8304 21.557 86.7394 21.5765C86.6484 21.5961 86.5833 21.5961 86.5378 21.5765C86.5833 21.557 86.6028 21.6091 86.6028 21.7456C86.5573 21.7651 86.5248 21.7651 86.5053 21.7456V21.6806C86.5053 21.6806 86.4923 21.6806 86.4078 21.7456L86.2777 21.6806C86.2127 21.6351 86.1672 21.6026 86.1477 21.583C86.0371 21.5635 86.0046 21.5961 86.0501 21.6806C86.0696 21.7261 86.1412 21.8041 86.2517 21.9147C86.3622 22.0252 86.4273 22.0903 86.4533 22.1163C86.4533 22.1358 86.4013 22.1358 86.2842 22.1163C86.2647 22.1618 86.1932 22.1683 86.0696 22.1358C85.9461 22.1033 85.7965 22.0512 85.6209 21.9862C85.6014 21.9667 85.5689 21.9407 85.5234 21.9212C85.5039 21.8757 85.4128 21.8236 85.2568 21.7521C85.1007 21.6871 84.9902 21.6286 84.9252 21.583C84.8796 21.5635 84.8211 21.531 84.7431 21.4985C84.665 21.466 84.5805 21.4205 84.496 21.3685C84.4049 21.3164 84.3269 21.2774 84.2619 21.2514H84.2294C84.2294 21.2514 84.1643 21.2059 84.0928 21.1864C84.0733 21.1669 84.0018 21.1279 83.8912 21.0693C83.7807 21.0173 83.6896 20.9783 83.6246 20.9523C83.5791 20.9978 83.5271 20.9393 83.4555 20.7832C83.4555 20.7637 83.436 20.7507 83.3905 20.7507H83.358L83.293 20.7182L83.3255 20.6532L83.358 20.6206C83.358 20.6206 83.371 20.5881 83.3905 20.5881L83.3515 20.5621ZM100.278 26.8632C100.278 26.8632 100.317 26.8112 100.33 26.7657C100.343 26.7202 100.356 26.6747 100.382 26.6356C100.271 26.7007 100.239 26.7787 100.285 26.8697L100.278 26.8632ZM99.7773 43.4906V43.5231C99.7123 43.5686 99.7123 43.6012 99.7773 43.6207C99.8228 44.0173 99.9789 44.453 100.245 44.9212C100.2 44.8562 100.18 44.8107 100.18 44.7912L100.311 44.9212L100.278 44.7912C100.278 44.7912 100.298 44.7781 100.343 44.8237C100.343 44.7326 100.311 44.6221 100.245 44.492C100.265 44.5115 100.304 44.5571 100.343 44.6286C100.363 44.7196 100.376 44.7521 100.376 44.7261C100.376 44.7066 100.356 44.6351 100.324 44.5245C100.291 44.414 100.271 44.349 100.271 44.323C100.291 44.2319 100.272 44.0759 100.206 43.8548C100.141 43.6337 100.096 43.4971 100.076 43.4581C100.057 43.4386 99.9854 43.302 99.8748 43.0614C99.8553 42.9704 99.8423 42.9704 99.8423 43.0614C99.7318 42.8859 99.6863 42.8599 99.7058 42.9964C99.7253 43.1265 99.7448 43.237 99.7578 43.315C99.7708 43.3931 99.7773 43.4516 99.7773 43.4971V43.4906ZM92.9105 31.6947C92.9105 31.6947 92.8779 31.6947 92.8779 31.6752C92.8779 31.6622 92.8649 31.6752 92.8454 31.6947H92.9105ZM92.7154 31.6232C92.7349 31.6882 92.7739 31.7337 92.8129 31.7533V31.5842C92.8129 31.5842 92.7609 31.5972 92.7154 31.6167V31.6232ZM92.6178 31.1875H92.5853L92.5528 31.155L92.6178 31.1875ZM92.4553 31.09C92.4553 31.09 92.4358 31.0445 92.3902 31.025H92.2927C92.4032 31.09 92.4618 31.116 92.4618 31.09H92.4553ZM92.3577 31.2916H92.3902L92.3577 31.2591V31.2916ZM92.2277 30.9924C92.2277 30.9274 92.1952 30.9014 92.1301 30.9274L92.1626 30.9599L92.2277 30.9924ZM92.1301 31.4931H92.0651C92.0846 31.5582 92.1106 31.5582 92.1301 31.4931ZM91.766 24.3922V24.3597C91.7009 24.3792 91.7009 24.3922 91.766 24.3922ZM91.2002 30.9209C91.2458 30.9664 91.2783 30.9794 91.2978 30.9534C91.2978 30.9339 91.2653 30.9209 91.2002 30.9209ZM90.3029 30.0235H90.2704V30.0561L90.3029 30.0235ZM87.8709 22.0252C87.8709 22.0252 87.8514 22.0382 87.8709 22.0577V22.0252ZM87.7733 21.2904C87.8188 21.3099 87.8384 21.3099 87.8384 21.2904C87.8839 21.2709 87.8709 21.2384 87.8058 21.1929C87.7603 21.1929 87.7148 21.2059 87.6758 21.2254L87.7083 21.2579C87.7083 21.2579 87.7213 21.2254 87.7408 21.2254L87.7733 21.2904ZM87.6433 21.427C87.6888 21.4465 87.7083 21.4465 87.7083 21.427C87.7083 21.4075 87.6953 21.3945 87.6758 21.3945C87.6563 21.3945 87.6433 21.4075 87.6433 21.427ZM87.6433 22.2593C87.6433 22.2593 87.6563 22.2788 87.6758 22.2593H87.6433ZM87.5782 21.492C87.6238 21.492 87.6368 21.4595 87.6108 21.3945C87.5912 21.375 87.5457 21.3555 87.4807 21.3424C87.4157 21.3294 87.4157 21.2904 87.4807 21.2254C87.4612 21.2254 87.3832 21.2059 87.2466 21.1734C87.1166 21.1409 87.0385 21.1474 87.0125 21.1929C87.032 21.2124 87.1101 21.2384 87.2271 21.2579C87.3507 21.2774 87.4092 21.3229 87.4092 21.388C87.4092 21.453 87.4677 21.4855 87.5782 21.4855V21.492ZM87.5782 21.5895V21.5245C87.5132 21.544 87.5132 21.57 87.5782 21.5895ZM87.5132 20.7897C87.5132 20.7897 87.4807 20.8027 87.4807 20.8222L87.5132 20.7897ZM87.3116 21.388L87.2791 21.3555C87.2791 21.3555 87.2921 21.388 87.3116 21.388ZM86.4143 20.6857H86.4468V20.6532L86.4143 20.6857ZM86.1477 21.388L86.3167 21.453V21.4205C86.3167 21.4205 86.2647 21.4075 86.2192 21.388H86.1542H86.1477Z" fill="#FF0000"/>
</g>
<defs>
<clipPath id="clip0_90_653">
<rect width="102.092" height="45.7855" fill="white" transform="translate(0 0.3125)"/>
</clipPath>
</defs>
</svg>
