<svg width="69" height="11" viewBox="0 0 69 11" fill="none" xmlns="http://www.w3.org/2000/svg">
<path d="M2.17175 7.47162C2.52289 6.60676 2.76999 5.76791 3.14715 4.96808C3.59584 4.01869 4.45419 3.5635 5.23451 3.03678C5.54664 2.8287 6.11888 2.99126 6.57407 3.00427C7.04877 3.01727 7.45193 3.14733 7.90062 2.66613C8.22575 2.32149 8.95405 2.32799 9.51329 2.23695C10.144 2.13291 10.7943 2.02236 11.4316 2.03537C13.5385 2.09389 15.6323 1.82078 17.7392 1.85329C17.7912 1.70373 17.1995 1.6387 17.6742 1.45013C17.9213 1.35259 18.1879 1.31357 18.474 1.37209C18.8056 1.44362 19.1048 1.49565 19.3519 1.07297C19.5209 0.786852 19.9436 0.858381 20.2752 1.00144C20.1582 1.30056 19.8981 1.13149 19.7095 1.26155C20.1062 1.43712 20.6524 1.50215 20.828 1.28756C21.3612 0.63729 22.057 0.916905 22.6357 0.890894C25.2563 0.760841 27.8834 0.741332 30.504 0.6633C33.9374 0.559257 37.3708 0.442208 40.8107 0.331662C41.2464 0.318657 41.7146 0.578765 42.1308 0.123577C42.1958 0.0520469 42.716 0.416198 43.1062 0.403192C45.109 0.32516 47.1054 0.468219 49.0952 0.559257C52.5676 0.708819 56.0401 0.968927 59.4995 1.33958C60.9496 1.49565 62.4127 1.54116 63.8563 1.74275C64.8252 1.8793 65.7616 2.19794 66.9061 2.48405C66.0542 2.89372 65.4169 2.46455 64.7862 2.67914C66.2818 2.73116 67.5823 3.53749 68.8699 3.58951C69.312 3.94716 68.3627 3.70656 68.9089 4.09022C69.0454 4.18776 68.7723 4.22678 68.6423 4.23978C68.2391 4.26579 67.8685 4.0512 67.4198 4.43486C67.0816 4.72098 67.2962 4.71448 67.4328 4.7795C67.6539 4.87704 67.901 4.94207 68.1481 4.96808C68.4537 5.0006 68.6943 5.11114 68.7333 5.42327C68.7723 5.75491 68.4147 5.50781 68.3041 5.67037C68.1936 5.83294 68.0375 5.963 67.7969 5.95649C67.927 6.10605 68.2131 6.00201 68.2716 6.30113C67.5173 6.35316 66.7955 5.93048 65.9957 6.16458C66.1647 6.38567 66.3923 6.39217 66.5874 6.43769C66.893 6.50272 67.2117 6.4572 67.2182 6.95791C67.2182 7.25053 67.6669 7.28954 67.901 7.46512C68.044 7.56916 68.2001 7.68621 68.1676 7.87479C68.1351 8.05036 67.927 7.99184 67.7969 8.04386C67.3157 8.23894 66.8215 8.05686 66.3403 8.08287C65.9567 8.10238 65.3064 7.6732 65.3129 8.58358C65.3129 8.75915 64.9748 8.75915 64.7862 8.75265C64.0969 8.72014 63.4076 8.64861 62.7183 8.6226C62.0485 8.59659 61.3853 8.70063 60.761 8.93472C60.4099 9.06478 60.0912 9.02576 59.7466 8.92172C59.6035 8.8762 59.3694 8.77216 59.3239 9.03877C59.2784 9.31838 59.5255 9.24686 59.6816 9.26636C59.9872 9.30538 60.3318 9.19483 60.618 9.55248C59.2459 10.0402 57.8673 9.42243 56.4367 9.74106C57.048 10.1572 57.7373 9.89062 58.2965 10.1507C58.1924 10.4629 57.9583 10.3783 57.7828 10.3848C56.8009 10.4043 55.819 10.4108 54.8371 10.4173C51.4036 10.4434 47.9897 10.0922 44.5693 9.92313C42.573 9.82559 40.5766 9.70204 38.5803 9.62401C33.7683 9.42893 28.9628 9.54598 24.1573 9.51997C21.4197 9.50696 18.6756 9.53948 15.9379 9.67603C12.3094 9.85161 8.68094 9.98816 5.05894 10.3003C3.66086 10.4238 2.26278 10.4499 0.916727 10.918C0.78017 10.9636 0.598095 10.9896 0.539571 10.8075C0.487549 10.6514 0.416019 10.4499 0.539571 10.3133C0.988256 9.80609 1.20935 9.18183 1.46295 8.57708C1.89863 7.55615 2.82202 7.47162 3.7389 7.36758C4.37616 7.29605 5.01993 7.26353 5.65719 7.21151C5.78074 7.19851 5.98883 7.29605 5.97582 7.04244C5.96282 6.73031 5.72872 6.87337 5.59216 6.89288C4.44769 7.03594 3.28371 7.04895 2.15874 7.50413L2.17175 7.47162Z" fill="#FF0000"/>
</svg>
